<ttFont>
        <CharString name=".notdef">
          943 -60 27 -2 33 -25 25 -4 -21 hstemhm
          1243 10 351 8 hintmask 10001100
          1165 471 rmoveto
          -159 -180 -11 -2 -57 45 -2 12 rlinecurve
          147 191 -186 147 12 33 27 31 14 16 rlinecurve
          39 -27 78 -57 82 -66 151 191 rcurveline
          27 -12 33 -27 16 -14 -26 -39 -58 -72 -65 -88 80 -72 71 -57 33 -31 2 -10 -47 -57 -10 -2 rrcurveto
          579 776 rmoveto
          4 2 -2 2 -4 hhcurveto
          -143 -6 51 141 rlineto
          2 vlineto
          4 -4 0 -2 vhcurveto
          -152 -53 rlineto
          -2 vlineto
          8 -26 -33 6 -37 hhcurveto
          -117 -79 -55 -145 -82 hvcurveto
          -60 -88 -164 -13 -467 -94 -524 45 rcurveline
          -26 -5 -29 -16 19 hvcurveto
          88 -72 147 -45 146 -49 76 -125 122 -211 240 -131 -2 -16 -2 -31 18 -18 rrcurveto
          -16 -15 -10 0 -14 vvcurveto
          -23 84 -36 69 -58 vhcurveto
          -43 -2 -41 0 -32 -22 rrcurveto
          -6 2 -5 4 -6 vhcurveto
          51 13 49 4 43 -6 49 -11 33 -43 27 -43 10 -2 4 4 2 6 -10 37 -19 27 -26 16 55 -8 12 -8 33 -31 rrcurveto
          6 6 4 -2 11 vvcurveto
          -47 63 -55 -6 -45 10 -57 47 -60 35 -55 35 6 6 10 6 15 8 32 -6 17 37 6 16 rrcurveto
          -6 39 35 -2 39 hhcurveto
          55 hlineto
          -8 2 14 -31 23 hhcurveto
          hintmask 00011100
          -15 -12 -8 -10 -8 vvcurveto
          -17 90 -12 88 -49 vhcurveto
          hintmask 01001100
          -41 -15 -20 3 -27 -31 2 -15 4 9 7 -6 rrcurveto
          20 47 12 8 45 hhcurveto
          51 2 41 -28 39 -39 rrcurveto
          hintmask 00101100
          10 2 7 4 2 6 -23 33 -27 14 -26 14 51 7 29 -15 39 -18 rrcurveto
          hintmask 01001100
          6 6 2 -2 10 vvcurveto
          47 -64 -63 -10 -43 hhcurveto
          -64 31 -67 24 -64 23 25 24 rcurveline
          31 6 35 15 hvcurveto
          430 292 61 322 2 203 2 -2 rcurveline
          endchar
        </CharString>
        <CharString name=".null">
          -1033 endchar
        </CharString>
        <CharString name="A">
          595 0 41 -28 -21 534 78 895 -20 hstemhm
          31 1556 hintmask 10111000
          924 -8 rmoveto
          4 110 117 4 109 hhcurveto
          108 107 -4 -4 108 hvcurveto
          hintmask 01111000
          4 10 0 6 6 vvcurveto
          hintmask 10111000
          9 -2 10 -2 8 vhcurveto
          -76 8 -108 14 -29 70 -547 1366 rcurveline
          -12 -2 -12 -6 -8 -6 -11 -90 -20 -56 -80 -53 22 -59 rcurveline
          -430 -1084 -24 -65 -109 -25 -104 -12 rlinecurve
          -2 -6 -2 -10 -9 vvcurveto
          hintmask 01111000
          -6 2 -12 2 -6 vhcurveto
          4 112 97 4 69 hhcurveto
          hintmask 10111000
          70 70 -4 -4 112 hvcurveto
          2 8 2 8 6 vvcurveto
          hintmask 01111000
          9 -2 10 -2 8 vhcurveto
          hintmask 10111000
          -80 10 -114 6 64 vvcurveto
          12 vlineto
          153 389 rlineto
          2 111 82 2 82 hhcurveto
          55 57 0 -2 66 hvcurveto
          145 -372 rlineto
          2 -9 2 -20 -6 vvcurveto
          -49 -129 -19 -73 -8 vhcurveto
          -2 -6 -2 -10 -9 vvcurveto
          -6 2 -12 2 -6 vhcurveto
          hintmask 01111000
          -125 612 rmoveto
          hintmask 10111000
          -72 -74 0 4 -94 hvcurveto
          191 490 rlineto
          4 hlineto
          190 -492 rlineto
          -2 -53 -45 0 -47 hhcurveto
          endchar
        </CharString>
        <CharString name="AE">
          1265 0 80 352 80 174 80 588 80 hstem
          1159 176 383 68 203 69 vstem
          1272 hmoveto
          837 hlineto
          19 150 67 108 62 115 -6 12 -13 8 -16 6 -90 -168 -174 -143 -408 -27 rrcurveto
          -278 hlineto
          -6 263 -4 186 184 vvcurveto
          8 243 vlineto
          178 54 -153 -156 86 hvcurveto
          16 6 16 9 7 12 rrcurveto
          -56 94 -45 109 110 vvcurveto
          82 45 135 56 97 vhcurveto
          -7 12 -16 8 -16 6 rrcurveto
          -168 -88 -52 -141 -178 hhcurveto
          -243 hlineto
          188 4 189 8 260 vhcurveto
          235 hlineto
          408 -27 174 -143 90 -168 17 6 12 8 6 13 -62 106 -67 125 -19 149 -278 -8 -238 2 -278 -2 rrcurveto
          -115 hlineto
          -119 -118 4 4 -113 hvcurveto
          -2 -8 -2 -6 -8 vvcurveto
          -8 2 -8 2 -9 vhcurveto
          49 -6 68 -6 49 -18 -737 -1250 rcurveline
          -37 -61 -92 -29 -105 -12 rrcurveto
          -2 -6 -2 -10 -9 vvcurveto
          -6 2 -12 2 -6 vhcurveto
          4 113 96 4 70 hhcurveto
          69 70 -4 -4 113 hvcurveto
          2 8 2 8 6 vvcurveto
          9 -2 10 -2 8 vhcurveto
          -80 10 -123 -2 64 vvcurveto
          4 6 18 4 10 vhcurveto
          326 557 rlineto
          383 hlineto
          -2 -190 -5 -188 -6 -187 -2 -74 -143 -14 -86 -8 rrcurveto
          -2 -10 -2 -8 -9 vvcurveto
          -6 2 -8 2 -6 vhcurveto
          4 129 201 2 135 hhcurveto
          -232 1335 rmoveto
          9 -188 2 -195 -184 vvcurveto
          -4 -346 vlineto
          331 571 rlineto
          endchar
        </CharString>
        <CharString name="Aacute">
          595 1749 385 hstem
          369 419 vstem
          924 -8 rmoveto
          4 110 117 4 109 hhcurveto
          108 107 -4 -4 108 hvcurveto
          4 10 0 6 6 vvcurveto
          9 -2 10 -2 8 vhcurveto
          -76 8 -108 14 -29 70 -547 1366 rcurveline
          -12 -2 -12 -6 -8 -6 -11 -90 -20 -56 -80 -53 22 -59 rcurveline
          -430 -1084 -24 -65 -109 -25 -104 -12 rlinecurve
          -2 -6 -2 -10 -9 vvcurveto
          -6 2 -12 2 -6 vhcurveto
          4 112 97 4 69 hhcurveto
          70 70 -4 -4 112 hvcurveto
          2 8 2 8 6 vvcurveto
          9 -2 10 -2 8 vhcurveto
          -80 10 -114 6 64 vvcurveto
          12 vlineto
          153 389 rlineto
          2 111 82 2 82 hhcurveto
          55 57 0 -2 66 hvcurveto
          145 -372 rlineto
          2 -9 2 -20 -6 vvcurveto
          -49 -129 -19 -73 -8 vhcurveto
          -2 -6 -2 -10 -9 vvcurveto
          -6 2 -12 2 -6 vhcurveto
          -125 612 rmoveto
          -72 -74 0 4 -94 hvcurveto
          191 490 rlineto
          4 hlineto
          190 -492 rlineto
          -2 -53 -45 0 -47 hhcurveto
          -103 1102 rmoveto
          29 -37 283 177 41 26 16 10 14 13 rlinecurve
          21 18 16 21 34 vvcurveto
          52 -35 34 -51 -35 -30 -16 -31 -27 vhcurveto
          endchar
        </CharString>
        <CharString name="Acircumflex">
          595 1749 353 hstem
          717 624 vstem
          924 -8 rmoveto
          4 110 117 4 109 hhcurveto
          108 107 -4 -4 108 hvcurveto
          4 10 0 6 6 vvcurveto
          9 -2 10 -2 8 vhcurveto
          -76 8 -108 14 -29 70 -547 1366 rcurveline
          -12 -2 -12 -6 -8 -6 -11 -90 -20 -56 -80 -53 22 -59 rcurveline
          -430 -1084 -24 -65 -109 -25 -104 -12 rlinecurve
          -2 -6 -2 -10 -9 vvcurveto
          -6 2 -12 2 -6 vhcurveto
          4 112 97 4 69 hhcurveto
          70 70 -4 -4 112 hvcurveto
          2 8 2 8 6 vvcurveto
          9 -2 10 -2 8 vhcurveto
          -80 10 -114 6 64 vvcurveto
          12 vlineto
          153 389 rlineto
          2 111 82 2 82 hhcurveto
          55 57 0 -2 66 hvcurveto
          145 -372 rlineto
          2 -9 2 -20 -6 vvcurveto
          -49 -129 -19 -73 -8 vhcurveto
          -2 -6 -2 -10 -9 vvcurveto
          -6 2 -12 2 -6 vhcurveto
          -125 612 rmoveto
          -72 -74 0 4 -94 hvcurveto
          191 490 rlineto
          4 hlineto
          190 -492 rlineto
          -2 -53 -45 0 -47 hhcurveto
          6 1227 rmoveto
          242 -178 rlineto
          73 hlineto
          -256 332 rlineto
          -118 hlineto
          -256 -332 rlineto
          73 hlineto
          endchar
        </CharString>
        <CharString name="Adieresis">
          595 1749 223 hstem
          725 221 137 223 vstem
          924 -8 rmoveto
          4 110 117 4 109 hhcurveto
          108 107 -4 -4 108 hvcurveto
          4 10 0 6 6 vvcurveto
          9 -2 10 -2 8 vhcurveto
          -76 8 -108 14 -29 70 -547 1366 rcurveline
          -12 -2 -12 -6 -8 -6 -11 -90 -20 -56 -80 -53 22 -59 rcurveline
          -430 -1084 -24 -65 -109 -25 -104 -12 rlinecurve
          -2 -6 -2 -10 -9 vvcurveto
          -6 2 -12 2 -6 vhcurveto
          4 112 97 4 69 hhcurveto
          70 70 -4 -4 112 hvcurveto
          2 8 2 8 6 vvcurveto
          9 -2 10 -2 8 vhcurveto
          -80 10 -114 6 64 vvcurveto
          12 vlineto
          153 389 rlineto
          2 111 82 2 82 hhcurveto
          55 57 0 -2 66 hvcurveto
          145 -372 rlineto
          2 -9 2 -20 -6 vvcurveto
          -49 -129 -19 -73 -8 vhcurveto
          -2 -6 -2 -10 -9 vvcurveto
          -6 2 -12 2 -6 vhcurveto
          -125 612 rmoveto
          -72 -74 0 4 -94 hvcurveto
          191 490 rlineto
          4 hlineto
          190 -492 rlineto
          -2 -53 -45 0 -47 hhcurveto
          -281 1221 rmoveto
          -68 53 -53 68 65 54 53 68 66 -54 53 -65 -68 -53 -53 -66 vhcurveto
          373 hmoveto
          -68 53 -53 66 67 53 53 68 66 -53 53 -67 -66 -53 -53 -66 vhcurveto
          endchar
        </CharString>
        <CharString name="Agrave">
          595 1749 385 hstem
          359 419 vstem
          924 -8 rmoveto
          4 110 117 4 109 hhcurveto
          108 107 -4 -4 108 hvcurveto
          4 10 0 6 6 vvcurveto
          9 -2 10 -2 8 vhcurveto
          -76 8 -108 14 -29 70 -547 1366 rcurveline
          -12 -2 -12 -6 -8 -6 -11 -90 -20 -56 -80 -53 22 -59 rcurveline
          -430 -1084 -24 -65 -109 -25 -104 -12 rlinecurve
          -2 -6 -2 -10 -9 vvcurveto
          -6 2 -12 2 -6 vhcurveto
          4 112 97 4 69 hhcurveto
          70 70 -4 -4 112 hvcurveto
          2 8 2 8 6 vvcurveto
          9 -2 10 -2 8 vhcurveto
          -80 10 -114 6 64 vvcurveto
          12 vlineto
          153 389 rlineto
          2 111 82 2 82 hhcurveto
          55 57 0 -2 66 hvcurveto
          145 -372 rlineto
          2 -9 2 -20 -6 vvcurveto
          -49 -129 -19 -73 -8 vhcurveto
          -2 -6 -2 -10 -9 vvcurveto
          -6 2 -12 2 -6 vhcurveto
          -125 612 rmoveto
          -72 -74 0 4 -94 hvcurveto
          191 490 rlineto
          4 hlineto
          190 -492 rlineto
          -2 -53 -45 0 -47 hhcurveto
          -129 1403 rmoveto
          31 -27 -30 16 -35 hhcurveto
          -51 -35 -34 -52 -34 16 -21 21 -18 hvcurveto
          14 -13 16 -10 41 -26 283 -177 rcurveline
          29 37 rlineto
          endchar
        </CharString>
        <CharString name="Aring">
          618 1749 72 264 72 hstem
          715 72 264 71 vstem
          924 -8 rmoveto
          4 110 117 4 109 hhcurveto
          108 107 -4 -4 108 hvcurveto
          4 10 0 6 6 vvcurveto
          9 -2 10 -2 8 vhcurveto
          -76 8 -108 14 -29 70 -547 1366 rcurveline
          -12 -2 -12 -6 -8 -6 -11 -90 -20 -56 -80 -53 22 -59 rcurveline
          -430 -1084 -24 -65 -109 -25 -104 -12 rlinecurve
          -2 -6 -2 -10 -9 vvcurveto
          -6 2 -12 2 -6 vhcurveto
          4 112 97 4 69 hhcurveto
          70 70 -4 -4 112 hvcurveto
          2 8 2 8 6 vvcurveto
          9 -2 10 -2 8 vhcurveto
          -80 10 -114 6 64 vvcurveto
          12 vlineto
          153 389 rlineto
          2 111 82 2 82 hhcurveto
          55 57 0 -2 66 hvcurveto
          145 -372 rlineto
          2 -9 2 -20 -6 vvcurveto
          -49 -129 -19 -73 -8 vhcurveto
          -2 -6 -2 -10 -9 vvcurveto
          -6 2 -12 2 -6 vhcurveto
          -125 612 rmoveto
          -72 -74 0 4 -94 hvcurveto
          191 490 rlineto
          4 hlineto
          190 -492 rlineto
          -2 -53 -45 0 -47 hhcurveto
          -178 1244 rmoveto
          -119 86 -86 116 119 86 86 119 133 -110 69 -95 -92 -110 -69 -133 vhcurveto
          82 -2 rmoveto
          67 55 55 65 72 51 -63 -59 -64 -57 -57 -66 -57 -63 53 68 vhcurveto
          endchar
        </CharString>
        <CharString name="Atilde">
          595 1749 140 -78 141 hstemhm
          719 725 hintmask 01100000
          924 -8 rmoveto
          4 110 117 4 109 hhcurveto
          108 107 -4 -4 108 hvcurveto
          4 10 0 6 6 vvcurveto
          9 -2 10 -2 8 vhcurveto
          -76 8 -108 14 -29 70 rrcurveto
          hintmask 10100000
          -547 1366 -12 -2 -12 -6 -8 -6 rlinecurve
          -11 -90 -20 -56 -80 -53 22 -59 rcurveline
          -430 -1084 -24 -65 -109 -25 -104 -12 rlinecurve
          -2 -6 -2 -10 -9 vvcurveto
          -6 2 -12 2 -6 vhcurveto
          4 112 97 4 69 hhcurveto
          70 70 -4 -4 112 hvcurveto
          2 8 2 8 6 vvcurveto
          9 -2 10 -2 8 vhcurveto
          -80 10 -114 6 64 vvcurveto
          12 vlineto
          153 389 rlineto
          2 111 82 2 82 hhcurveto
          55 57 0 -2 66 hvcurveto
          145 -372 rlineto
          2 -9 2 -20 -6 vvcurveto
          -49 -129 -19 -73 -8 vhcurveto
          -2 -6 -2 -10 -9 vvcurveto
          -6 2 -12 2 -6 vhcurveto
          -125 612 rmoveto
          -72 -74 0 4 -94 hvcurveto
          191 490 rlineto
          4 hlineto
          190 -492 rlineto
          -2 -53 -45 0 -47 hhcurveto
          299 1323 rmoveto
          -53 -17 -47 -20 -39 -67 -131 61 -90 hhcurveto
          -68 -84 -43 -158 -63 hvcurveto
          55 hlineto
          48 37 34 14 41 hhcurveto
          33 39 -12 -15 37 hvcurveto
          -14 55 60 -21 53 hhcurveto
          129 63 111 102 31 hvcurveto
          endchar
        </CharString>
        <CharString name="B">
          448 -12 43 -31 -20 hstemhm
          313 277 377 299 hintmask 10110000
          307 137 rmoveto
          -74 -145 -14 -86 -8 vhcurveto
          -2 -10 -2 -8 -9 vvcurveto
          -6 2 -8 2 -6 vhcurveto
          hintmask 01110000
          4 129 201 2 135 hhcurveto
          303 534 27 424 233 -182 137 -203 37 hvcurveto
          8 vlineto
          107 45 112 82 148 vvcurveto
          299 -321 30 -219 vhcurveto
          -33 -66 -8 -145 hhcurveto
          -119 -119 2 4 -112 hvcurveto
          -2 -8 -2 -6 -8 vvcurveto
          -8 2 -8 2 -9 vhcurveto
          86 -8 143 -12 2 -74 rrcurveto
          8 -188 2 -187 -184 vvcurveto
          -211 -4 -211 -8 -209 vhcurveto
          223 557 rmoveto
          74 vlineto
          4 39 37 2 39 hhcurveto
          268 201 -90 -238 -346 -299 -32 -274 hvcurveto
          2 1331 rmoveto
          4 37 34 2 15 hhcurveto
          174 135 -72 -192 -195 -119 -117 -289 hvcurveto
          endchar
        </CharString>
        <CharString name="C">
          519 10 111 1395 45 hstem
          123 309 vstem
          133 729 rmoveto
          -594 463 -176 295 180 252 82 192 131 vhcurveto
          17 -16 14 -21 vhcurveto
          -125 -102 -156 -57 -182 hhcurveto
          -406 -174 307 340 307 119 396 375 344 129 -261 -208 94 hvcurveto
          15 2 18 8 4 12 rrcurveto
          -41 100 -12 119 88 vvcurveto
          58 4 45 8 24 vhcurveto
          21 -174 -135 63 -254 hhcurveto
          -295 -463 -180 -594 hvcurveto
          endchar
        </CharString>
        <CharString name="Ccedilla">
          519 -389 51 209 47 92 111 1395 45 hstemhm
          123 309 199 113 213 84 hintmask 00111000
          133 729 rmoveto
          -594 463 -176 295 180 252 82 192 131 vhcurveto
          17 -16 14 -21 vhcurveto
          -125 -102 -156 -57 -182 hhcurveto
          -406 -174 307 340 307 119 396 375 344 129 -261 -208 94 hvcurveto
          15 2 18 8 4 12 rrcurveto
          -41 100 -12 119 88 vvcurveto
          58 4 45 8 24 vhcurveto
          21 -174 -135 63 -254 hhcurveto
          -295 -463 -180 -594 hvcurveto
          hintmask 11000110
          722 -729 rmoveto
          -58 -188 rlineto
          10 37 27 4 32 hhcurveto
          60 37 -27 -55 -53 -41 -41 -68 -39 -53 6 41 -39 hvcurveto
          -27 -31 rlineto
          -63 41 72 -31 80 hhcurveto
          149 78 86 90 94 -67 49 -101 -30 -21 -2 -2 -14 hvcurveto
          37 113 rlineto
          endchar
        </CharString>
        <CharString name="D">
          687 1579 -20 22 -20 hstem
          293 276 -276 287 798 320 vstem
          307 137 rmoveto
          -74 -145 -14 -86 -8 vhcurveto
          -2 -10 -2 -8 -9 vvcurveto
          -6 2 -8 2 -6 vhcurveto
          4 129 201 2 135 hhcurveto
          104 hlineto
          412 493 150 589 37 hvcurveto
          615 -438 116 -406 -131 -51 -4 -4 -125 vhcurveto
          -8 hlineto
          -119 -119 4 4 -112 hvcurveto
          -2 -8 -2 -6 -8 vvcurveto
          -8 2 -8 2 -9 vhcurveto
          86 -8 143 -14 2 -74 rrcurveto
          8 -188 2 -187 -184 vvcurveto
          -211 -4 -211 -8 -209 vhcurveto
          236 1190 rmoveto
          59 vlineto
          9 59 70 4 59 hhcurveto
          465 127 -373 -287 -389 -219 -278 -440 -39 -41 0 2 -43 hvcurveto
          -6 250 -5 186 184 vvcurveto
          213 5 211 8 209 vhcurveto
          endchar
        </CharString>
        <CharString name="E">
          575 0 41 -41 61 -46 -21 708 62 637 61 8 -20 hstemhm
          319 211 hintmask 01011010
          541 hmoveto
          878 hlineto
          19 150 67 108 62 115 -6 12 -13 8 -16 6 -90 -168 -174 -143 -408 -27 rrcurveto
          -319 hlineto
          -6 263 -5 186 184 vvcurveto
          8 285 vlineto
          178 54 -153 -156 86 hvcurveto
          16 6 16 9 6 12 rrcurveto
          -55 94 -45 109 110 vvcurveto
          82 45 135 55 97 vhcurveto
          -6 12 -16 8 -16 6 rrcurveto
          -168 -89 -51 -141 -178 hhcurveto
          -285 hlineto
          188 5 189 8 260 vhcurveto
          276 hlineto
          408 -27 174 -143 90 -168 16 6 13 8 6 13 rrcurveto
          hintmask 01010110
          -62 106 -67 125 -19 149 rrcurveto
          hintmask 01011010
          -278 -8 -279 2 -278 -2 rrcurveto
          -115 hlineto
          -119 -119 4 4 -112 hvcurveto
          -2 -8 -2 -6 -8 vvcurveto
          hintmask 10010110
          -8 2 -8 2 -9 vhcurveto
          86 -8 143 -14 2 -74 rrcurveto
          8 -188 2 -187 -184 vvcurveto
          -211 -4 -211 -8 -209 vhcurveto
          -2 -74 -143 -14 -86 -8 rrcurveto
          -2 -10 -2 -8 -9 vvcurveto
          -6 2 -8 2 -6 vhcurveto
          hintmask 00111010
          4 129 201 2 135 hhcurveto
          endchar
        </CharString>
        <CharString name="Eacute">
          575 1749 385 hstem
          369 419 vstem
          541 hmoveto
          878 hlineto
          19 150 67 108 62 115 -6 12 -13 8 -16 6 -90 -168 -174 -143 -408 -27 rrcurveto
          -319 hlineto
          -6 263 -5 186 184 vvcurveto
          8 285 vlineto
          178 54 -153 -156 86 hvcurveto
          16 6 16 9 6 12 rrcurveto
          -55 94 -45 109 110 vvcurveto
          82 45 135 55 97 vhcurveto
          -6 12 -16 8 -16 6 rrcurveto
          -168 -89 -51 -141 -178 hhcurveto
          -285 hlineto
          188 5 189 8 260 vhcurveto
          276 hlineto
          408 -27 174 -143 90 -168 16 6 13 8 6 13 -62 106 -67 125 -19 149 -278 -8 -279 2 -278 -2 rrcurveto
          -115 hlineto
          -119 -119 4 4 -112 hvcurveto
          -2 -8 -2 -6 -8 vvcurveto
          -8 2 -8 2 -9 vhcurveto
          86 -8 143 -14 2 -74 rrcurveto
          8 -188 2 -187 -184 vvcurveto
          -211 -4 -211 -8 -209 vhcurveto
          -2 -74 -143 -14 -86 -8 rrcurveto
          -2 -10 -2 -8 -9 vvcurveto
          -6 2 -8 2 -6 vhcurveto
          4 129 201 2 135 hhcurveto
          155 1706 rmoveto
          29 -37 283 177 41 26 16 10 14 13 rlinecurve
          21 18 16 21 34 vvcurveto
          52 -35 34 -51 -35 -30 -16 -31 -27 vhcurveto
          endchar
        </CharString>
        <CharString name="Ecircumflex">
          575 1749 353 hstem
          776 624 vstem
          541 hmoveto
          878 hlineto
          19 150 67 108 62 115 -6 12 -13 8 -16 6 -90 -168 -174 -143 -408 -27 rrcurveto
          -319 hlineto
          -6 263 -5 186 184 vvcurveto
          8 285 vlineto
          178 54 -153 -156 86 hvcurveto
          16 6 16 9 6 12 rrcurveto
          -55 94 -45 109 110 vvcurveto
          82 45 135 55 97 vhcurveto
          -6 12 -16 8 -16 6 rrcurveto
          -168 -89 -51 -141 -178 hhcurveto
          -285 hlineto
          188 5 189 8 260 vhcurveto
          276 hlineto
          408 -27 174 -143 90 -168 16 6 13 8 6 13 -62 106 -67 125 -19 149 -278 -8 -279 2 -278 -2 rrcurveto
          -115 hlineto
          -119 -119 4 4 -112 hvcurveto
          -2 -8 -2 -6 -8 vvcurveto
          -8 2 -8 2 -9 vhcurveto
          86 -8 143 -14 2 -74 rrcurveto
          8 -188 2 -187 -184 vvcurveto
          -211 -4 -211 -8 -209 vhcurveto
          -2 -74 -143 -14 -86 -8 rrcurveto
          -2 -10 -2 -8 -9 vvcurveto
          -6 2 -8 2 -6 vhcurveto
          4 129 201 2 135 hhcurveto
          323 1831 rmoveto
          242 -178 rlineto
          73 hlineto
          -256 332 rlineto
          -118 hlineto
          -256 -332 rlineto
          73 hlineto
          endchar
        </CharString>
        <CharString name="Edieresis">
          575 1749 223 hstem
          746 221 137 223 vstem
          541 hmoveto
          878 hlineto
          19 150 67 108 62 115 -6 12 -13 8 -16 6 -90 -168 -174 -143 -408 -27 rrcurveto
          -319 hlineto
          -6 263 -5 186 184 vvcurveto
          8 285 vlineto
          178 54 -153 -156 86 hvcurveto
          16 6 16 9 6 12 rrcurveto
          -55 94 -45 109 110 vvcurveto
          82 45 135 55 97 vhcurveto
          -6 12 -16 8 -16 6 rrcurveto
          -168 -89 -51 -141 -178 hhcurveto
          -285 hlineto
          188 5 189 8 260 vhcurveto
          276 hlineto
          408 -27 174 -143 90 -168 16 6 13 8 6 13 -62 106 -67 125 -19 149 -278 -8 -279 2 -278 -2 rrcurveto
          -115 hlineto
          -119 -119 4 4 -112 hvcurveto
          -2 -8 -2 -6 -8 vvcurveto
          -8 2 -8 2 -9 vhcurveto
          86 -8 143 -14 2 -74 rrcurveto
          8 -188 2 -187 -184 vvcurveto
          -211 -4 -211 -8 -209 vhcurveto
          -2 -74 -143 -14 -86 -8 rrcurveto
          -2 -10 -2 -8 -9 vvcurveto
          -6 2 -8 2 -6 vhcurveto
          4 129 201 2 135 hhcurveto
          -2 1825 rmoveto
          -68 53 -53 68 65 54 53 68 66 -54 53 -65 -68 -53 -53 -66 vhcurveto
          373 hmoveto
          -68 53 -53 66 67 53 53 68 66 -53 53 -67 -66 -53 -53 -66 vhcurveto
          endchar
        </CharString>
        <CharString name="Egrave">
          575 1749 385 hstem
          318 419 vstem
          541 hmoveto
          878 hlineto
          19 150 67 108 62 115 -6 12 -13 8 -16 6 -90 -168 -174 -143 -408 -27 rrcurveto
          -319 hlineto
          -6 263 -5 186 184 vvcurveto
          8 285 vlineto
          178 54 -153 -156 86 hvcurveto
          16 6 16 9 6 12 rrcurveto
          -55 94 -45 109 110 vvcurveto
          82 45 135 55 97 vhcurveto
          -6 12 -16 8 -16 6 rrcurveto
          -168 -89 -51 -141 -178 hhcurveto
          -285 hlineto
          188 5 189 8 260 vhcurveto
          276 hlineto
          408 -27 174 -143 90 -168 16 6 13 8 6 13 -62 106 -67 125 -19 149 -278 -8 -279 2 -278 -2 rrcurveto
          -115 hlineto
          -119 -119 4 4 -112 hvcurveto
          -2 -8 -2 -6 -8 vvcurveto
          -8 2 -8 2 -9 vhcurveto
          86 -8 143 -14 2 -74 rrcurveto
          8 -188 2 -187 -184 vvcurveto
          -211 -4 -211 -8 -209 vhcurveto
          -2 -74 -143 -14 -86 -8 rrcurveto
          -2 -10 -2 -8 -9 vvcurveto
          -6 2 -8 2 -6 vhcurveto
          4 129 201 2 135 hhcurveto
          88 2007 rmoveto
          31 -27 -30 16 -35 hhcurveto
          -51 -35 -34 -52 -34 16 -21 21 -18 hvcurveto
          14 -13 16 -10 41 -26 283 -177 rcurveline
          29 37 rlineto
          endchar
        </CharString>
        <CharString name="Eth">
          687 0 90 694 90 656 90 -41 -20 22 -20 hstem
          293 276 -276 287 -252 200 850 320 -180 231 vstem
          76 41 rmoveto
          -2 -10 -2 -8 -9 vvcurveto
          -6 2 -8 2 -6 vhcurveto
          4 129 201 2 135 hhcurveto
          104 hlineto
          412 493 150 589 37 hvcurveto
          615 -438 116 -406 -131 -51 -4 -4 -125 vhcurveto
          -8 hlineto
          -119 -119 4 4 -112 hvcurveto
          -2 -8 -2 -6 -8 vvcurveto
          -8 2 -8 2 -9 vhcurveto
          86 -8 143 -14 2 -74 rrcurveto
          8 -188 2 -187 -184 vvcurveto
          -2 vlineto
          -79 2 -80 2 -78 4 rrcurveto
          -96 vlineto
          2 78 80 2 79 hhcurveto
          -2 -182 -4 -183 -6 -180 -2 -74 -143 -14 -86 -8 rrcurveto
          465 96 rmoveto
          -6 182 -5 183 182 vvcurveto
          113 113 -4 -2 112 hvcurveto
          96 vlineto
          -6 -112 -113 -2 -113 hhcurveto
          188 5 187 8 245 vhcurveto
          9 59 70 4 59 hhcurveto
          465 127 -373 -287 -389 -219 -278 -440 -39 -41 0 2 -43 hvcurveto
          endchar
        </CharString>
        <CharString name="Euro">
          -16 79 539 80 123 80 485 80 hstem
          74 202 619 51 vstem
          -61 770 rmoveto
          139 -49 hlineto
          -25 0 -22 2 -23 vhcurveto
          -41 -39 2 2 -37 hvcurveto
          -24 -82 rlineto
          145 hlineto
          -475 47 272 -139 205 hhcurveto
          121 186 82 192 89 hvcurveto
          17 -29 8 -14 vhcurveto
          -123 -70 -100 -53 -121 hhcurveto
          -240 -108 211 282 -31 hvcurveto
          57 hlineto
          131 80 0 -4 131 hvcurveto
          25 84 rlineto
          -6 -131 -80 0 -131 hhcurveto
          -86 hlineto
          -2 23 0 24 25 vvcurveto
          51 94 vlineto
          131 113 0 -4 131 hvcurveto
          24 84 rlineto
          -6 -131 -112 0 -132 hhcurveto
          -114 hlineto
          280 24 111 306 221 hhcurveto
          189 40 -113 -240 68 hvcurveto
          10 25 2 9 16 hvcurveto
          -10 63 -4 61 54 vvcurveto
          82 8 63 8 37 vhcurveto
          23 -116 -62 30 -172 hhcurveto
          -199 -317 -155 -500 -45 hvcurveto
          -43 -41 2 2 -37 hvcurveto
          endchar
        </CharString>
        <CharString name="F">
          470 0 41 -26 -21 692 62 653 61 8 -20 hstemhm
          319 211 hintmask 10110100
          307 137 rmoveto
          -74 -145 -14 -86 -8 vhcurveto
          hintmask 01110100
          -2 -10 -2 -8 -9 vvcurveto
          -6 2 -8 2 -6 vhcurveto
          hintmask 10110100
          4 112 117 2 119 hhcurveto
          117 118 -2 -4 113 hvcurveto
          hintmask 01110100
          2 6 2 8 6 vvcurveto
          hintmask 10110100
          9 -2 8 -2 10 vhcurveto
          -86 8 -143 14 -2 74 rrcurveto
          -6 182 -5 185 182 vvcurveto
          285 hlineto
          154 55 -145 -164 68 hvcurveto
          16 6 16 8 6 12 rrcurveto
          -36 95 -23 108 111 vvcurveto
          108 23 111 36 94 vhcurveto
          -4 12 -20 7 -14 6 rrcurveto
          -168 -78 -45 -139 -154 hhcurveto
          -285 hlineto
          194 5 193 8 266 vhcurveto
          254 hlineto
          407 -27 174 -143 90 -168 17 6 12 8 6 13 -61 106 -68 125 -18 149 rrcurveto
          hintmask 10101100
          -279 -8 -256 2 -278 -2 rrcurveto
          hintmask 10110100
          -115 hlineto
          -119 -119 2 4 -112 hvcurveto
          -2 -8 -2 -6 -8 vvcurveto
          -8 2 -8 2 -9 vhcurveto
          86 -8 143 -12 2 -74 rrcurveto
          8 -188 2 -187 -184 vvcurveto
          -211 -4 -211 -8 -209 vhcurveto
          endchar
        </CharString>
        <CharString name="G">
          704 1430 -20 hstem
          123 309 764 287 vstem
          1477 1016 rmoveto
          14 2 18 8 4 12 rrcurveto
          -36 95 -13 94 76 vvcurveto
          55 6 45 9 27 vhcurveto
          20 -174 -148 53 -254 hhcurveto
          -295 -475 -160 -614 -614 483 -156 295 234 155 45 72 195 hvcurveto
          -29 78 -16 82 151 vvcurveto
          148 vlineto
          73 145 15 86 8 vhcurveto
          2 8 3 8 8 vvcurveto
          9 -3 6 -2 8 vhcurveto
          -4 -112 -119 -4 -117 hhcurveto
          -119 -116 4 4 -113 hvcurveto
          -2 -8 -2 -6 -9 vvcurveto
          -8 2 -8 2 -8 vhcurveto
          86 -8 146 -15 -73 vvcurveto
          -406 vlineto
          -82 -72 -127 -16 -107 hhcurveto
          -374 -140 391 307 307 131 396 375 344 135 -207 -209 95 hvcurveto
          endchar
        </CharString>
        <CharString name="H">
          732 0 41 -26 -21 690 82 657 39 8 -20 hstemhm
          319 211 695 223 hintmask 10110110
          1225 137 rmoveto
          -74 -146 -14 -86 -8 vhcurveto
          hintmask 01110110
          -4 -10 0 -8 -9 vvcurveto
          -6 2 -8 2 -6 vhcurveto
          hintmask 10110110
          4 113 117 2 118 hhcurveto
          117 119 -2 -4 113 hvcurveto
          hintmask 01110110
          2 6 2 8 6 vvcurveto
          hintmask 10110110
          9 -2 10 -2 8 vhcurveto
          -86 8 -144 14 -2 74 rrcurveto
          -8 199 -2 199 196 vvcurveto
          199 2 198 8 199 vhcurveto
          2 74 144 14 86 8 rrcurveto
          2 9 2 8 8 vvcurveto
          hintmask 10101110
          8 -2 6 -2 8 vhcurveto
          -4 -113 -119 -4 -117 hhcurveto
          hintmask 10110110
          -118 -117 4 4 -113 hvcurveto
          -2 -8 -2 -6 -8 vvcurveto
          hintmask 10101110
          -8 2 -8 2 -9 vhcurveto
          hintmask 10110110
          86 -8 144 -14 2 -74 6 -184 2 -187 2 -184 rrcurveto
          -4 -123 -123 -2 -123 hhcurveto
          -112 -113 0 4 -111 hvcurveto
          188 5 185 8 184 vhcurveto
          2 74 143 14 86 8 rrcurveto
          2 9 2 8 8 vvcurveto
          8 -2 6 -2 8 vhcurveto
          hintmask 10101110
          -4 -112 -119 -4 -117 hhcurveto
          -119 -117 4 4 -112 hvcurveto
          hintmask 10110110
          -2 -6 -2 -8 -8 vvcurveto
          -8 2 -8 2 -9 vhcurveto
          hintmask 10101110
          86 -8 143 -14 2 -74 rrcurveto
          hintmask 10110110
          8 -188 2 -187 -184 vvcurveto
          -211 -4 -211 -8 -209 vhcurveto
          -2 -74 -143 -14 -86 -8 rrcurveto
          -4 -10 0 -8 -9 vvcurveto
          -6 2 -8 2 -6 vhcurveto
          4 112 117 2 119 hhcurveto
          hintmask 01110110
          117 118 -2 -4 113 hvcurveto
          2 6 2 8 6 vvcurveto
          hintmask 10110110
          9 -2 8 -2 10 vhcurveto
          -86 8 -143 14 -2 74 rrcurveto
          hintmask 01110110
          -6 180 -5 183 180 vvcurveto
          hintmask 10110110
          2 111 113 2 112 hhcurveto
          123 123 -2 -4 123 hvcurveto
          -2 -178 -4 -183 -4 -180 rrcurveto
          endchar
        </CharString>
        <CharString name="I">
          -183 0 41 -26 -21 1429 39 8 -20 hstemhm
          319 211 hintmask 10101000
          307 137 rmoveto
          -74 -145 -14 -86 -8 vhcurveto
          hintmask 01101000
          -4 -10 0 -8 -9 vvcurveto
          -6 2 -8 2 -6 vhcurveto
          hintmask 10101000
          4 112 117 2 119 hhcurveto
          117 118 -2 -4 113 hvcurveto
          hintmask 01101000
          2 6 2 8 6 vvcurveto
          hintmask 10101000
          9 0 6 -4 12 vhcurveto
          -86 8 -143 14 -2 74 rrcurveto
          -6 187 -5 186 184 vvcurveto
          213 5 211 8 209 vhcurveto
          2 74 143 14 86 8 rrcurveto
          2 7 2 10 8 vvcurveto
          hintmask 10011000
          8 -2 6 -2 8 vhcurveto
          -4 -112 -119 -4 -117 hhcurveto
          hintmask 10101000
          -119 -117 4 4 -112 hvcurveto
          -2 -6 -2 -8 -8 vvcurveto
          hintmask 10011000
          -8 2 -8 2 -9 vhcurveto
          hintmask 10101000
          86 -8 143 -14 2 -74 rrcurveto
          8 -188 2 -187 -184 vvcurveto
          -211 -4 -211 -8 -209 vhcurveto
          endchar
        </CharString>
        <CharString name="Iacute">
          -183 1749 385 hstem
          -51 419 vstem
          307 137 rmoveto
          -74 -145 -14 -86 -8 vhcurveto
          -4 -10 0 -8 -9 vvcurveto
          -6 2 -8 2 -6 vhcurveto
          4 112 117 2 119 hhcurveto
          117 118 -2 -4 113 hvcurveto
          2 6 2 8 6 vvcurveto
          9 0 6 -4 12 vhcurveto
          -86 8 -143 14 -2 74 rrcurveto
          -6 187 -5 186 184 vvcurveto
          213 5 211 8 209 vhcurveto
          2 74 143 14 86 8 rrcurveto
          2 7 2 10 8 vvcurveto
          8 -2 6 -2 8 vhcurveto
          -4 -112 -119 -4 -117 hhcurveto
          -119 -117 4 4 -112 hvcurveto
          -2 -6 -2 -8 -8 vvcurveto
          -8 2 -8 2 -9 vhcurveto
          86 -8 143 -14 2 -74 rrcurveto
          8 -188 2 -187 -184 vvcurveto
          -211 -4 -211 -8 -209 vhcurveto
          -31 1569 rmoveto
          29 -37 283 177 41 26 16 10 14 13 rlinecurve
          21 18 16 21 34 vvcurveto
          52 -35 34 -51 -35 -30 -16 -31 -27 vhcurveto
          endchar
        </CharString>
        <CharString name="Icircumflex">
          -183 1749 353 hstem
          342 624 vstem
          307 137 rmoveto
          -74 -145 -14 -86 -8 vhcurveto
          -4 -10 0 -8 -9 vvcurveto
          -6 2 -8 2 -6 vhcurveto
          4 112 117 2 119 hhcurveto
          117 118 -2 -4 113 hvcurveto
          2 6 2 8 6 vvcurveto
          9 0 6 -4 12 vhcurveto
          -86 8 -143 14 -2 74 rrcurveto
          -6 187 -5 186 184 vvcurveto
          213 5 211 8 209 vhcurveto
          2 74 143 14 86 8 rrcurveto
          2 7 2 10 8 vvcurveto
          8 -2 6 -2 8 vhcurveto
          -4 -112 -119 -4 -117 hhcurveto
          -119 -117 4 4 -112 hvcurveto
          -2 -6 -2 -8 -8 vvcurveto
          -8 2 -8 2 -9 vhcurveto
          86 -8 143 -14 2 -74 rrcurveto
          8 -188 2 -187 -184 vvcurveto
          -211 -4 -211 -8 -209 vhcurveto
          123 1694 rmoveto
          242 -178 rlineto
          73 hlineto
          -256 332 rlineto
          -118 hlineto
          -256 -332 rlineto
          73 hlineto
          endchar
        </CharString>
        <CharString name="Idieresis">
          -183 1749 223 hstem
          326 221 137 223 vstem
          307 137 rmoveto
          -74 -145 -14 -86 -8 vhcurveto
          -4 -10 0 -8 -9 vvcurveto
          -6 2 -8 2 -6 vhcurveto
          4 112 117 2 119 hhcurveto
          117 118 -2 -4 113 hvcurveto
          2 6 2 8 6 vvcurveto
          9 0 6 -4 12 vhcurveto
          -86 8 -143 14 -2 74 rrcurveto
          -6 187 -5 186 184 vvcurveto
          213 5 211 8 209 vhcurveto
          2 74 143 14 86 8 rrcurveto
          2 7 2 10 8 vvcurveto
          8 -2 6 -2 8 vhcurveto
          -4 -112 -119 -4 -117 hhcurveto
          -119 -117 4 4 -112 hvcurveto
          -2 -6 -2 -8 -8 vvcurveto
          -8 2 -8 2 -9 vhcurveto
          86 -8 143 -14 2 -74 rrcurveto
          8 -188 2 -187 -184 vvcurveto
          -211 -4 -211 -8 -209 vhcurveto
          -188 1688 rmoveto
          -68 53 -53 68 65 54 53 68 66 -54 53 -65 -68 -53 -53 -66 vhcurveto
          373 hmoveto
          -68 53 -53 66 67 53 53 68 66 -53 53 -67 -66 -53 -53 -66 vhcurveto
          endchar
        </CharString>
        <CharString name="Igrave">
          -183 1749 385 hstem
          21 419 vstem
          307 137 rmoveto
          -74 -145 -14 -86 -8 vhcurveto
          -4 -10 0 -8 -9 vvcurveto
          -6 2 -8 2 -6 vhcurveto
          4 112 117 2 119 hhcurveto
          117 118 -2 -4 113 hvcurveto
          2 6 2 8 6 vvcurveto
          9 0 6 -4 12 vhcurveto
          -86 8 -143 14 -2 74 rrcurveto
          -6 187 -5 186 184 vvcurveto
          213 5 211 8 209 vhcurveto
          2 74 143 14 86 8 rrcurveto
          2 7 2 10 8 vvcurveto
          8 -2 6 -2 8 vhcurveto
          -4 -112 -119 -4 -117 hhcurveto
          -119 -117 4 4 -112 hvcurveto
          -2 -6 -2 -8 -8 vvcurveto
          -8 2 -8 2 -9 vhcurveto
          86 -8 143 -14 2 -74 rrcurveto
          8 -188 2 -187 -184 vvcurveto
          -211 -4 -211 -8 -209 vhcurveto
          25 1870 rmoveto
          31 -27 -30 16 -35 hhcurveto
          -51 -35 -34 -52 -34 16 -21 21 -18 hvcurveto
          14 -13 16 -10 41 -26 283 -177 rcurveline
          29 37 rlineto
          endchar
        </CharString>
        <CharString name="J">
          -128 -532 43 1994 -20 hstem
          -174 354 176 299 -299 312 -299 286 vstem
          618 1327 rmoveto
          74 146 14 86 8 vhcurveto
          2 7 2 10 8 vvcurveto
          8 -2 6 -2 8 vhcurveto
          -4 -113 -119 -4 -116 hhcurveto
          -119 -123 4 4 -113 hvcurveto
          -2 -6 -2 -8 -8 vvcurveto
          -8 2 -8 2 -9 vhcurveto
          86 -8 144 -14 2 -74 rrcurveto
          8 -227 2 -199 -846 vvcurveto
          -358 -29 -166 -188 -72 -39 37 49 vhcurveto
          16 109 23 98 vvcurveto
          90 -72 37 -71 -93 -67 -61 -113 -119 100 -120 205 406 26 436 669 8 vhcurveto
          4 363 0 184 2 207 rrcurveto
          endchar
        </CharString>
        <CharString name="K">
          603 -20 43 hstem
          285 276 -264 264 vstem
          307 137 rmoveto
          -74 -145 -14 -86 -8 vhcurveto
          -4 -10 0 -8 -9 vvcurveto
          -6 2 -8 2 -6 vhcurveto
          4 112 117 2 119 hhcurveto
          117 118 -2 -4 113 hvcurveto
          2 6 2 8 6 vvcurveto
          9 0 6 -4 12 vhcurveto
          -86 8 -143 14 -2 74 rrcurveto
          -6 187 -5 186 184 vvcurveto
          39 2 488 -506 rlineto
          22 -28 31 -25 -28 vvcurveto
          -46 -27 -18 -133 -4 vhcurveto
          -2 -6 -2 -10 -9 vvcurveto
          -6 2 -12 2 -6 vhcurveto
          4 111 160 4 108 hhcurveto
          109 102 -2 -6 109 hvcurveto
          4 10 0 6 6 vvcurveto
          9 -2 10 -2 8 vhcurveto
          -86 4 -90 51 -105 94 -635 646 rcurveline
          516 491 94 78 97 10 86 8 rlinecurve
          2 9 2 8 8 vvcurveto
          8 -2 6 -2 8 vhcurveto
          -4 -113 -45 -4 -117 hhcurveto
          -118 -66 4 4 -113 hvcurveto
          -2 -8 -2 -6 -8 vvcurveto
          -8 2 -8 2 -9 vhcurveto
          121 -8 64 -6 -53 vvcurveto
          -8 -6 -11 -7 -10 vhcurveto
          -567 -547 rlineto
          -29 hlineto
          185 5 180 8 182 vhcurveto
          2 74 143 14 86 8 rrcurveto
          2 7 2 10 8 vvcurveto
          8 -2 6 -2 8 vhcurveto
          -4 -112 -119 -4 -117 hhcurveto
          -119 -117 4 4 -112 hvcurveto
          -2 -6 -2 -8 -8 vvcurveto
          -8 2 -8 2 -9 vhcurveto
          86 -8 143 -14 2 -74 rrcurveto
          8 -188 2 -187 -184 vvcurveto
          -211 -4 -211 -8 -209 vhcurveto
          endchar
        </CharString>
        <CharString name="L">
          564 1571 -20 hstem
          293 276 -264 275 vstem
          541 hmoveto
          868 hlineto
          18 150 68 129 61 114 -6 13 -12 8 -16 6 -90 -168 -175 -164 -407 -27 rrcurveto
          -309 hlineto
          -6 263 -5 186 184 vvcurveto
          213 5 211 8 209 vhcurveto
          2 74 143 14 86 8 rrcurveto
          2 9 2 8 8 vvcurveto
          8 -2 6 -2 8 vhcurveto
          -4 -112 -119 -4 -117 hhcurveto
          -119 -117 4 4 -112 hvcurveto
          -2 -6 -2 -8 -8 vvcurveto
          -8 2 -8 2 -9 vhcurveto
          86 -8 143 -14 2 -74 rrcurveto
          8 -188 2 -187 -184 vvcurveto
          -211 -4 -211 -8 -209 vhcurveto
          -2 -74 -143 -14 -86 -8 rrcurveto
          -2 -10 -2 -8 -9 vvcurveto
          -6 2 -8 2 -6 vhcurveto
          4 129 201 2 135 hhcurveto
          endchar
        </CharString>
        <CharString name="M">
          876 33 43 1515 -20 22 -20 hstem
          332 55 1006 288 -276 276 vstem
          287 152 rmoveto
          -84 -135 -19 -86 -8 vhcurveto
          -5 -10 0 -8 -9 vvcurveto
          -6 2 -8 3 -6 vhcurveto
          6 188 4 0 76 hhcurveto
          59 119 -2 -4 106 hvcurveto
          3 6 2 8 6 vvcurveto
          9 -2 8 -3 10 vhcurveto
          -86 8 -133 19 -2 84 rrcurveto
          -6 186 -4 172 184 vvcurveto
          170 2 207 6 182 vhcurveto
          11 hlineto
          487 -1228 rlineto
          10 hlineto
          457 1204 rlineto
          8 hlineto
          6 -180 4 -175 -180 vvcurveto
          -184 -4 -186 -6 -187 vhcurveto
          -2 -74 -143 -14 -86 -8 rrcurveto
          -4 -10 0 -8 -9 vvcurveto
          -6 2 -8 2 -6 vhcurveto
          4 112 117 2 119 hhcurveto
          117 118 -2 -4 113 hvcurveto
          2 6 2 8 6 vvcurveto
          9 -2 10 -2 8 vhcurveto
          -86 8 -143 14 -2 74 rrcurveto
          -9 209 -4 211 211 vvcurveto
          184 2 187 8 188 vhcurveto
          3 74 143 14 86 8 rrcurveto
          2 9 2 8 8 vvcurveto
          8 -2 6 -2 8 vhcurveto
          -4 -113 -119 -4 -118 hhcurveto
          -115 hlineto
          -403 -1048 rlineto
          -5 hlineto
          -387 1048 rlineto
          -211 -215 6 2 -47 hvcurveto
          -4 -8 0 -6 -6 vvcurveto
          -6 0 -4 4 -8 vhcurveto
          148 -21 43 -14 4 -164 rrcurveto
          4 -164 2 -158 -143 vvcurveto
          -211 -4 -197 -8 -208 vhcurveto
          endchar
        </CharString>
        <CharString name="N">
          671 -4 43 -39 -20 1558 -20 hstemhm
          299 55 1051 45 hintmask 01111000
          287 152 rmoveto
          -84 -135 -19 -86 -8 vhcurveto
          -5 -10 0 -8 -9 vvcurveto
          -6 2 -8 3 -6 vhcurveto
          6 188 4 0 76 hhcurveto
          59 119 -2 -4 106 hvcurveto
          3 6 2 8 6 vvcurveto
          9 -2 8 -3 10 vhcurveto
          -86 8 -133 19 -2 84 rrcurveto
          -6 186 -4 172 184 vvcurveto
          162 2 188 4 173 vhcurveto
          10 hlineto
          994 -1223 rlineto
          hintmask 10111000
          18 2 rlineto
          -8 188 -2 328 184 vvcurveto
          211 4 197 8 209 vhcurveto
          2 84 133 18 86 8 rrcurveto
          4 11 0 8 8 vvcurveto
          6 -2 8 -2 6 vhcurveto
          -6 -188 -4 0 -76 hhcurveto
          -59 -119 2 4 -107 hvcurveto
          -2 -6 -2 -8 -6 vvcurveto
          -8 2 -8 2 -11 vhcurveto
          86 -8 134 -18 2 -84 rrcurveto
          6 -187 4 -172 -184 vvcurveto
          -117 -2 -96 -2 -96 vhcurveto
          -8 hlineto
          0 -68 57 -745 944 vhcurveto
          -127 -164 2 6 -123 hvcurveto
          -4 -6 -2 -10 -8 vvcurveto
          -8 2 -6 4 -9 vhcurveto
          88 -6 63 -22 62 -54 rrcurveto
          6 -182 2 -217 -174 vvcurveto
          -211 -4 -197 -8 -208 vhcurveto
          endchar
        </CharString>
        <CharString name="Ntilde">
          671 -4 43 -39 -20 1558 -20 231 140 -78 141 hstemhm
          299 55 392 725 -66 45 hintmask 01100101
          287 152 rmoveto
          -84 -135 -19 -86 -8 vhcurveto
          -5 -10 0 -8 -9 vvcurveto
          -6 2 -8 3 -6 vhcurveto
          6 188 4 0 76 hhcurveto
          59 119 -2 -4 106 hvcurveto
          3 6 2 8 6 vvcurveto
          9 -2 8 -3 10 vhcurveto
          -86 8 -133 19 -2 84 rrcurveto
          -6 186 -4 172 184 vvcurveto
          162 2 188 4 173 vhcurveto
          10 hlineto
          994 -1223 rlineto
          hintmask 10100101
          18 2 rlineto
          -8 188 -2 328 184 vvcurveto
          211 4 197 8 209 vhcurveto
          2 84 133 18 86 8 rrcurveto
          4 11 0 8 8 vvcurveto
          6 -2 8 -2 6 vhcurveto
          -6 -188 -4 0 -76 hhcurveto
          -59 -119 2 4 -107 hvcurveto
          -2 -6 -2 -8 -6 vvcurveto
          -8 2 -8 2 -11 vhcurveto
          86 -8 134 -18 2 -84 rrcurveto
          6 -187 4 -172 -184 vvcurveto
          -117 -2 -96 -2 -96 vhcurveto
          -8 hlineto
          0 -68 57 -745 944 vhcurveto
          -127 -164 2 6 -123 hvcurveto
          -4 -6 -2 -10 -8 vvcurveto
          -8 2 -6 4 -9 vhcurveto
          88 -6 63 -22 62 -54 rrcurveto
          6 -182 2 -217 -174 vvcurveto
          -211 -4 -197 -8 -208 vhcurveto
          hintmask 00001010
          838 1775 rmoveto
          -53 -17 -47 -20 -39 -67 -131 61 -90 hhcurveto
          -68 -84 -43 -158 -63 hvcurveto
          55 hlineto
          48 37 34 14 41 hhcurveto
          hintmask 00010010
          33 39 -12 -15 37 hvcurveto
          -14 55 60 -21 53 hhcurveto
          129 63 111 102 31 hvcurveto
          endchar
        </CharString>
        <CharString name="O">
          749 -41 72 1401 71 hstem
          133 264 987 265 vstem
          133 729 rmoveto
          -614 463 -156 295 295 463 156 614 614 -463 160 -295 -295 -463 -160 -614 vhcurveto
          1251 hmoveto
          -307 -118 -391 -375 -375 -119 391 307 307 119 396 375 375 118 -396 -307 vhcurveto
          endchar
        </CharString>
        <CharString name="OE">
          1390 -18 84 -66 90 686 90 688 84 hstemhm
          90 232 845 201 479 76 227 78 hintmask 10111111
          133 729 rmoveto
          -614 463 -156 295 vhcurveto
          hintmask 01111111
          80 102 12 29 98 hvcurveto
          1063 hlineto
          19 150 67 108 62 115 -6 12 -13 8 -16 6 -90 -168 -174 -143 -408 -27 rrcurveto
          -299 hlineto
          -6 187 -4 264 190 vvcurveto
          264 hlineto
          178 54 -153 -156 86 hvcurveto
          16 6 16 9 7 12 rrcurveto
          -56 94 -45 109 110 vvcurveto
          82 45 135 56 97 vhcurveto
          -7 12 -16 8 -16 6 rrcurveto
          -168 -88 -52 -141 -178 hhcurveto
          -264 hlineto
          201 4 249 6 187 vhcurveto
          258 hlineto
          408 -27 174 -143 90 -168 16 6 13 8 6 13 -62 106 -67 125 -19 149 -268 -8 -471 2 -285 -2 rrcurveto
          29 -98 -100 12 -80 hhcurveto
          -295 -463 -160 -614 hvcurveto
          264 hmoveto
          307 119 396 375 92 88 -27 -43 74 vhcurveto
          8 -184 2 -234 -176 vvcurveto
          -195 -4 -268 -6 -205 vhcurveto
          -45 -72 -86 -24 -96 hhcurveto
          -375 -119 391 307 hvcurveto
          endchar
        </CharString>
        <CharString name="Oacute">
          749 1749 385 hstem
          435 419 vstem
          133 729 rmoveto
          -614 463 -156 295 295 463 156 614 614 -463 160 -295 -295 -463 -160 -614 vhcurveto
          1251 hmoveto
          -307 -118 -391 -375 -375 -119 391 307 307 119 396 375 375 118 -396 -307 vhcurveto
          -622 977 rmoveto
          29 -37 283 177 41 26 16 10 14 13 rlinecurve
          21 18 16 21 34 vvcurveto
          52 -35 34 -51 -35 -30 -16 -31 -27 vhcurveto
          endchar
        </CharString>
        <CharString name="Ocircumflex">
          749 1749 353 hstem
          807 624 vstem
          133 729 rmoveto
          -614 463 -156 295 295 463 156 614 614 -463 160 -295 -295 -463 -160 -614 vhcurveto
          1251 hmoveto
          -307 -118 -391 -375 -375 -119 391 307 307 119 396 375 375 118 -396 -307 vhcurveto
          -489 1102 rmoveto
          242 -178 rlineto
          73 hlineto
          -256 332 rlineto
          -118 hlineto
          -256 -332 rlineto
          73 hlineto
          endchar
        </CharString>
        <CharString name="Odieresis">
          749 1749 223 hstem
          791 221 137 223 vstem
          133 729 rmoveto
          -614 463 -156 295 295 463 156 614 614 -463 160 -295 -295 -463 -160 -614 vhcurveto
          1251 hmoveto
          -307 -118 -391 -375 -375 -119 391 307 307 119 396 375 375 118 -396 -307 vhcurveto
          -800 1096 rmoveto
          -68 53 -53 68 65 54 53 68 66 -54 53 -65 -68 -53 -53 -66 vhcurveto
          373 hmoveto
          -68 53 -53 66 67 53 53 68 66 -53 53 -67 -66 -53 -53 -66 vhcurveto
          endchar
        </CharString>
        <CharString name="Ograve">
          749 1749 385 hstem
          445 419 vstem
          133 729 rmoveto
          -614 463 -156 295 295 463 156 614 614 -463 160 -295 -295 -463 -160 -614 vhcurveto
          1251 hmoveto
          -307 -118 -391 -375 -375 -119 391 307 307 119 396 375 375 118 -396 -307 vhcurveto
          -628 1278 rmoveto
          31 -27 -30 16 -35 hhcurveto
          -51 -35 -34 -52 -34 16 -21 21 -18 hvcurveto
          14 -13 16 -10 41 -26 283 -177 rcurveline
          29 37 rlineto
          endchar
        </CharString>
        <CharString name="Oslash">
          749 -18 90 1476 90 hstem
          88 231 1178 232 vstem
          1397 1331 rmoveto
          159 223 -88 66 -161 -225 rlineto
          80 -138 -153 28 -125 hhcurveto
          -295 -463 -160 -614 -301 111 -190 149 -117 hvcurveto
          -170 -238 88 -65 172 241 rlineto
          -73 135 150 -27 123 hhcurveto
          295 463 156 614 295 -109 190 -143 117 hvcurveto
          -1000 -602 rmoveto
          307 119 396 375 147 107 -62 -94 78 vhcurveto
          -723 -1006 rlineto
          -74 136 -29 172 151 vvcurveto
          987 hmoveto
          -307 -118 -391 -375 -143 -105 57 86 -76 vhcurveto
          719 1004 rlineto
          70 -134 28 -167 -148 vvcurveto
          endchar
        </CharString>
        <CharString name="Otilde">
          749 1749 140 -78 141 hstemhm
          789 725 hintmask 01100000
          133 729 rmoveto
          -614 463 -156 295 295 463 156 614 614 -463 160 -295 -295 -463 -160 -614 vhcurveto
          1251 hmoveto
          hintmask 10100000
          -307 -118 -391 -375 -375 -119 391 307 307 119 396 375 375 118 -396 -307 vhcurveto
          -216 1198 rmoveto
          -53 -17 -47 -20 -39 -67 -131 61 -90 hhcurveto
          -68 -84 -43 -158 -63 hvcurveto
          55 hlineto
          48 37 34 14 41 hhcurveto
          33 39 -12 -15 37 hvcurveto
          -14 55 60 -21 53 hhcurveto
          129 63 111 102 31 hvcurveto
          endchar
        </CharString>
        <CharString name="P">
          280 0 41 -26 -21 614 86 711 65 -8 -20 hstemhm
          315 220 446 260 hintmask 10110100
          315 678 rmoveto
          -172 -2 -176 -6 -193 vhcurveto
          -2 -74 -143 -14 -86 -8 rrcurveto
          hintmask 01110100
          -4 -10 0 -8 -9 vvcurveto
          -6 2 -8 2 -6 vhcurveto
          hintmask 10110100
          4 112 117 2 119 hhcurveto
          117 118 -2 -4 113 hvcurveto
          hintmask 01110100
          2 6 2 8 6 vvcurveto
          hintmask 10110110
          9 -2 8 -2 10 vhcurveto
          -86 8 -143 14 -2 74 rrcurveto
          -4 189 -2 170 168 vvcurveto
          -46 88 92 -10 61 hhcurveto
          309 156 187 239 254 -174 182 -352 hvcurveto
          -107 -149 -8 -94 hhcurveto
          -91 -96 6 2 -88 hvcurveto
          hintmask 10101100
          -2 -8 -2 -4 -10 vvcurveto
          -8 2 -8 2 -9 vhcurveto
          hintmask 10110100
          80 -8 127 -12 8 -66 rrcurveto
          4 -235 6 -207 -217 vvcurveto
          226 723 rmoveto
          2 26 27 2 22 hhcurveto
          289 76 -170 -199 -207 -90 -135 -193 -57 -53 13 24 -53 hvcurveto
          hintmask 10110110
          217 2 213 4 240 vhcurveto
          endchar
        </CharString>
        <CharString name="Q">
          749 -420 43 1960 -20 hstem
          133 322 942 321 vstem
          1649 729 rmoveto
          614 -463 160 -295 -295 -463 -160 -614 -516 324 -193 278 -47 vhcurveto
          -315 158 344 -145 362 hhcurveto
          5 4 2 8 10 vvcurveto
          8 -2 8 -7 9 vhcurveto
          -374 123 -82 155 -66 142 rrcurveto
          273 57 301 196 496 vvcurveto
          -265 hmoveto
          -307 -118 -391 -375 -375 -119 391 307 307 119 396 375 375 118 -396 -307 vhcurveto
          endchar
        </CharString>
        <CharString name="R">
          519 0 41 -26 -21 622 76 713 65 -8 -20 hstemhm
          319 211 445 260 hintmask 10110100
          307 137 rmoveto
          -74 -145 -14 -86 -8 vhcurveto
          hintmask 01110100
          -4 -10 0 -8 -9 vvcurveto
          -6 2 -8 2 -6 vhcurveto
          hintmask 10110100
          4 112 117 2 119 hhcurveto
          117 118 -2 -4 113 hvcurveto
          hintmask 01110100
          2 6 2 8 6 vvcurveto
          hintmask 10110100
          9 -2 8 -2 10 vhcurveto
          -86 8 -143 14 -2 74 rrcurveto
          -6 168 -5 166 168 vvcurveto
          -14 58 57 -9 53 hhcurveto
          131 -243 150 -197 151 -176 136 -2 137 2 135 -6 rrcurveto
          hintmask 01110100
          2 6 2 8 8 vvcurveto
          hintmask 10110110
          9 -2 8 -2 8 vhcurveto
          -172 16 -135 146 -129 172 -66 86 -63 88 -55 98 rrcurveto
          198 66 119 164 190 vvcurveto
          233 -174 170 -303 vhcurveto
          -117 -111 -8 -104 hhcurveto
          -111 -129 4 4 -108 hvcurveto
          hintmask 10101100
          -2 -8 -2 -6 -8 vvcurveto
          -8 2 -8 2 -9 vhcurveto
          hintmask 10110100
          86 -8 143 -14 2 -74 rrcurveto
          8 -188 2 -187 -184 vvcurveto
          -211 -4 -211 -8 -209 vhcurveto
          236 1264 rmoveto
          4 45 28 0 46 hhcurveto
          208 105 -148 -190 -172 -76 -203 -227 -43 -47 6 17 -52 hvcurveto
          hintmask 10110110
          205 5 280 6 201 vhcurveto
          endchar
        </CharString>
        <CharString name="S">
          251 -41 74 1399 71 hstem
          176 189 579 217 vstem
          1040 1047 rmoveto
          -3 9 8 -2 8 hhcurveto
          8 6 2 3 8 hvcurveto
          -16 61 -8 90 90 vvcurveto
          43 2 41 4 39 vhcurveto
          37 -86 -149 55 -177 hhcurveto
          -206 -275 -88 -323 -250 195 -129 272 -68 hvcurveto
          240 -59 61 -80 -176 vvcurveto
          -172 -110 -125 -216 -176 -213 141 358 -59 vhcurveto
          5 -8 -8 2 -9 hhcurveto
          -6 -8 -2 -5 -8 hvcurveto
          18 -108 9 -111 -106 vvcurveto
          -45 -3 -45 -2 -43 vhcurveto
          -49 107 178 -66 188 hhcurveto
          236 307 143 318 332 -241 84 -230 55 hvcurveto
          -284 70 -41 79 150 vvcurveto
          143 102 99 190 189 143 -140 -245 51 vhcurveto
          endchar
        </CharString>
        <CharString name="T">
          595 0 41 -26 -21 1411 57 8 -20 hstemhm
          707 213 hintmask 10101000
          696 137 rmoveto
          -74 -145 -14 -86 -8 vhcurveto
          hintmask 01101000
          -2 -10 -2 -8 -9 vvcurveto
          -6 2 -8 2 -6 vhcurveto
          hintmask 10101000
          4 113 116 2 119 hhcurveto
          117 119 -2 -4 112 hvcurveto
          hintmask 01101000
          2 6 2 8 6 vvcurveto
          hintmask 10101000
          9 -2 8 -2 10 vhcurveto
          -86 8 -143 14 -2 74 rrcurveto
          -8 199 -2 217 219 vvcurveto
          215 2 219 8 199 vhcurveto
          409 -29 154 -145 90 -168 16 6 13 8 6 13 -57 112 -72 119 -19 149 rrcurveto
          hintmask 10011000
          -8 -219 -219 0 -219 hhcurveto
          hintmask 10101000
          -217 -221 0 8 -217 hvcurveto
          -19 -149 -71 -121 -58 -110 rrcurveto
          hintmask 10011000
          6 -13 13 -8 16 -6 86 162 166 157 399 23 rrcurveto
          6 -199 5 -219 -215 vvcurveto
          hintmask 10101000
          -219 -5 -217 -6 -199 vhcurveto
          endchar
        </CharString>
        <CharString name="Thorn">
          302 0 78 194 90 959 90 131 78 hstem
          260 199 733 231 vstem
          543 1327 rmoveto
          74 145 14 86 8 vhcurveto
          2 7 2 10 8 vvcurveto
          8 -2 6 -2 8 vhcurveto
          -4 -112 -119 -4 -117 hhcurveto
          -119 -117 4 4 -112 hvcurveto
          -2 -6 -2 -8 -8 vvcurveto
          -8 2 -8 2 -9 vhcurveto
          86 -8 143 -14 2 -74 rrcurveto
          8 -188 2 -187 -184 vvcurveto
          -211 -4 -211 -8 -209 vhcurveto
          -2 -74 -143 -14 -86 -8 rrcurveto
          -4 -10 0 -8 -9 vvcurveto
          -6 2 -8 2 -6 vhcurveto
          4 112 117 2 119 hhcurveto
          117 118 -2 -4 113 hvcurveto
          2 6 2 8 6 vvcurveto
          9 0 6 -4 12 vhcurveto
          -86 8 -143 14 -2 74 -4 80 -2 80 -3 78 rrcurveto
          -39 95 96 -4 65 hhcurveto
          310 155 200 240 254 -174 168 -278 -117 -86 -14 -27 -61 hvcurveto
          2 57 0 60 4 57 rrcurveto
          178 -219 rmoveto
          197 75 -135 -199 -207 -90 -149 -192 -64 -57 4 18 -58 hvcurveto
          -2 86 0 84 84 vvcurveto
          129 0 129 5 129 vhcurveto
          15 40 39 12 107 hhcurveto
          endchar
        </CharString>
        <CharString name="U">
          734 -41 94 1370 41 -41 47 hstemhm
          287 219 901 94 hintmask 11011000
          510 1327 rmoveto
          74 145 14 86 8 vhcurveto
          hintmask 10111000
          2 9 2 8 8 vvcurveto
          8 -2 6 -2 8 vhcurveto
          hintmask 11011000
          -4 -112 -119 -2 -117 hhcurveto
          -119 -116 2 4 -113 hvcurveto
          hintmask 10111000
          -2 -8 -2 -6 -8 vvcurveto
          hintmask 11011000
          -8 2 -8 2 -9 vhcurveto
          86 -8 143 -14 2 -74 rrcurveto
          9 -190 2 -189 -188 vvcurveto
          -164 vlineto
          -524 270 -113 373 227 344 129 508 240 0 239 10 238 vhcurveto
          5 84 131 18 86 8 rrcurveto
          4 11 0 8 8 vvcurveto
          hintmask 10111000
          6 -2 8 -2 6 vhcurveto
          -6 -189 -4 0 -76 hhcurveto
          hintmask 11011000
          -59 -119 2 4 -106 hvcurveto
          -2 -6 -2 -8 -6 vvcurveto
          hintmask 10111000
          -8 2 -8 2 -11 vhcurveto
          hintmask 11011000
          86 -8 133 -18 2 -84 rrcurveto
          6 -240 0 -237 -240 vvcurveto
          -350 -174 -193 -307 -312 -108 172 371 463 0 135 4 133 vhcurveto
          endchar
        </CharString>
        <CharString name="Uacute">
          734 1749 385 hstem
          531 419 vstem
          510 1327 rmoveto
          74 145 14 86 8 vhcurveto
          2 9 2 8 8 vvcurveto
          8 -2 6 -2 8 vhcurveto
          -4 -112 -119 -2 -117 hhcurveto
          -119 -116 2 4 -113 hvcurveto
          -2 -8 -2 -6 -8 vvcurveto
          -8 2 -8 2 -9 vhcurveto
          86 -8 143 -14 2 -74 rrcurveto
          9 -190 2 -189 -188 vvcurveto
          -164 vlineto
          -524 270 -113 373 227 344 129 508 240 0 239 10 238 vhcurveto
          5 84 131 18 86 8 rrcurveto
          4 11 0 8 8 vvcurveto
          6 -2 8 -2 6 vhcurveto
          -6 -189 -4 0 -76 hhcurveto
          -59 -119 2 4 -106 hvcurveto
          -2 -6 -2 -8 -6 vvcurveto
          -8 2 -8 2 -11 vhcurveto
          86 -8 133 -18 2 -84 rrcurveto
          6 -240 0 -237 -240 vvcurveto
          -350 -174 -193 -307 -312 -108 172 371 463 0 135 4 133 vhcurveto
          348 379 rmoveto
          29 -37 283 177 41 26 16 10 14 13 rlinecurve
          21 18 16 21 34 vvcurveto
          52 -35 34 -51 -35 -30 -16 -31 -27 vhcurveto
          endchar
        </CharString>
        <CharString name="Ucircumflex">
          734 1749 353 hstem
          877 624 vstem
          510 1327 rmoveto
          74 145 14 86 8 vhcurveto
          2 9 2 8 8 vvcurveto
          8 -2 6 -2 8 vhcurveto
          -4 -112 -119 -2 -117 hhcurveto
          -119 -116 2 4 -113 hvcurveto
          -2 -8 -2 -6 -8 vvcurveto
          -8 2 -8 2 -9 vhcurveto
          86 -8 143 -14 2 -74 rrcurveto
          9 -190 2 -189 -188 vvcurveto
          -164 vlineto
          -524 270 -113 373 227 344 129 508 240 0 239 10 238 vhcurveto
          5 84 131 18 86 8 rrcurveto
          4 11 0 8 8 vvcurveto
          6 -2 8 -2 6 vhcurveto
          -6 -189 -4 0 -76 hhcurveto
          -59 -119 2 4 -106 hvcurveto
          -2 -6 -2 -8 -6 vvcurveto
          -8 2 -8 2 -11 vhcurveto
          86 -8 133 -18 2 -84 rrcurveto
          6 -240 0 -237 -240 vvcurveto
          -350 -174 -193 -307 -312 -108 172 371 463 0 135 4 133 vhcurveto
          455 504 rmoveto
          242 -178 rlineto
          73 hlineto
          -256 332 rlineto
          -118 hlineto
          -256 -332 rlineto
          73 hlineto
          endchar
        </CharString>
        <CharString name="Udieresis">
          734 1749 223 hstem
          866 221 137 223 vstem
          510 1327 rmoveto
          74 145 14 86 8 vhcurveto
          2 9 2 8 8 vvcurveto
          8 -2 6 -2 8 vhcurveto
          -4 -112 -119 -2 -117 hhcurveto
          -119 -116 2 4 -113 hvcurveto
          -2 -8 -2 -6 -8 vvcurveto
          -8 2 -8 2 -9 vhcurveto
          86 -8 143 -14 2 -74 rrcurveto
          9 -190 2 -189 -188 vvcurveto
          -164 vlineto
          -524 270 -113 373 227 344 129 508 240 0 239 10 238 vhcurveto
          5 84 131 18 86 8 rrcurveto
          4 11 0 8 8 vvcurveto
          6 -2 8 -2 6 vhcurveto
          -6 -189 -4 0 -76 hhcurveto
          -59 -119 2 4 -106 hvcurveto
          -2 -6 -2 -8 -6 vvcurveto
          -8 2 -8 2 -11 vhcurveto
          86 -8 133 -18 2 -84 rrcurveto
          6 -240 0 -237 -240 vvcurveto
          -350 -174 -193 -307 -312 -108 172 371 463 0 135 4 133 vhcurveto
          149 498 rmoveto
          -68 53 -53 68 65 54 53 68 66 -54 53 -65 -68 -53 -53 -66 vhcurveto
          373 hmoveto
          -68 53 -53 66 67 53 53 68 66 -53 53 -67 -66 -53 -53 -66 vhcurveto
          endchar
        </CharString>
        <CharString name="Ugrave">
          734 1749 385 hstem
          459 419 vstem
          510 1327 rmoveto
          74 145 14 86 8 vhcurveto
          2 9 2 8 8 vvcurveto
          8 -2 6 -2 8 vhcurveto
          -4 -112 -119 -2 -117 hhcurveto
          -119 -116 2 4 -113 hvcurveto
          -2 -8 -2 -6 -8 vvcurveto
          -8 2 -8 2 -9 vhcurveto
          86 -8 143 -14 2 -74 rrcurveto
          9 -190 2 -189 -188 vvcurveto
          -164 vlineto
          -524 270 -113 373 227 344 129 508 240 0 239 10 238 vhcurveto
          5 84 131 18 86 8 rrcurveto
          4 11 0 8 8 vvcurveto
          6 -2 8 -2 6 vhcurveto
          -6 -189 -4 0 -76 hhcurveto
          -59 -119 2 4 -106 hvcurveto
          -2 -6 -2 -8 -6 vvcurveto
          -8 2 -8 2 -11 vhcurveto
          86 -8 133 -18 2 -84 rrcurveto
          6 -240 0 -237 -240 vvcurveto
          -350 -174 -193 -307 -312 -108 172 371 463 0 135 4 133 vhcurveto
          260 680 rmoveto
          31 -27 -30 16 -35 hhcurveto
          -51 -35 -34 -52 -34 16 -21 21 -18 hvcurveto
          14 -13 16 -10 41 -26 283 -177 rcurveline
          29 37 rlineto
          endchar
        </CharString>
        <CharString name="V">
          571 -20 43 1472 -20 22 -20 hstem
          1409 1313 rmoveto
          39 82 76 20 86 8 rrcurveto
          4 11 0 8 8 vvcurveto
          6 -2 8 -2 6 vhcurveto
          -4 -76 -100 -2 -52 hhcurveto
          -57 -90 2 4 -86 hvcurveto
          -2 -6 -2 -8 -6 vvcurveto
          -8 2 -8 2 -11 vhcurveto
          108 -12 52 -12 -47 vvcurveto
          -11 -2 -18 -4 -10 vhcurveto
          -390 -979 rlineto
          -10 hlineto
          -416 966 rlineto
          -2 7 -12 30 13 vvcurveto
          51 49 16 176 6 vhcurveto
          2 7 2 10 8 vvcurveto
          8 -2 6 -2 8 vhcurveto
          -6 -112 -109 -2 -117 hhcurveto
          -118 -125 4 4 -113 hvcurveto
          -2 -6 -2 -8 -8 vvcurveto
          -8 2 -8 2 -9 vhcurveto
          86 -8 111 -26 39 -89 581 -1329 rcurveline
          47 hlineto
          endchar
        </CharString>
        <CharString name="W">
          1111 -12 43 -31 -20 hstem
          854 334 rmoveto
          -393 966 rlineto
          -4 15 -11 22 19 vvcurveto
          33 27 28 125 6 vhcurveto
          2 7 2 10 8 vvcurveto
          8 -2 6 -2 8 vhcurveto
          -6 -106 -41 -2 -111 hhcurveto
          -111 -118 4 4 -107 hvcurveto
          -2 -6 -2 -8 -8 vvcurveto
          -8 2 -8 2 -9 vhcurveto
          82 -8 104 -26 37 -89 549 -1329 rcurveline
          45 hlineto
          285 762 301 -762 rlineto
          45 hlineto
          508 1342 37 82 71 20 82 8 rlinecurve
          4 11 0 8 8 vvcurveto
          6 -2 8 -2 6 vhcurveto
          -4 -71 -94 -2 -50 hhcurveto
          -53 -100 2 4 -82 hvcurveto
          -2 -6 -2 -8 -6 vvcurveto
          -8 2 -8 2 -11 vhcurveto
          102 -12 64 -12 -47 vvcurveto
          -11 -2 -18 -4 -10 vhcurveto
          -365 -979 rlineto
          -10 hlineto
          -369 966 rlineto
          -2 7 -12 30 13 vvcurveto
          51 26 16 166 6 vhcurveto
          2 7 2 10 8 vvcurveto
          8 -2 6 -2 8 vhcurveto
          -6 -106 -82 -2 -111 hhcurveto
          -110 -97 2 6 -106 hvcurveto
          -2 -6 -2 -8 -8 vvcurveto
          -8 2 -8 2 -9 vhcurveto
          82 -8 84 -26 35 -89 176 -446 rcurveline
          -195 -520 rlineto
          endchar
        </CharString>
        <CharString name="X">
          491 20 43 1516 -20 hstem
          254 152 rmoveto
          -57 -78 -86 -25 -86 -8 rrcurveto
          -5 -10 0 -8 -9 vvcurveto
          -6 3 -8 2 -6 vhcurveto
          4 75 121 2 51 hhcurveto
          58 100 -2 -4 86 hvcurveto
          2 6 2 8 6 vvcurveto
          9 -2 8 -2 10 vhcurveto
          -92 10 -76 15 45 vvcurveto
          8 2 16 12 19 vhcurveto
          353 483 305 -485 rlineto
          4 -7 6 -18 -18 vvcurveto
          -39 -86 -25 -145 -6 vhcurveto
          -2 -6 -2 -10 -9 vvcurveto
          -8 2 -6 2 -8 vhcurveto
          6 112 119 2 117 hhcurveto
          119 141 -4 -4 113 hvcurveto
          2 6 2 8 8 vvcurveto
          9 -2 8 -2 8 vhcurveto
          -86 8 -105 23 -61 82 -420 669 rcurveline
          352 492 55 80 88 22 87 8 rlinecurve
          4 11 0 8 8 vvcurveto
          6 -2 8 -2 6 vhcurveto
          -4 -76 -121 -2 -51 hhcurveto
          -58 -90 2 4 -86 hvcurveto
          -2 -6 -2 -8 -6 vvcurveto
          -8 2 -8 2 -11 vhcurveto
          92 -10 66 -14 -45 vvcurveto
          -13 -4 -18 -6 -10 vhcurveto
          -297 -416 -246 391 rlineto
          -25 41 -2 8 13 vvcurveto
          51 60 16 145 6 vhcurveto
          2 7 2 10 8 vvcurveto
          8 -2 6 -2 8 vhcurveto
          -6 -113 -88 -2 -116 hhcurveto
          -119 -131 4 4 -113 hvcurveto
          -2 -6 -2 -8 -8 vvcurveto
          -8 2 -8 2 -9 vhcurveto
          86 -8 84 -8 62 -80 385 -614 rcurveline
          endchar
        </CharString>
        <CharString name="Y">
          433 66 43 hstem
          598 299 vstem
          496 1305 rmoveto
          -15 28 -2 4 13 vvcurveto
          51 80 16 146 6 vhcurveto
          2 7 2 10 8 vvcurveto
          8 -2 6 -2 8 vhcurveto
          -6 -113 -109 -2 -116 hhcurveto
          -119 -131 4 4 -113 hvcurveto
          -2 -6 -2 -8 -8 vvcurveto
          -8 2 -8 2 -9 vhcurveto
          86 -8 88 -16 58 -72 391 -684 rcurveline
          -2 -176 -4 -156 -7 -174 -2 -74 -143 -14 -86 -8 rrcurveto
          -4 -10 0 -8 -9 vvcurveto
          -6 2 -8 2 -6 vhcurveto
          4 113 116 2 119 hhcurveto
          117 119 -2 -4 112 hvcurveto
          2 6 2 8 6 vvcurveto
          9 0 6 -4 12 vhcurveto
          -86 8 -143 14 -2 74 rrcurveto
          -6 174 -4 158 174 vvcurveto
          415 670 52 82 71 20 86 8 rlinecurve
          4 11 0 8 8 vvcurveto
          6 -2 8 -2 6 vhcurveto
          -4 -76 -100 -2 -51 hhcurveto
          -57 -91 2 4 -86 hvcurveto
          -2 -6 -2 -8 -6 vvcurveto
          -8 2 -8 2 -11 vhcurveto
          93 -10 65 -14 -45 vvcurveto
          -13 -6 -18 -6 -10 vhcurveto
          -336 -559 rlineto
          -8 hlineto
          endchar
        </CharString>
        <CharString name="Yacute">
          433 66 43 1640 385 hstemhm
          379 419 -200 299 hintmask 10010000
          496 1305 rmoveto
          -15 28 -2 4 13 vvcurveto
          51 80 16 146 6 vhcurveto
          2 7 2 10 8 vvcurveto
          8 -2 6 -2 8 vhcurveto
          -6 -113 -109 -2 -116 hhcurveto
          -119 -131 4 4 -113 hvcurveto
          -2 -6 -2 -8 -8 vvcurveto
          -8 2 -8 2 -9 vhcurveto
          86 -8 88 -16 58 -72 391 -684 rcurveline
          -2 -176 -4 -156 -7 -174 -2 -74 -143 -14 -86 -8 rrcurveto
          -4 -10 0 -8 -9 vvcurveto
          -6 2 -8 2 -6 vhcurveto
          4 113 116 2 119 hhcurveto
          117 119 -2 -4 112 hvcurveto
          2 6 2 8 6 vvcurveto
          9 0 6 -4 12 vhcurveto
          -86 8 -143 14 -2 74 rrcurveto
          -6 174 -4 158 174 vvcurveto
          415 670 52 82 71 20 86 8 rlinecurve
          4 11 0 8 8 vvcurveto
          6 -2 8 -2 6 vhcurveto
          -4 -76 -100 -2 -51 hhcurveto
          -57 -91 2 4 -86 hvcurveto
          -2 -6 -2 -8 -6 vvcurveto
          -8 2 -8 2 -11 vhcurveto
          93 -10 65 -14 -45 vvcurveto
          -13 -6 -18 -6 -10 vhcurveto
          -336 -559 rlineto
          -8 hlineto
          hintmask 01100000
          -97 952 rmoveto
          29 -37 283 177 41 26 16 10 14 13 rlinecurve
          21 18 16 21 34 vvcurveto
          52 -35 34 -51 -35 -30 -16 -31 -27 vhcurveto
          endchar
        </CharString>
        <CharString name="Z">
          435 0 -20 1503 43 12 -20 hstem
          123 1057 rmoveto
          278 252 119 94 488 2 -316 -469 -315 -455 -320 -448 rrcurveto
          -13 9 -20 6 -6 vhcurveto
          6 108 27 0 78 hhcurveto
          1063 hlineto
          166 10 174 69 178 vhcurveto
          -6 12 -16 7 -16 2 rrcurveto
          -312 -111 -152 -166 -462 hhcurveto
          -330 hlineto
          313 461 316 455 317 448 rrcurveto
          25 -10 12 -23 8 vhcurveto
          -8 -100 -17 0 -83 hhcurveto
          -228 -280 6 2 -228 hvcurveto
          -43 -135 -75 -139 -111 -117 rrcurveto
          -14 8 12 -8 21 hhcurveto
          endchar
        </CharString>
        <CharString name="a">
          5 -14 43 884 -20 hstem
          170 657 rmoveto
          -82 61 -38 54 77 37 55 51 53 -26 43 -72 11 vhcurveto
          43 12 62 45 94 hhcurveto
          94 70 -60 -141 hvcurveto
          -139 vlineto
          -385 -99 -115 -65 -176 vvcurveto
          -62 31 -125 180 133 98 109 53 58 vhcurveto
          -106 8 51 -41 62 hhcurveto
          106 62 112 95 65 hvcurveto
          -8 18 -18 12 -23 2 rrcurveto
          -28 -18 -39 -52 -27 hhcurveto
          -37 -4 31 25 hvcurveto
          415 vlineto
          211 -80 82 -225 -176 -162 -100 -152 vhcurveto
          463 -432 rmoveto
          -51 -39 -68 -76 -90 hhcurveto
          -55 -47 37 70 100 49 72 250 57 hvcurveto
          endchar
        </CharString>
        <CharString name="aacute">
          5 -14 43 884 -20 270 385 hstemhm
          125 419 hintmask 11000000
          170 657 rmoveto
          -82 61 -38 54 77 37 55 51 53 -26 43 -72 11 vhcurveto
          43 12 62 45 94 hhcurveto
          94 70 -60 -141 hvcurveto
          -139 vlineto
          -385 -99 -115 -65 -176 vvcurveto
          -62 31 -125 180 133 98 109 53 58 vhcurveto
          -106 8 51 -41 62 hhcurveto
          106 62 112 95 65 hvcurveto
          -8 18 -18 12 -23 2 rrcurveto
          -28 -18 -39 -52 -27 hhcurveto
          -37 -4 31 25 hvcurveto
          415 vlineto
          211 -80 82 -225 -176 -162 -100 -152 vhcurveto
          463 -432 rmoveto
          -51 -39 -68 -76 -90 hhcurveto
          -55 -47 37 70 100 49 72 250 57 hvcurveto
          hintmask 00110000
          -181 686 rmoveto
          29 -37 283 177 41 26 16 10 14 13 rlinecurve
          21 18 16 21 34 vvcurveto
          52 -35 34 -51 -35 -30 -16 -31 -27 vhcurveto
          endchar
        </CharString>
        <CharString name="acircumflex">
          5 -14 43 884 -20 270 353 hstemhm
          432 624 hintmask 11000000
          170 657 rmoveto
          -82 61 -38 54 77 37 55 51 53 -26 43 -72 11 vhcurveto
          43 12 62 45 94 hhcurveto
          94 70 -60 -141 hvcurveto
          -139 vlineto
          -385 -99 -115 -65 -176 vvcurveto
          -62 31 -125 180 133 98 109 53 58 vhcurveto
          -106 8 51 -41 62 hhcurveto
          106 62 112 95 65 hvcurveto
          -8 18 -18 12 -23 2 rrcurveto
          -28 -18 -39 -52 -27 hhcurveto
          -37 -4 31 25 hvcurveto
          415 vlineto
          211 -80 82 -225 -176 -162 -100 -152 vhcurveto
          463 -432 rmoveto
          -51 -39 -68 -76 -90 hhcurveto
          -55 -47 37 70 100 49 72 250 57 hvcurveto
          hintmask 00110000
          -113 811 rmoveto
          242 -178 rlineto
          73 hlineto
          -256 332 rlineto
          -118 hlineto
          -256 -332 rlineto
          73 hlineto
          endchar
        </CharString>
        <CharString name="acute">
          349 1163 385 hstem
          154 419 vstem
          481 1120 rmoveto
          29 -37 283 177 41 26 16 10 14 13 rlinecurve
          21 18 16 21 34 vvcurveto
          52 -35 34 -51 -35 -30 -16 -31 -27 vhcurveto
          endchar
        </CharString>
        <CharString name="adieresis">
          5 -14 43 884 -20 270 223 hstemhm
          420 221 137 223 hintmask 11000000
          170 657 rmoveto
          -82 61 -38 54 77 37 55 51 53 -26 43 -72 11 vhcurveto
          43 12 62 45 94 hhcurveto
          94 70 -60 -141 hvcurveto
          -139 vlineto
          -385 -99 -115 -65 -176 vvcurveto
          -62 31 -125 180 133 98 109 53 58 vhcurveto
          -106 8 51 -41 62 hhcurveto
          106 62 112 95 65 hvcurveto
          -8 18 -18 12 -23 2 rrcurveto
          -28 -18 -39 -52 -27 hhcurveto
          -37 -4 31 25 hvcurveto
          415 vlineto
          211 -80 82 -225 -176 -162 -100 -152 vhcurveto
          463 -432 rmoveto
          -51 -39 -68 -76 -90 hhcurveto
          -55 -47 37 70 100 49 72 250 57 hvcurveto
          hintmask 00111000
          -420 805 rmoveto
          -68 53 -53 68 65 54 53 68 66 -54 53 -65 -68 -53 -53 -66 vhcurveto
          373 hmoveto
          -68 53 -53 66 67 53 53 68 66 -53 53 -67 -66 -53 -53 -66 vhcurveto
          endchar
        </CharString>
        <CharString name="ae">
          468 -18 94 401 76 -37 72 250 71 hstem
          51 185 339 168 367 184 vstem
          170 657 rmoveto
          -82 61 -38 54 77 37 55 51 53 -26 43 -72 11 vhcurveto
          43 12 62 45 94 hhcurveto
          94 70 -60 -141 hvcurveto
          -139 vlineto
          -385 -99 -115 -65 -176 vvcurveto
          -62 31 -125 180 160 80 66 102 123 vhcurveto
          -119 77 127 -49 125 hhcurveto
          152 162 78 189 69 hvcurveto
          -8 10 -12 8 -19 4 rrcurveto
          -61 -47 -49 -103 -160 hhcurveto
          -188 -119 131 197 -4 hvcurveto
          10 vlineto
          35 2 31 2 30 vhcurveto
          545 hlineto
          10 31 6 35 37 vvcurveto
          137 -78 139 -229 vhcurveto
          -24 hlineto
          -101 -6 -94 -41 -72 -69 rrcurveto
          81 -43 -84 35 -145 hhcurveto
          -14 -5 0 -2 -20 hvcurveto
          -168 -14 -131 -98 -138 vvcurveto
          463 -479 rmoveto
          -45 -51 -56 -35 -90 hhcurveto
          -55 -47 37 70 100 49 72 250 57 hvcurveto
          414 410 rmoveto
          114 37 -88 -92 -23 -4 -20 -6 -23 hvcurveto
          -361 hlineto
          178 39 99 68 82 hhcurveto
          endchar
        </CharString>
        <CharString name="agrave">
          5 -14 43 884 -20 270 385 hstemhm
          54 419 hintmask 11000000
          170 657 rmoveto
          -82 61 -38 54 77 37 55 51 53 -26 43 -72 11 vhcurveto
          43 12 62 45 94 hhcurveto
          94 70 -60 -141 hvcurveto
          -139 vlineto
          -385 -99 -115 -65 -176 vvcurveto
          -62 31 -125 180 133 98 109 53 58 vhcurveto
          -106 8 51 -41 62 hhcurveto
          106 62 112 95 65 hvcurveto
          -8 18 -18 12 -23 2 rrcurveto
          -28 -18 -39 -52 -27 hhcurveto
          -37 -4 31 25 hvcurveto
          415 vlineto
          211 -80 82 -225 -176 -162 -100 -152 vhcurveto
          463 -432 rmoveto
          -51 -39 -68 -76 -90 hhcurveto
          -55 -47 37 70 100 49 72 250 57 hvcurveto
          hintmask 00110000
          -268 987 rmoveto
          31 -27 -30 16 -35 hhcurveto
          -51 -35 -34 -52 -34 16 -21 21 -18 hvcurveto
          14 -13 16 -10 41 -26 283 -177 rcurveline
          29 37 rlineto
          endchar
        </CharString>
        <CharString name="ampersand">
          511 -8 43 -35 -20 1382 -20 hstem
          1061 866 rmoveto
          82 -10 31 -18 -35 vvcurveto
          -10 0 -9 -3 -12 vhcurveto
          -10 -123 -69 -149 -80 -123 -117 168 -80 112 -160 162 rrcurveto
          146 82 98 92 156 vvcurveto
          188 -119 84 -172 -186 -148 -131 -168 -151 72 -78 107 -105 vhcurveto
          -277 -131 -53 -208 -111 vvcurveto
          -154 96 -215 291 96 139 21 180 193 vhcurveto
          -201 131 102 0 64 hhcurveto
          186 54 129 117 28 hvcurveto
          10 -12 -18 2 -17 hhcurveto
          -77 -31 -39 -54 -77 hhcurveto
          -119 -72 142 77 -65 hvcurveto
          147 213 14 76 107 168 31 49 32 33 97 12 rrcurveto
          2 11 2 8 8 vvcurveto
          6 -2 8 -2 6 vhcurveto
          -4 -99 -77 -2 -68 hhcurveto
          -33 -98 4 2 -45 hvcurveto
          -2 -6 -2 -10 -8 vvcurveto
          -8 2 -7 2 -8 vhcurveto
          -166 -626 rmoveto
          -103 -96 -105 -18 -92 hhcurveto
          -158 -127 88 180 176 93 125 100 43 hvcurveto
          178 -186 90 -115 117 -190 rrcurveto
          -293 628 rmoveto
          -78 64 -75 86 106 vvcurveto
          113 57 94 112 84 82 -53 -133 -146 -106 -92 -76 -39 vhcurveto
          endchar
        </CharString>
        <CharString name="aring">
          5 -14 43 884 -20 270 72 264 72 hstemhm
          410 72 264 71 hintmask 11000000
          170 657 rmoveto
          -82 61 -38 54 77 37 55 51 53 -26 43 -72 11 vhcurveto
          43 12 62 45 94 hhcurveto
          94 70 -60 -141 hvcurveto
          -139 vlineto
          -385 -99 -115 -65 -176 vvcurveto
          -62 31 -125 180 133 98 109 53 58 vhcurveto
          -106 8 51 -41 62 hhcurveto
          106 62 112 95 65 hvcurveto
          -8 18 -18 12 -23 2 rrcurveto
          -28 -18 -39 -52 -27 hhcurveto
          -37 -4 31 25 hvcurveto
          415 vlineto
          211 -80 82 -225 -176 -162 -100 -152 vhcurveto
          463 -432 rmoveto
          -51 -39 -68 -76 -90 hhcurveto
          -55 -47 37 70 100 49 72 250 57 hvcurveto
          hintmask 00111100
          -317 828 rmoveto
          -119 86 -86 116 119 86 86 119 133 -110 69 -95 -92 -110 -69 -133 vhcurveto
          82 -2 rmoveto
          67 55 55 65 72 51 -63 -59 -64 -57 -57 -66 -57 -63 53 68 vhcurveto
          endchar
        </CharString>
        <CharString name="asciicircum">
          194 1055 450 hstem
          164 899 vstem
          612 1323 rmoveto
          269 -268 rlineto
          182 hlineto
          -451 450 -448 -450 rlineto
          180 hlineto
          endchar
        </CharString>
        <CharString name="asciitilde">
          345 586 334 hstem
          162 104 1143 107 vstem
          164 401 rmoveto
          80 hlineto
          88 43 49 54 92 hhcurveto
          78 76 -47 -35 80 hvcurveto
          -33 69 68 -27 71 hhcurveto
          156 145 125 201 43 hvcurveto
          -81 hlineto
          -127 -35 -72 -33 -72 hhcurveto
          -59 -59 27 18 -37 hvcurveto
          76 -146 -84 14 -57 hhcurveto
          -213 -100 -208 -93 -35 hvcurveto
          endchar
        </CharString>
        <CharString name="asterisk">
          -38 725 844 hstemhm
          123 749 -448 147 hintmask 11000000
          410 1083 rmoveto
          -8 0 -6 2 -8 vhcurveto
          -172 -43 rlineto
          -80 -21 -37 -45 -53 vvcurveto
          -49 45 -19 45 31 35 29 33 32 vhcurveto
          125 129 10 -10 13 -8 16 -3 rlinecurve
          hintmask 10100000
          -51 -172 rlineto
          -6 -22 -4 -23 -20 vvcurveto
          -59 26 -43 58 53 29 47 61 18 -2 21 -7 20 vhcurveto
          -53 175 14 4 13 6 10 10 rlinecurve
          129 -131 rlineto
          -49 47 31 -8 37 hhcurveto
          hintmask 11000000
          53 20 32 37 51 -38 41 -78 21 hvcurveto
          -178 45 rlineto
          2 6 0 6 8 vvcurveto
          9 -2 6 -3 8 vhcurveto
          181 43 rlineto
          69 16 47 43 60 vvcurveto
          26 -20 37 -53 -56 -28 -28 -31 -31 vhcurveto
          -127 -131 -10 12 -15 6 -14 6 rlinecurve
          hintmask 10100000
          53 174 rlineto
          7 23 2 20 19 vvcurveto
          61 -31 41 -51 -54 -30 -39 -59 -21 4 -22 6 -23 vhcurveto
          51 -172 -16 -4 -15 -8 -10 -10 rlinecurve
          -123 127 rlineto
          31 -30 -21 30 -70 hhcurveto
          hintmask 11000000
          -38 -29 -39 -26 -62 45 -41 72 -16 hvcurveto
          172 -43 rlineto
          -2 -6 0 -8 -9 vvcurveto
          endchar
        </CharString>
        <CharString name="at">
          1005 -244 109 315 99 -50 70 764 61 353 96 hstemhm
          135 125 332 186 1004 121 hintmask 10111111
          1479 971 rmoveto
          -54 -2 -129 -95 rlineto
          109 -73 -109 23 -43 hhcurveto
          -280 -199 -238 -270 -234 147 -114 148 110 72 36 62 66 hvcurveto
          hintmask 11011111
          -98 45 100 -27 82 hhcurveto
          207 334 182 418 422 -338 356 -496 -553 -381 -399 -524 -457 354 -436 594 213 131 53 133 181 hvcurveto
          -60 100 rlineto
          -114 -125 -194 -64 -156 hhcurveto
          -489 -324 381 414 379 264 438 545 416 297 -297 -385 -377 -281 -125 -119 -43 -47 25 86 47 27 82 6 26 hvcurveto
          -205 -157 rmoveto
          hintmask 10111111
          -33 -24 -60 -80 -112 hhcurveto
          -107 -37 86 74 55 6 98 15 68 hvcurveto
          225 51 104 123 111 hhcurveto
          86 74 -72 -104 18 hvcurveto
          endchar
        </CharString>
        <CharString name="atilde">
          5 -14 43 884 -20 270 140 -78 141 hstemhm
          420 725 hintmask 11000000
          170 657 rmoveto
          -82 61 -38 54 77 37 55 51 53 -26 43 -72 11 vhcurveto
          43 12 62 45 94 hhcurveto
          94 70 -60 -141 hvcurveto
          -139 vlineto
          -385 -99 -115 -65 -176 vvcurveto
          -62 31 -125 180 133 98 109 53 58 vhcurveto
          -106 8 51 -41 62 hhcurveto
          106 62 112 95 65 hvcurveto
          -8 18 -18 12 -23 2 rrcurveto
          -28 -18 -39 -52 -27 hhcurveto
          -37 -4 31 25 hvcurveto
          415 vlineto
          211 -80 82 -225 -176 -162 -100 -152 vhcurveto
          463 -432 rmoveto
          -51 -39 -68 -76 -90 hhcurveto
          -55 -47 37 70 100 49 72 250 57 hvcurveto
          hintmask 00011000
          166 907 rmoveto
          -53 -17 -47 -20 -39 -67 -131 61 -90 hhcurveto
          -68 -84 -43 -158 -63 hvcurveto
          55 hlineto
          48 37 34 14 41 hhcurveto
          hintmask 00101000
          33 39 -12 -15 37 hvcurveto
          -14 55 60 -21 53 hhcurveto
          129 63 111 102 31 hvcurveto
          endchar
        </CharString>
        <CharString name="b">
          128 -23 43 -20 -20 1511 -20 hstem
          176 191 -191 199 vstem
          4 1438 rmoveto
          -2 -8 -2 -7 -8 vvcurveto
          -8 2 -8 2 -8 vhcurveto
          86 -5 66 -12 41 -24 rrcurveto
          -158 2 -326 -286 vvcurveto
          -181 0 -202 -2 -99 vhcurveto
          -82 98 131 -45 131 hhcurveto
          350 131 281 233 265 -147 159 -201 -94 -100 -35 -116 -119 hvcurveto
          735 vlineto
          -6 12 -13 8 -16 7 -94 -41 -117 -29 -127 -12 rrcurveto
          590 -660 rmoveto
          166 76 -155 -185 -325 -154 -76 -90 -86 -76 35 84 -49 hvcurveto
          -2 100 -2 201 223 vvcurveto
          59 61 60 39 96 hhcurveto
          endchar
        </CharString>
        <CharString name="backslash">
          235 -426 49 1950 47 hstem
          971 -426 rmoveto
          133 hlineto
          -803 2046 rlineto
          -137 hlineto
          endchar
        </CharString>
        <CharString name="bar">
          -589 -518 49 2341 47 hstem
          164 117 vstem
          164 -477 rmoveto
          117 2294 -117 hlineto
          endchar
        </CharString>
        <CharString name="braceleft">
          -226 -348 49 922 88 923 45 hstem
          299 176 vstem
          102 604 rmoveto
          -45 vlineto
          236 -33 8 -225 -127 -47 -6 -94 -56 vvcurveto
          -174 10 -180 381 -51 vhcurveto
          14 49 rlineto
          -86 10 -112 54 145 78 16 104 123 vvcurveto
          113 -12 233 -315 123 vhcurveto
          315 123 12 234 112 123 -16 104 78 vvcurveto
          146 112 53 86 10 vhcurveto
          -14 49 rlineto
          -381 -51 -10 -180 -174 -55 6 -95 -47 vvcurveto
          -127 -8 -225 -236 -33 vhcurveto
          endchar
        </CharString>
        <CharString name="braceright">
          -226 -348 49 922 88 923 45 hstem
          258 176 vstem
          571 604 rmoveto
          -315 -123 -12 -233 -113 -123 16 -104 -78 vvcurveto
          -145 -113 -54 -86 -10 vhcurveto
          15 -49 rlineto
          381 51 10 180 174 56 -6 94 47 vvcurveto
          127 8 225 236 33 vhcurveto
          90 vlineto
          -236 33 -8 225 127 47 6 95 55 vvcurveto
          174 -10 180 -381 51 vhcurveto
          -15 -49 rlineto
          86 -10 113 -53 -146 -78 -16 -104 -123 vvcurveto
          -112 12 -234 315 -123 vhcurveto
          endchar
        </CharString>
        <CharString name="bracketleft">
          -210 -426 86 1874 86 hstem
          246 198 vstem
          741 1620 rmoveto
          -495 -2046 495 86 -297 1874 297 hlineto
          endchar
        </CharString>
        <CharString name="bracketright">
          -210 -426 86 1874 86 hstem
          379 199 vstem
          82 1620 rmoveto
          -86 297 -1874 -297 -86 496 2046 vlineto
          endchar
        </CharString>
        <CharString name="brokenbar">
          -589 -518 49 2341 47 hstem
          164 117 vstem
          281 1817 rmoveto
          -117 -953 117 hlineto
          -117 -1341 rmoveto
          117 952 -117 hlineto
          endchar
        </CharString>
        <CharString name="bullet">
          -312 553 393 hstem
          164 393 vstem
          164 729 rmoveto
          -108 84 -89 112 109 88 89 108 113 -88 84 -109 -110 -86 -86 -111 vhcurveto
          endchar
        </CharString>
        <CharString name="c">
          -50 -37 43 916 -20 hstem
          883 260 rmoveto
          -61 -47 -74 -103 -160 hhcurveto
          -201 -71 150 178 362 151 58 107 106 41 -51 -21 6 hvcurveto
          -39 -10 -38 -27 -59 vvcurveto
          -53 45 -52 75 68 53 52 71 125 -129 90 -188 -260 -205 -190 -295 -326 219 -127 197 151 162 78 189 70 vhcurveto
          -9 10 -12 8 -18 4 rrcurveto
          endchar
        </CharString>
        <CharString name="caron">
          69 1163 353 hstem
          463 624 vstem
          551 1221 rmoveto
          -242 178 rlineto
          -73 hlineto
          256 -332 rlineto
          118 hlineto
          256 332 rlineto
          -73 hlineto
          endchar
        </CharString>
        <CharString name="ccedilla">
          -50 -389 51 209 47 45 43 916 -20 hstemhm
          272 113 213 84 hintmask 00110000
          883 260 rmoveto
          -61 -47 -74 -103 -160 hhcurveto
          -201 -71 150 178 362 151 58 107 106 41 -51 -21 6 hvcurveto
          -39 -10 -38 -27 -59 vvcurveto
          -53 45 -52 75 68 53 52 71 125 -129 90 -188 -260 -205 -190 -295 -326 219 -127 197 151 162 78 189 70 vhcurveto
          -9 10 -12 8 -18 4 rrcurveto
          hintmask 11001100
          -387 -260 rmoveto
          -58 -188 rlineto
          10 37 27 4 32 hhcurveto
          60 37 -27 -55 -53 -41 -41 -68 -39 -53 6 41 -39 hvcurveto
          -27 -31 rlineto
          -63 41 72 -31 80 hhcurveto
          149 78 86 90 94 -67 49 -101 -30 -21 -2 -2 -14 hvcurveto
          37 113 rlineto
          endchar
        </CharString>
        <CharString name="cedilla">
          22 -389 51 209 47 hstem
          225 113 213 84 vstem
          449 hmoveto
          -58 -188 rlineto
          10 37 27 4 32 hhcurveto
          60 37 -27 -55 -53 -41 -41 -68 -39 -53 6 41 -39 hvcurveto
          -27 -31 rlineto
          -63 41 72 -31 80 hhcurveto
          149 78 86 90 94 -67 49 -101 -30 -21 -2 -2 -14 hvcurveto
          37 113 rlineto
          endchar
        </CharString>
        <CharString name="cent">
          -158 49 91 108 748 71 103 45 hstem
          244 192 187 73 103 176 vstem
          913 260 rmoveto
          -61 -47 -78 -107 -174 hhcurveto
          752 vlineto
          103 -2 49 -49 6 -21 rrcurveto
          -39 -10 -26 -29 -59 vvcurveto
          -53 32 -50 76 68 53 52 71 123 -135 90 -187 2 vhcurveto
          142 -77 -148 vlineto
          -224 -33 -159 -180 -266 vvcurveto
          -307 194 -131 189 -13 vhcurveto
          -137 77 137 vlineto
          138 15 137 80 63 170 -8 10 -12 8 -19 4 rrcurveto
          -376 574 rmoveto
          -728 vlineto
          -129 41 -52 129 148 vvcurveto
          283 90 98 91 29 vhcurveto
          endchar
        </CharString>
        <CharString name="circumflex">
          69 1163 353 hstem
          463 624 vstem
          551 1245 rmoveto
          242 -178 rlineto
          73 hlineto
          -256 332 rlineto
          -118 hlineto
          -256 -332 rlineto
          73 hlineto
          endchar
        </CharString>
        <CharString name="colon">
          -455 -18 249 435 249 hstem
          164 250 vstem
          164 770 rmoveto
          -68 55 -57 70 69 56 57 68 70 -56 55 -69 -70 -55 -55 -70 vhcurveto
          -674 vmoveto
          -69 55 -56 70 69 56 56 69 70 -56 55 -69 -70 -55 -55 -70 vhcurveto
          endchar
        </CharString>
        <CharString name="comma">
          -455 -285 49 218 245 hstem
          162 276 vstem
          215 -262 rmoveto
          107 69 92 152 127 vvcurveto
          102 -66 33 -67 -70 -47 -63 -60 -80 39 -38 90 vhcurveto
          4 -7 -10 -41 -17 -57 -106 -92 rlinecurve
          endchar
        </CharString>
        <CharString name="copyright">
          829 -18 96 268 72 774 55 295 96 hstem
          102 99 299 157 535 55 416 96 vstem
          102 791 rmoveto
          -459 371 -371 459 457 370 371 459 456 -370 371 -457 -459 -371 -371 -456 vhcurveto
          99 hmoveto
          426 348 305 383 381 350 -312 -419 -426 -350 -308 -381 -383 -348 305 429 vhcurveto
          1050 -246 rmoveto
          -121 -131 -112 -6 -43 hhcurveto
          -168 -117 106 271 104 8 293 242 108 103 -57 -209 88 hvcurveto
          31 10 rlineto
          -19 57 -20 90 78 vvcurveto
          13 0 14 2 12 vhcurveto
          25 -117 -35 22 -147 hhcurveto
          -250 -174 -186 -273 -100 43 -342 379 86 153 37 131 123 hvcurveto
          endchar
        </CharString>
        <CharString name="currency">
          176 98 797 98 hstem
          57 99 796 99 vstem
          932 1178 rmoveto
          -146 -146 rlineto
          64 -79 -101 20 -74 hhcurveto
          -94 -88 -31 -55 -76 hvcurveto
          -143 148 -82 -80 148 -148 rlineto
          -64 -82 -24 -98 -74 vvcurveto
          -90 36 -92 52 -74 vhcurveto
          -148 -147 82 -80 143 147 rlineto
          -51 74 92 -37 92 hhcurveto
          74 101 23 65 79 hvcurveto
          146 -147 84 80 -150 147 rlineto
          70 86 18 97 73 vvcurveto
          76 -14 96 -72 84 vhcurveto
          148 146 rlineto
          -793 -402 rmoveto
          172 137 138 172 173 137 -138 -172 -172 -137 -139 -173 -172 -137 139 172 vhcurveto
          endchar
        </CharString>
        <CharString name="d">
          159 -16 43 -41 43 -29 -20 1472 -20 hstem
          754 190 -182 182 vstem
          586 1438 rmoveto
          -2 -8 -2 -7 -8 vvcurveto
          -8 2 -8 2 -8 vhcurveto
          86 -5 65 -12 41 -24 rrcurveto
          -105 0 -178 2 -190 vhcurveto
          18 -57 -57 14 -62 hhcurveto
          -350 -131 -284 -222 -272 147 -160 201 90 98 47 115 117 hvcurveto
          -65 0 -19 -4 -24 vhcurveto
          6 -15 0 -6 19 -10 rrcurveto
          4 82 34 4 35 hhcurveto
          41 37 -4 -4 90 hvcurveto
          2 8 2 6 8 vvcurveto
          9 -2 8 -2 8 vhcurveto
          -53 8 -94 14 -2 74 rrcurveto
          -9 223 0 697 436 vvcurveto
          -6 12 -12 8 -16 7 -95 -41 -116 -29 -127 -12 rrcurveto
          -19 -1336 rmoveto
          -166 -75 156 184 338 153 64 90 86 76 -35 -84 49 hvcurveto
          -145 vlineto
          -142 0 -131 -2 -98 vhcurveto
          -59 -61 -68 -48 -82 hhcurveto
          endchar
        </CharString>
        <CharString name="degree">
          -242 1178 84 290 86 hstem
          164 86 291 86 vstem
          164 1280 rmoveto
          -129 106 -100 125 125 107 100 129 127 -107 104 -125 -125 -106 -104 -127 vhcurveto
          86 hmoveto
          59 47 86 98 92 54 -77 -68 -78 -70 -67 -76 -84 -61 73 72 vhcurveto
          endchar
        </CharString>
        <CharString name="dieresis">
          91 1163 223 hstem
          463 221 137 223 vstem
          256 1239 rmoveto
          -68 53 -53 68 65 54 53 68 66 -54 53 -65 -68 -53 -53 -66 vhcurveto
          373 hmoveto
          -68 53 -53 66 67 53 53 68 66 -53 53 -67 -66 -53 -53 -66 vhcurveto
          endchar
        </CharString>
        <CharString name="divide">
          431 307 268 140 98 137 271 hstem
          606 268 vstem
          606 1042 rmoveto
          -73 60 -62 73 76 59 62 73 74 -59 62 -76 -73 -60 -62 -74 vhcurveto
          -661 vmoveto
          -74 60 -61 73 76 59 61 74 74 -59 59 -76 -73 -60 -59 -74 vhcurveto
          694 272 rmoveto
          115 -1136 -115 vlineto
          endchar
        </CharString>
        <CharString name="dollar">
          -113 -21 118 82 1304 78 141 -20 hstemhm
          137 139 224 75 277 147 -143 68 hintmask 11111101
          887 1071 rmoveto
          -2 8 6 -2 8 hhcurveto
          9 4 2 2 6 hvcurveto
          -13 55 -6 72 74 vvcurveto
          47 2 47 7 45 vhcurveto
          -74 33 -121 51 -143 6 rrcurveto
          129 -82 -129 vlineto
          -179 -14 -208 -98 -297 vvcurveto
          -246 157 -105 230 -67 vhcurveto
          -641 vlineto
          -158 4 -176 90 -51 350 rrcurveto
          4 -9 -6 2 -8 hhcurveto
          -6 -6 -2 -4 -8 hvcurveto
          14 -98 6 -76 -82 vvcurveto
          -45 -2 -51 -2 -51 vhcurveto
          94 -49 152 -62 166 -4 rrcurveto
          -133 82 139 vlineto
          hintmask 11111110
          196 27 223 143 285 vvcurveto
          280 -221 99 -198 55 vhcurveto
          576 vlineto
          151 -17 111 -115 45 -227 rrcurveto
          -84 -741 rmoveto
          -150 -78 -114 -145 -27 vhcurveto
          610 vlineto
          178 -61 45 -96 -162 vvcurveto
          -524 860 rmoveto
          129 77 92 142 16 vhcurveto
          -550 vlineto
          -213 69 -6 103 141 vvcurveto
          endchar
        </CharString>
        <CharString name="dotlessi">
          -359 0 41 -26 -21 782 47 hstemhm
          270 179 hintmask 10110000
          76 823 rmoveto
          -2 -8 -2 -6 -8 vvcurveto
          -8 2 -9 2 -8 vhcurveto
          86 -4 65 -12 41 -25 rrcurveto
          -157 2 -95 -106 vvcurveto
          -68 0 -73 -4 -99 vhcurveto
          -2 -74 -106 -14 -62 -8 rrcurveto
          hintmask 01110000
          -2 -10 -2 -6 -9 vvcurveto
          -8 2 -6 2 -8 vhcurveto
          hintmask 10110000
          4 88 84 2 82 hhcurveto
          84 84 -2 -4 88 hvcurveto
          hintmask 01110000
          4 6 2 8 8 vvcurveto
          9 -2 8 -4 8 vhcurveto
          -53 8 -94 14 -2 74 rrcurveto
          -8 223 0 82 437 vvcurveto
          -7 12 -12 8 -16 6 -95 -41 -116 -28 -127 -13 rrcurveto
          endchar
        </CharString>
        <CharString name="e">
          -34 -14 43 876 -20 hstem
          860 530 rmoveto
          10 31 7 35 37 vvcurveto
          137 -78 139 -230 -247 -199 -200 -285 -326 215 -127 197 151 162 78 189 70 vhcurveto
          -9 10 -12 8 -18 4 rrcurveto
          -61 -48 -49 -103 -159 hhcurveto
          -189 -119 131 197 -4 hvcurveto
          10 vlineto
          35 2 31 2 30 vhcurveto
          230 314 rmoveto
          114 37 -88 -92 -23 -4 -20 -6 -23 hvcurveto
          -360 hlineto
          178 39 98 68 82 hhcurveto
          endchar
        </CharString>
        <CharString name="eacute">
          -34 -14 43 876 -20 278 385 hstemhm
          127 419 hintmask 11000000
          860 530 rmoveto
          10 31 7 35 37 vvcurveto
          137 -78 139 -230 -247 -199 -200 -285 -326 215 -127 197 151 162 78 189 70 vhcurveto
          -9 10 -12 8 -18 4 rrcurveto
          -61 -48 -49 -103 -159 hhcurveto
          -189 -119 131 197 -4 hvcurveto
          10 vlineto
          35 2 31 2 30 vhcurveto
          230 314 rmoveto
          114 37 -88 -92 -23 -4 -20 -6 -23 hvcurveto
          -360 hlineto
          178 39 98 68 82 hhcurveto
          hintmask 00110000
          -91 276 rmoveto
          29 -37 283 177 41 26 16 10 14 13 rlinecurve
          21 18 16 21 34 vvcurveto
          52 -35 34 -51 -35 -30 -16 -31 -27 vhcurveto
          endchar
        </CharString>
        <CharString name="ecircumflex">
          -34 -14 43 876 -20 278 353 hstemhm
          453 624 hintmask 11000000
          860 530 rmoveto
          10 31 7 35 37 vvcurveto
          137 -78 139 -230 -247 -199 -200 -285 -326 215 -127 197 151 162 78 189 70 vhcurveto
          -9 10 -12 8 -18 4 rrcurveto
          -61 -48 -49 -103 -159 hhcurveto
          -189 -119 131 197 -4 hvcurveto
          10 vlineto
          35 2 31 2 30 vhcurveto
          230 314 rmoveto
          114 37 -88 -92 -23 -4 -20 -6 -23 hvcurveto
          -360 hlineto
          178 39 98 68 82 hhcurveto
          hintmask 00110000
          -4 401 rmoveto
          242 -178 rlineto
          73 hlineto
          -256 332 rlineto
          -118 hlineto
          -256 -332 rlineto
          73 hlineto
          endchar
        </CharString>
        <CharString name="edieresis">
          -34 -14 43 876 -20 278 223 hstemhm
          422 221 137 223 hintmask 11000000
          860 530 rmoveto
          10 31 7 35 37 vvcurveto
          137 -78 139 -230 -247 -199 -200 -285 -326 215 -127 197 151 162 78 189 70 vhcurveto
          -9 10 -12 8 -18 4 rrcurveto
          -61 -48 -49 -103 -159 hhcurveto
          -189 -119 131 197 -4 hvcurveto
          10 vlineto
          35 2 31 2 30 vhcurveto
          230 314 rmoveto
          114 37 -88 -92 -23 -4 -20 -6 -23 hvcurveto
          -360 hlineto
          178 39 98 68 82 hhcurveto
          hintmask 00111000
          -330 395 rmoveto
          -68 53 -53 68 65 54 53 68 66 -54 53 -65 -68 -53 -53 -66 vhcurveto
          373 hmoveto
          -68 53 -53 66 67 53 53 68 66 -53 53 -67 -66 -53 -53 -66 vhcurveto
          endchar
        </CharString>
        <CharString name="egrave">
          -34 -14 43 876 -20 278 385 hstemhm
          95 419 hintmask 11000000
          860 530 rmoveto
          10 31 7 35 37 vvcurveto
          137 -78 139 -230 -247 -199 -200 -285 -326 215 -127 197 151 162 78 189 70 vhcurveto
          -9 10 -12 8 -18 4 rrcurveto
          -61 -48 -49 -103 -159 hhcurveto
          -189 -119 131 197 -4 hvcurveto
          10 vlineto
          35 2 31 2 30 vhcurveto
          230 314 rmoveto
          114 37 -88 -92 -23 -4 -20 -6 -23 hvcurveto
          -360 hlineto
          178 39 98 68 82 hhcurveto
          hintmask 00110000
          -139 577 rmoveto
          31 -27 -30 16 -35 hhcurveto
          -51 -35 -34 -52 -34 16 -21 21 -18 hvcurveto
          14 -13 16 -10 41 -26 283 -177 rcurveline
          29 37 rlineto
          endchar
        </CharString>
        <CharString name="eight">
          6 43 1309 -20 hstem
          362 709 rmoveto
          -15 vlineto
          0 -270 -53 -291 vvcurveto
          -282 273 -97 157 197 254 111 287 282 -275 45 0 vhcurveto
          13 vlineto
          0 230 79 271 vvcurveto
          325 -287 37 -115 -57 -354 -18 -367 -278 247 -49 0 vhcurveto
          162 26 rmoveto
          -65 -129 33 266 219 78 103 114 129 62 -115 -182 -133 -35 -191 -154 hvcurveto
          -65 vmoveto
          60 174 -17 -288 -265 -107 -63 -127 -98 -119 63 250 242 129 78 88 hvcurveto
          endchar
        </CharString>
        <CharString name="emdash">
          1406 371 114 hstem
          164 412 rmoveto
          2111 114 -2111 hlineto
          endchar
        </CharString>
        <CharString name="endash">
          722 371 114 hstem
          164 412 rmoveto
          1427 114 -1427 hlineto
          endchar
        </CharString>
        <CharString name="equal">
          431 500 98 272 97 hstem
          1300 469 rmoveto
          115 -1136 -115 vlineto
          1136 369 rmoveto
          114 -1136 -114 vlineto
          endchar
        </CharString>
        <CharString name="eth">
          93 -16 63 694 64 463 -20 hstem
          53 172 434 172 vstem
          391 1065 rmoveto
          166 168 96 -115 66 -143 16 -113 rlinecurve
          29 -39 -78 18 -67 hhcurveto
          -336 -92 -286 -183 -368 258 -101 170 182 250 117 350 320 -49 274 -295 279 hvcurveto
          152 151 -62 54 -160 -156 -73 53 -119 66 -82 37 rlinecurve
          -31 -52 55 -37 103 -63 74 -76 rlinecurve
          -164 -160 rlineto
          219 -284 rmoveto
          125 100 -109 -297 -131 -20 -270 -205 -199 -22 270 131 152 28 254 193 hvcurveto
          endchar
        </CharString>
        <CharString name="exclam">
          -316 -35 250 hstemhm
          233 250 -168 88 hintmask 00100000
          397 348 rmoveto
          9 141 rlineto
          26 451 53 295 154 vvcurveto
          104 -92 10 -35 -34 -93 -10 -104 -154 66 -293 16 -453 vhcurveto
          6 -141 rlineto
          hintmask 11000000
          -86 -252 rmoveto
          -69 56 -56 69 70 55 56 69 70 -55 55 -70 -69 -56 -55 -70 vhcurveto
          endchar
        </CharString>
        <CharString name="exclamdown">
          -316 -35 250 hstemhm
          233 250 -168 88 hintmask 00100000
          319 1126 rmoveto
          -8 -141 rlineto
          -26 -450 -54 -295 -154 vvcurveto
          -104 93 -11 34 35 92 11 104 154 -65 292 -17 453 vhcurveto
          -6 141 rlineto
          hintmask 11000000
          86 252 rmoveto
          70 -55 55 -70 -69 -56 -55 -70 -69 56 -56 69 70 55 56 69 vhcurveto
          endchar
        </CharString>
        <CharString name="f">
          -292 23 43 1417 -20 hstem
          242 190 vstem
          639 -6 rmoveto
          2 6 2 6 8 vvcurveto
          9 -2 8 -2 10 vhcurveto
          -78 8 -123 14 -2 74 rrcurveto
          -6 117 -2 256 278 vvcurveto
          217 hlineto
          4 11 2 12 12 vvcurveto
          15 -2 12 -4 10 vhcurveto
          -217 338 hlineto
          148 96 92 119 74 33 -6 -46 28 vhcurveto
          -45 -16 -22 -43 -35 vvcurveto
          -53 43 -41 73 76 49 64 67 117 -110 74 -135 -310 -147 -267 -288 vhcurveto
          -105 -135 vlineto
          -4 -10 -2 -12 -15 vvcurveto
          -12 2 -12 4 -11 vhcurveto
          135 -208 hlineto
          -181 0 -163 -4 -99 vhcurveto
          -2 -74 -107 -14 -61 -8 rrcurveto
          -2 -10 -2 -6 -9 vvcurveto
          -8 2 -6 2 -8 vhcurveto
          4 88 84 2 82 hhcurveto
          84 137 -2 -4 88 hvcurveto
          endchar
        </CharString>
        <CharString name="five">
          -426 43 1554 -20 hstem
          858 754 rmoveto
          80 307 rlineto
          8 -10 -19 6 -20 hhcurveto
          -59 -29 -35 -66 -145 hhcurveto
          -377 hlineto
          0 -35 -358 -75 -236 vhcurveto
          18 -39 14 -12 31 -6 rrcurveto
          231 228 -35 -258 -317 -191 -99 -168 -137 -33 54 8 -4 hvcurveto
          0 86 35 77 vvcurveto
          78 -53 54 -76 -84 -51 -60 -74 -88 82 -149 281 280 262 219 303 365 -256 90 -323 vhcurveto
          43 252 rlineto
          endchar
        </CharString>
        <CharString name="foundryicon">
          2535 -563 74 493 109 -97 119 -111 72 -59 41 -41 65 744 63 250 70 -10 176 -43 110 -69 69 0 -20 hstemhm
          121 269 198 145 -104 219 -129 227 119 211 240 10 141 207 39 209 90 86 47 185 84 206 98 236 104 133 hintmask 10100010100111001111111110000000
          hintmask 00000000010000000000010000000000
          1253 813 rmoveto
          -53 57 -115 48 -71 -9 rrcurveto
          hintmask 00000000100000000000010000000000
          24 -153 60 -312 -56 -254 rrcurveto
          hintmask 00000000001000000000010000000000
          -4 -14 -8 -33 -31 -8 -59 189 0 211 12 221 rrcurveto
          hintmask 00000000100000000000010000000000
          -53 49 -100 18 -41 8 rrcurveto
          -25 -47 -14 -69 -103 vvcurveto
          -108 8 -111 29 -94 vhcurveto
          hintmask 00000101000000000101000000000000
          -31 -68 -66 -118 -106 -35 -260 186 96 830 135 125 35 -43 43 -172 -18 -109 -4 -12 0 -21 24 27 rrcurveto
          76 65 53 82 99 vvcurveto
          256 -186 45 -123 26 vhcurveto
          -225 -196 -80 -338 2 -334 rrcurveto
          -291 6 123 -299 311 hhcurveto
          137 68 98 82 29 hvcurveto
          -88 43 67 -59 99 hhcurveto
          hintmask 00001000000000000000001000000000
          26 25 20 17 10 hvcurveto
          -33 -271 -4 -182 -170 -110 rrcurveto
          hintmask 00100000000000000000000010000000
          -20 75 14 107 10 78 rrcurveto
          55 -55 -82 20 -66 hhcurveto
          -16 -55 -14 -61 -66 vvcurveto
          -147 37 -80 143 408 114 723 653 -78 vhcurveto
          hintmask 00010010000000000000011110000000
          33 37 rmoveto
          88 -215 10 -365 15 -243 92 -17 55 64 25 84 rrcurveto
          20 59 0 113 69 vvcurveto
          19 76 57 55 21 56 16 -111 65 -43 115 31 -18 98 8 135 18 99 -28 51 -80 24 -86 9 rrcurveto
          -15 -33 -16 -62 -36 vvcurveto
          -18 -56 -31 -61 -47 -88 -8 108 -27 78 -31 55 -23 26 -30 17 -35 7 -33 8 -43 5 -55 3 rrcurveto
          hintmask 10000110010000001000100000000000
          1266 -737 rmoveto
          -55 172 59 309 61 76 -6 -76 -2 -188 37 -150 -4 -57 -57 -58 -33 -28 rrcurveto
          602 422 rmoveto
          10 213 41 245 41 166 31 -164 -31 -327 -92 -133 rrcurveto
          -977 155 rmoveto
          14 -28 21 -60 -59 vvcurveto
          hintmask 00100000000000011000000000000000
          -101 -29 -118 -61 -9 vhcurveto
          129 18 134 37 112 vhcurveto
          293 662 rmoveto
          0 2 0 -2 2 vhcurveto
          -35 hlineto
          8 39 rlineto
          hintmask 00001000100010010000000000000000
          0 6 2 -8 vhcurveto
          -35 -13 rlineto
          hintmask 01000000000111000000000000000000
          11 -16 -18 2 -21 hhcurveto
          -51 -51 -35 -60 -17 hvcurveto
          -30 -30 -195 -31 -197 -37 rrcurveto
          -38 -242 21 6 -4 hvcurveto
          -10 -5 -12 -9 11 hvcurveto
          53 -49 133 6 39 -35 82 -98 98 -96 111 -23 rrcurveto
          hintmask 10010000000000100000000000000000
          8 -28 12 -29 13 -25 -23 3 -25 0 -24 -3 -51 -83 -31 -177 -4 -149 rrcurveto
          -199 -12 73 -186 213 hhcurveto
          90 8 60 64 35 55 rrcurveto
          -74 20 57 -53 107 hhcurveto
          53 6 70 43 14 57 rrcurveto
          hintmask 10000110010000001000100000000000
          -57 25 61 -70 78 hhcurveto
          hintmask 01000000000000000000011000000000
          68 49 62 63 16 hvcurveto
          -80 47 74 -45 100 hhcurveto
          221 41 271 159 -10 hvcurveto
          -8 -6 3 -7 -15 hvcurveto
          -43 -174 -65 -110 -82 -62 rrcurveto
          -59 86 -27 115 141 vvcurveto
          hintmask 00010000000000000010000000000000
          152 70 81 283 235 vvcurveto
          248 -65 106 -240 39 vhcurveto
          -161 -291 -48 -510 78 -378 6 -29 rcurveline
          -18 -33 -45 -92 -39 10 -59 203 18 332 31 215 -31 33 -104 43 -45 -13 -17 -12 -22 -113 -7 -20 rrcurveto
          16 -43 -55 11 -47 hhcurveto
          -94 -101 -33 -137 -6 -147 rrcurveto
          hintmask 01000000000000000000011000000000
          -109 vlineto
          hintmask 00000010000000000001100110000000
          -27 -66 -45 -96 -80 -33 -39 25 -14 57 -14 58 rrcurveto
          112 34 60 156 139 vvcurveto
          121 -45 76 -74 37 vhcurveto
          -2 2 0 0 2 vvcurveto
          -16 29 -19 36 -18 37 192 31 64 250 61 125 rrcurveto
          -293 -500 rmoveto
          -18 6 -19 2 -20 4 -25 80 rcurveline
          31 hlineto
          14 -35 19 -32 18 -25 rrcurveto
          endchar
        </CharString>
        <CharString name="four">
          11 -373 43 383 219 785 -20 hstem
          805 958 rmoveto
          15 -14 -19 8 -31 hhcurveto
          -733 -922 rlineto
          -24 10 -27 17 -8 vhcurveto
          565 -438 205 438 hlineto
          0 235 0 2 vvcurveto
          2 29 182 0 vhcurveto
          0 -264 0 2 vvcurveto
          -201 474 rmoveto
          -476 -377 vlineto
          endchar
        </CharString>
        <CharString name="foursuperior">
          -316 723 -21 191 70 489 -20 hstem
          322 135 vstem
          934 vmoveto
          332 -201 157 201 111 90 -111 446 -63 hlineto
          -426 -493 rlineto
          125 47 rmoveto
          207 223 rlineto
          -223 vlineto
          endchar
        </CharString>
        <CharString name="fraction">
          -814 -426 49 1950 47 hstem
          -215 -135 rmoveto
          741 1675 -96 25 -737 -1676 rlineto
          endchar
        </CharString>
        <CharString name="g">
          20 -539 43 1411 -20 hstem
          844 596 rmoveto
          72 -25 75 -51 45 vhcurveto
          4 5 rlineto
          -41 66 39 -41 65 hhcurveto
          53 37 47 53 53 -47 49 -49 -57 -35 -45 -49 -6 hvcurveto
          49 -172 -25 41 -156 hhcurveto
          -209 -153 -172 -155 -111 33 -106 147 -82 hvcurveto
          -80 -60 -82 -71 -86 vvcurveto
          -82 68 -50 125 -18 vhcurveto
          -137 -74 -60 -96 -84 vvcurveto
          -119 109 -106 246 311 211 246 170 104 -41 125 -238 vhcurveto
          -67 -64 -4 -49 hhcurveto
          -188 -62 28 58 35 21 34 39 25 hvcurveto
          -4 24 62 -6 43 hhcurveto
          186 164 129 219 hvcurveto
          -522 -862 rmoveto
          69 36 66 62 43 vhcurveto
          55 125 8 66 hhcurveto
          174 24 -78 -94 -67 -73 -160 -234 -178 -57 112 101 hvcurveto
          4 846 rmoveto
          198 75 66 80 62 98 -47 -199 -213 -61 -72 -95 -77 -82 49 218 vhcurveto
          endchar
        </CharString>
        <CharString name="germandbls">
          151 -18 57 -39 68 755 68 657 72 hstemhm
          166 172 131 184 131 195 hintmask 10111110
          240 580 rmoveto
          -181 0 -163 -4 -99 vhcurveto
          -3 -74 -106 -14 -61 -8 rrcurveto
          -3 -10 -2 -6 -9 vvcurveto
          -8 2 -6 3 -8 vhcurveto
          hintmask 01111110
          4 88 84 2 81 hhcurveto
          115 hlineto
          -8 137 rlineto
          -6 135 -2 314 323 vvcurveto
          291 vlineto
          225 123 29 77 150 8 -170 -94 -178 -33 -178 -211 vhcurveto
          -24 -62 29 hlineto
          294 23 -207 -151 -340 -51 -41 -72 -31 -20 12 14 -10 hvcurveto
          43 25 12 25 41 vvcurveto
          53 -45 26 -43 -43 -51 -22 -78 -70 47 -88 147 215 109 238 205 245 -117 146 -215 12 vhcurveto
          8 vlineto
          199 56 49 153 156 vvcurveto
          250 -203 80 -156 -114 -264 -41 -357 vhcurveto
          endchar
        </CharString>
        <CharString name="grave">
          -40 1163 385 hstem
          154 419 vstem
          465 1421 rmoveto
          31 -27 -30 16 -35 hhcurveto
          -51 -35 -34 -52 -34 16 -21 21 -18 hvcurveto
          14 -13 16 -10 41 -26 283 -177 rcurveline
          29 37 rlineto
          endchar
        </CharString>
        <CharString name="greater">
          530 190 1129 hstem
          164 1358 vstem
          164 307 rmoveto
          49 -108 1186 514 -1186 514 -49 -109 946 -403 rlineto
          endchar
        </CharString>
        <CharString name="guillemotleft">
          81 43 49 666 45 hstem
          162 788 vstem
          358 424 rmoveto
          213 334 -57 45 -352 -379 352 -381 57 47 rlineto
          168 334 rmoveto
          211 334 -57 45 -352 -379 352 -381 57 47 rlineto
          endchar
        </CharString>
        <CharString name="guillemotright">
          83 43 49 666 45 hstem
          164 788 vstem
          377 424 rmoveto
          -213 -334 57 -47 352 381 -352 379 -57 -45 rlineto
          592 -334 rmoveto
          -213 -334 59 -47 350 381 -350 379 -59 -45 rlineto
          endchar
        </CharString>
        <CharString name="guilsinglleft">
          -296 90 49 664 47 hstem
          164 424 vstem
          365 424 rmoveto
          208 334 -57 45 -352 -379 352 -381 57 47 rlineto
          endchar
        </CharString>
        <CharString name="guilsinglright">
          -296 90 49 664 47 hstem
          164 424 vstem
          164 90 rmoveto
          57 -47 352 381 -352 379 -57 -45 209 -334 rlineto
          endchar
        </CharString>
        <CharString name="h">
          192 0 41 -26 -21 799 116 482 47 hstemhm
          260 178 391 187 hintmask 10111100
          698 41 rmoveto
          hintmask 01111100
          -2 -8 -2 -6 -9 vvcurveto
          -8 2 -8 2 -8 vhcurveto
          hintmask 10111100
          4 86 74 2 76 hhcurveto
          74 75 -2 -4 86 hvcurveto
          hintmask 01111100
          2 6 3 6 8 vvcurveto
          hintmask 10111100
          9 -3 8 -2 10 vhcurveto
          -53 8 -94 14 -2 74 -8 508 rcurveline
          176 -2 -54 88 -155 hhcurveto
          -133 -125 -94 -90 -105 hvcurveto
          768 vlineto
          -6 12 -12 8 -17 7 -94 -41 -116 -29 -127 -12 rrcurveto
          -3 -8 -2 -7 -8 vvcurveto
          -8 2 -8 3 -8 vhcurveto
          86 -5 65 -12 41 -24 rrcurveto
          -158 2 -326 -286 vvcurveto
          -181 0 -163 -4 -99 vhcurveto
          -2 -74 -107 -14 -61 -8 rrcurveto
          -2 -10 -2 -6 -9 vvcurveto
          hintmask 01111100
          -8 2 -6 2 -8 vhcurveto
          4 88 84 2 82 hhcurveto
          hintmask 10111100
          84 84 -2 -4 88 hvcurveto
          4 6 2 8 8 vvcurveto
          hintmask 01111100
          9 -2 8 -4 8 vhcurveto
          -53 8 -94 14 -3 74 -4 101 -2 198 -2 226 rrcurveto
          77 107 98 54 78 hhcurveto
          76 32 -62 -119 hvcurveto
          -2 -475 rlineto
          -74 -75 -14 -54 -8 vhcurveto
          endchar
        </CharString>
        <CharString name="hyphen">
          -97 334 151 hstem
          164 412 rmoveto
          608 125 -608 hlineto
          endchar
        </CharString>
        <CharString name="i">
          -359 0 41 -26 -21 782 47 295 246 hstemhm
          233 246 -209 179 hintmask 10110100
          76 823 rmoveto
          -2 -8 -2 -6 -8 vvcurveto
          -8 2 -9 2 -8 vhcurveto
          86 -4 65 -12 41 -25 rrcurveto
          -157 2 -95 -106 vvcurveto
          -68 0 -73 -4 -99 vhcurveto
          -2 -74 -106 -14 -62 -8 rrcurveto
          hintmask 01110100
          -2 -10 -2 -6 -9 vvcurveto
          -8 2 -6 2 -8 vhcurveto
          hintmask 10110100
          4 88 84 2 82 hhcurveto
          84 84 -2 -4 88 hvcurveto
          hintmask 01110100
          4 6 2 8 8 vvcurveto
          9 -2 8 -4 8 vhcurveto
          -53 8 -94 14 -2 74 rrcurveto
          -8 223 0 82 437 vvcurveto
          -7 12 -12 8 -16 6 -95 -41 -116 -28 -127 -13 rrcurveto
          hintmask 10110100
          157 418 rmoveto
          hintmask 10111000
          -67 56 -56 67 68 55 56 67 68 -55 55 -68 -67 -56 -55 -68 vhcurveto
          endchar
        </CharString>
        <CharString name="iacute">
          -359 1163 385 hstem
          -139 419 vstem
          188 1120 rmoveto
          29 -37 283 177 41 26 16 10 14 13 rlinecurve
          21 18 16 21 34 vvcurveto
          52 -35 34 -51 -35 -30 -16 -31 -27 vhcurveto
          -354 -598 rmoveto
          -2 -8 -2 -6 -8 vvcurveto
          -8 2 -9 2 -8 vhcurveto
          86 -4 65 -12 41 -25 rrcurveto
          -157 2 -95 -106 vvcurveto
          -68 0 -73 -4 -99 vhcurveto
          -2 -74 -106 -14 -62 -8 rrcurveto
          -2 -10 -2 -6 -9 vvcurveto
          -8 2 -6 2 -8 vhcurveto
          4 88 84 2 82 hhcurveto
          84 84 -2 -4 88 hvcurveto
          4 6 2 8 8 vvcurveto
          9 -2 8 -4 8 vhcurveto
          -53 8 -94 14 -2 74 rrcurveto
          -8 223 0 82 437 vvcurveto
          -7 12 -12 8 -16 6 -95 -41 -116 -28 -127 -13 rrcurveto
          endchar
        </CharString>
        <CharString name="icircumflex">
          -359 1163 353 hstem
          240 624 vstem
          328 1245 rmoveto
          242 -178 rlineto
          73 hlineto
          -256 332 rlineto
          -118 hlineto
          -256 -332 rlineto
          73 hlineto
          -10 -244 rmoveto
          -2 -8 -2 -6 -8 vvcurveto
          -8 2 -9 2 -8 vhcurveto
          86 -4 65 -12 41 -25 rrcurveto
          -157 2 -95 -106 vvcurveto
          -68 0 -73 -4 -99 vhcurveto
          -2 -74 -106 -14 -62 -8 rrcurveto
          -2 -10 -2 -6 -9 vvcurveto
          -8 2 -6 2 -8 vhcurveto
          4 88 84 2 82 hhcurveto
          84 84 -2 -4 88 hvcurveto
          4 6 2 8 8 vvcurveto
          9 -2 8 -4 8 vhcurveto
          -53 8 -94 14 -2 74 rrcurveto
          -8 223 0 82 437 vvcurveto
          -7 12 -12 8 -16 6 -95 -41 -116 -28 -127 -13 rrcurveto
          endchar
        </CharString>
        <CharString name="idieresis">
          -359 1163 223 hstem
          217 221 137 223 vstem
          10 1239 rmoveto
          -68 53 -53 68 65 54 53 68 66 -54 53 -65 -68 -53 -53 -66 vhcurveto
          373 hmoveto
          -68 53 -53 66 67 53 53 68 66 -53 53 -67 -66 -53 -53 -66 vhcurveto
          -307 -416 rmoveto
          -2 -8 -2 -6 -8 vvcurveto
          -8 2 -9 2 -8 vhcurveto
          86 -4 65 -12 41 -25 rrcurveto
          -157 2 -95 -106 vvcurveto
          -68 0 -73 -4 -99 vhcurveto
          -2 -74 -106 -14 -62 -8 rrcurveto
          -2 -10 -2 -6 -9 vvcurveto
          -8 2 -6 2 -8 vhcurveto
          4 88 84 2 82 hhcurveto
          84 84 -2 -4 88 hvcurveto
          4 6 2 8 8 vvcurveto
          9 -2 8 -4 8 vhcurveto
          -53 8 -94 14 -2 74 rrcurveto
          -8 223 0 82 437 vvcurveto
          -7 12 -12 8 -16 6 -95 -41 -116 -28 -127 -13 rrcurveto
          endchar
        </CharString>
        <CharString name="igrave">
          -359 1163 385 hstem
          -170 419 vstem
          141 1421 rmoveto
          31 -27 -30 16 -35 hhcurveto
          -51 -35 -34 -52 -34 16 -21 21 -18 hvcurveto
          14 -13 16 -10 41 -26 283 -177 rcurveline
          29 37 rlineto
          -307 -297 rmoveto
          -2 -8 -2 -6 -8 vvcurveto
          -8 2 -9 2 -8 vhcurveto
          86 -4 65 -12 41 -25 rrcurveto
          -157 2 -95 -106 vvcurveto
          -68 0 -73 -4 -99 vhcurveto
          -2 -74 -106 -14 -62 -8 rrcurveto
          -2 -10 -2 -6 -9 vvcurveto
          -8 2 -6 2 -8 vhcurveto
          4 88 84 2 82 hhcurveto
          84 84 -2 -4 88 hvcurveto
          4 6 2 8 8 vvcurveto
          9 -2 8 -4 8 vhcurveto
          -53 8 -94 14 -2 74 rrcurveto
          -8 223 0 82 437 vvcurveto
          -7 12 -12 8 -16 6 -95 -41 -116 -28 -127 -13 rrcurveto
          endchar
        </CharString>
        <CharString name="j">
          -402 -549 43 1890 -20 hstemhm
          248 190 -182 182 hintmask 11010000
          250 137 rmoveto
          -373 vlineto
          -196 -43 -66 -84 -37 -43 13 47 -10 vhcurveto
          61 10 27 49 43 vvcurveto
          70 -43 41 -72 -80 -49 -58 -75 -117 98 -88 140 254 61 264 227 vhcurveto
          367 -4 147 437 vvcurveto
          -6 12 -12 8 -17 6 -94 -41 -117 -28 -127 -13 rrcurveto
          -2 -8 -2 -6 -8 vvcurveto
          -8 2 -9 2 -8 vhcurveto
          86 -4 66 -12 41 -25 rrcurveto
          hintmask 11100000
          -157 2 -95 -106 vvcurveto
          -68 0 -73 2 -99 vhcurveto
          -39 1104 rmoveto
          -67 55 -56 68 67 56 56 67 68 -56 55 -67 -68 -55 -55 -68 vhcurveto
          endchar
        </CharString>
        <CharString name="k">
          85 20 43 -40 43 1411 -20 hstem
          274 183 vstem
          696 41 rmoveto
          -2 -8 -2 -6 -9 vvcurveto
          -8 2 -8 2 -8 vhcurveto
          4 86 68 2 76 hhcurveto
          78 69 -2 -4 86 hvcurveto
          2 6 2 8 6 vvcurveto
          9 -2 8 -2 10 vhcurveto
          -53 8 -72 17 -55 71 -352 445 rcurveline
          159 161 68 70 84 16 100 11 rlinecurve
          2 10 2 8 8 vvcurveto
          6 -2 9 -2 6 vhcurveto
          -4 -86 -67 -2 -60 hhcurveto
          -94 -26 2 4 -87 hvcurveto
          -2 -8 -2 -9 -8 vvcurveto
          -8 2 -6 2 -8 vhcurveto
          39 -4 56 -9 -39 vvcurveto
          -14 -6 -16 -13 -15 vhcurveto
          -202 -192 rlineto
          -52 hlineto
          -2 297 0 373 272 vvcurveto
          -6 12 -12 8 -17 7 -94 -41 -116 -29 -127 -12 rrcurveto
          -3 -8 -2 -7 -8 vvcurveto
          -8 2 -8 3 -8 vhcurveto
          86 -5 65 -12 41 -24 rrcurveto
          -158 2 -326 -286 vvcurveto
          -181 0 -163 -4 -99 vhcurveto
          -2 -74 -107 -14 -61 -8 rrcurveto
          -2 -10 -2 -6 -9 vvcurveto
          -8 2 -6 2 -8 vhcurveto
          4 88 84 2 82 hhcurveto
          84 78 -2 -4 88 hvcurveto
          4 6 2 8 8 vvcurveto
          9 -2 8 -4 8 vhcurveto
          -53 8 -91 14 74 vvcurveto
          -4 74 -2 125 151 vvcurveto
          49 hlineto
          273 -350 rlineto
          16 -20 6 -17 -12 vvcurveto
          -35 -49 -8 -39 -4 vhcurveto
          endchar
        </CharString>
        <CharString name="l">
          -369 14 43 1424 -20 hstem
          180 182 -182 191 vstem
          66 1438 rmoveto
          -3 -8 -2 -7 -8 vvcurveto
          -8 2 -8 3 -8 vhcurveto
          86 -5 65 -12 41 -24 rrcurveto
          -158 2 -326 -286 vvcurveto
          -181 0 -163 -4 -99 vhcurveto
          -2 -74 -107 -14 -61 -8 rrcurveto
          -2 -10 -2 -6 -9 vvcurveto
          -8 2 -6 2 -8 vhcurveto
          4 88 84 2 82 hhcurveto
          84 84 -2 -4 88 hvcurveto
          4 6 2 8 8 vvcurveto
          9 -2 8 -4 8 vhcurveto
          -53 8 -94 14 -3 74 rrcurveto
          -8 223 0 697 436 vvcurveto
          -6 12 -12 8 -17 7 -94 -41 -116 -29 -127 -12 rrcurveto
          endchar
        </CharString>
        <CharString name="less">
          530 190 1129 hstem
          164 1358 vstem
          453 715 rmoveto
          946 403 -49 109 -1186 -514 1186 -514 49 108 rlineto
          endchar
        </CharString>
        <CharString name="logicalnot">
          571 131 49 193 112 hstem
          1325 115 vstem
          164 414 rmoveto
          1161 -242 115 354 -1276 hlineto
          endchar
        </CharString>
        <CharString name="m">
          747 14 43 848 -20 hstem
          258 188 353 188 352 189 vstem
          1262 41 rmoveto
          -2 -8 -3 -6 -9 vvcurveto
          -8 3 -8 2 -8 vhcurveto
          4 86 63 2 76 hhcurveto
          78 73 -2 -4 86 hvcurveto
          2 6 3 8 6 vvcurveto
          9 -3 8 -2 10 vhcurveto
          -53 8 -94 14 -2 74 -10 508 rcurveline
          176 -2 -54 88 -155 hhcurveto
          -137 -113 -100 -92 -103 hvcurveto
          129 -16 -57 63 -133 hhcurveto
          -136 -110 -96 -92 -100 hvcurveto
          158 vlineto
          -7 12 -12 8 -16 6 -95 -41 -116 -28 -127 -13 rrcurveto
          -2 -8 -2 -6 -8 vvcurveto
          -8 2 -9 2 -8 vhcurveto
          86 -4 65 -12 41 -25 rrcurveto
          -157 2 -95 -106 vvcurveto
          -68 0 -73 -4 -99 vhcurveto
          -2 -74 -106 -14 -62 -8 rrcurveto
          -2 -10 -2 -6 -9 vvcurveto
          -8 2 -6 2 -8 vhcurveto
          4 88 84 2 82 hhcurveto
          84 74 -2 -4 88 hvcurveto
          4 8 2 8 6 vvcurveto
          9 -2 8 -4 8 vhcurveto
          -53 8 -84 14 -2 74 rrcurveto
          -6 172 -2 115 235 vvcurveto
          78 104 84 56 78 hhcurveto
          76 32 -62 -119 hvcurveto
          -2 -475 rlineto
          -74 -65 -14 -54 -8 vhcurveto
          -2 -8 -2 -6 -9 vvcurveto
          -8 2 -8 2 -8 vhcurveto
          4 86 64 2 76 hhcurveto
          78 71 -2 -4 86 hvcurveto
          2 6 2 8 6 vvcurveto
          9 -2 8 -2 10 vhcurveto
          -53 8 -94 14 -2 74 -8 508 rcurveline
          12 vlineto
          80 104 86 56 78 hhcurveto
          76 32 -62 -119 hvcurveto
          -2 -475 rlineto
          -74 -65 -14 -53 -8 vhcurveto
          endchar
        </CharString>
        <CharString name="macron">
          73 1163 123 hstem
          463 643 vstem
          236 1286 rmoveto
          -123 634 123 vlineto
          endchar
        </CharString>
        <CharString name="minus">
          431 674 114 hstem
          674 117 vstem
          1300 653 rmoveto
          115 -1136 -115 vlineto
          endchar
        </CharString>
        <CharString name="mu">
          212 -449 50 381 135 727 47 hstem
          217 170 377 168 vstem
          1169 57 rmoveto
          2 6 3 9 6 vvcurveto
          8 -3 8 -2 10 vhcurveto
          -86 5 -65 12 -41 24 rrcurveto
          158 -4 92 109 vvcurveto
          74 4 190 10 88 vhcurveto
          -6 14 0 7 -18 10 rrcurveto
          -4 -82 -39 -4 -35 hhcurveto
          -41 -37 4 4 -90 hvcurveto
          -2 -8 -2 -7 -8 vvcurveto
          -8 2 -8 2 -8 vhcurveto
          53 -9 94 -14 2 -74 rrcurveto
          7 -176 2 -114 -240 vvcurveto
          -68 -76 -76 -49 -78 hhcurveto
          -71 -95 80 141 hvcurveto
          2 496 7 16 2 27 -6 14 -5 11 -18 6 rrcurveto
          -4 -82 -39 -4 -35 hhcurveto
          -41 -36 4 4 -91 hvcurveto
          -2 -8 -2 -7 -8 vvcurveto
          -8 2 -8 2 -8 vhcurveto
          54 -9 96 -14 -74 vvcurveto
          2 hlineto
          10 -505 rlineto
          -4 -351 -72 -131 -166 vvcurveto
          -112 64 -43 55 45 72 30 134 139 -72 112 -8 269 vhcurveto
          12 hlineto
          -121 39 72 -23 94 hhcurveto
          129 70 64 98 80 hvcurveto
          -135 vlineto
          6 -12 12 -8 16 -7 95 41 116 29 127 12 rrcurveto
          endchar
        </CharString>
        <CharString name="multiply">
          431 674 114 hstem
          674 117 vstem
          371 268 rmoveto
          360 361 363 -361 80 82 -361 361 363 362 -82 82 -363 -362 -360 360 -82 -80 360 -362 -360 -361 rlineto
          endchar
        </CharString>
        <CharString name="n">
          208 0 41 -26 -21 782 47 -30 116 hstemhm
          270 179 395 187 hintmask 10011100
          606 41 rmoveto
          -53 8 -94 14 -2 74 rrcurveto
          -6 172 -2 115 233 vvcurveto
          80 108 100 56 78 hhcurveto
          76 33 -62 -119 hvcurveto
          -2 -475 rlineto
          -74 -76 -14 -53 -8 vhcurveto
          hintmask 01011100
          -2 -8 -2 -6 -9 vvcurveto
          -8 2 -8 2 -8 vhcurveto
          hintmask 10011100
          4 86 73 2 76 hhcurveto
          78 74 -2 -4 86 hvcurveto
          hintmask 01011100
          2 6 2 8 6 vvcurveto
          hintmask 10011100
          9 -2 8 -2 10 vhcurveto
          -53 8 -95 14 -2 74 -10 508 rcurveline
          176 -2 -53 88 -156 hhcurveto
          -135 -127 -96 -92 -104 hvcurveto
          158 vlineto
          hintmask 10101100
          -7 12 -12 8 -16 6 -95 -41 -116 -28 -127 -13 rrcurveto
          -2 -8 -2 -6 -8 vvcurveto
          -8 2 -9 2 -8 vhcurveto
          86 -4 65 -12 41 -25 rrcurveto
          -157 2 -95 -106 vvcurveto
          -68 0 -73 -4 -99 vhcurveto
          -2 -74 -106 -14 -62 -8 rrcurveto
          -2 -10 -2 -6 -9 vvcurveto
          hintmask 01011100
          -8 2 -6 2 -8 vhcurveto
          4 88 84 2 82 hhcurveto
          hintmask 10011100
          84 84 -2 -4 88 hvcurveto
          4 8 2 8 6 vvcurveto
          hintmask 01011100
          9 -2 8 -4 8 vhcurveto
          endchar
        </CharString>
        <CharString name="nbspace">
          -1033 endchar
        </CharString>
        <CharString name="nine">
          -459 43 1395 -20 hstem
          4 -469 rmoveto
          0 969 262 705 vvcurveto
          395 -295 88 -182 -224 -239 -164 -311 -330 254 -113 325 vhcurveto
          -157 -204 -228 -168 -247 -121 rrcurveto
          278 936 rmoveto
          344 148 65 92 164 98 -139 -239 -213 -55 -134 -54 -55 vhcurveto
          -301 4 -90 121 -2 246 rrcurveto
          endchar
        </CharString>
        <CharString name="noBreak">
          -1033 endchar
        </CharString>
        <CharString name="nonmarkingreturn">
          -1033 endchar
        </CharString>
        <CharString name="ntilde">
          208 1163 140 -78 141 hstemhm
          576 725 hintmask 01100000
          606 41 rmoveto
          -53 8 -94 14 -2 74 rrcurveto
          -6 172 -2 115 233 vvcurveto
          80 108 100 56 78 hhcurveto
          76 33 -62 -119 hvcurveto
          -2 -475 rlineto
          hintmask 10100000
          -74 -76 -14 -53 -8 vhcurveto
          -2 -8 -2 -6 -9 vvcurveto
          -8 2 -8 2 -8 vhcurveto
          4 86 73 2 76 hhcurveto
          78 74 -2 -4 86 hvcurveto
          2 6 2 8 6 vvcurveto
          9 -2 8 -2 10 vhcurveto
          -53 8 -95 14 -2 74 -10 508 rcurveline
          176 -2 -53 88 -156 hhcurveto
          -135 -127 -96 -92 -104 hvcurveto
          158 vlineto
          -7 12 -12 8 -16 6 -95 -41 -116 -28 -127 -13 rrcurveto
          -2 -8 -2 -6 -8 vvcurveto
          -8 2 -9 2 -8 vhcurveto
          86 -4 65 -12 41 -25 rrcurveto
          -157 2 -95 -106 vvcurveto
          -68 0 -73 -4 -99 vhcurveto
          -2 -74 -106 -14 -62 -8 rrcurveto
          -2 -10 -2 -6 -9 vvcurveto
          -8 2 -6 2 -8 vhcurveto
          4 88 84 2 82 hhcurveto
          84 84 -2 -4 88 hvcurveto
          4 8 2 8 6 vvcurveto
          9 -2 8 -4 8 vhcurveto
          349 1300 rmoveto
          -53 -17 -47 -20 -39 -67 -131 61 -90 hhcurveto
          -68 -84 -43 -158 -63 hvcurveto
          55 hlineto
          48 37 34 14 41 hhcurveto
          33 39 -12 -15 37 hvcurveto
          -14 55 60 -21 53 hhcurveto
          129 63 111 102 31 hvcurveto
          endchar
        </CharString>
        <CharString name="numbersign">
          92 49 316 90 420 90 299 47 hstem
          180 326 90 328 vstem
          713 hmoveto
          65 412 rlineto
          264 hlineto
          15 98 rlineto
          -264 hlineto
          73 471 rlineto
          262 hlineto
          17 102 rlineto
          -260 hlineto
          63 387 rlineto
          -131 hlineto
          -57 -387 rlineto
          -338 hlineto
          63 387 rlineto
          -125 hlineto
          -63 -387 rlineto
          -277 hlineto
          -12 -102 rlineto
          277 hlineto
          -78 -471 rlineto
          -273 hlineto
          -14 -98 rlineto
          270 hlineto
          -61 -412 rlineto
          125 hlineto
          70 412 rlineto
          331 hlineto
          -65 -412 rlineto
          -254 510 rmoveto
          72 471 rlineto
          329 hlineto
          -69 -471 rlineto
          endchar
        </CharString>
        <CharString name="o">
          73 -14 43 -29 -20 940 -20 hstem
          553 -29 rmoveto
          268 162 199 270 271 -162 198 -268 -268 -162 -198 -271 -270 162 -199 268 hvcurveto
          -223 469 rmoveto
          289 96 115 127 127 96 -115 -289 -288 -96 -115 -127 -127 -96 115 288 vhcurveto
          endchar
        </CharString>
        <CharString name="oacute">
          73 -14 43 -29 -20 940 -20 263 385 hstem
          119 419 vstem
          553 -29 rmoveto
          268 162 199 270 271 -162 198 -268 -268 -162 -198 -271 -270 162 -199 268 hvcurveto
          -223 469 rmoveto
          289 96 115 127 127 96 -115 -289 -288 -96 -115 -127 -127 -96 115 288 vhcurveto
          116 680 rmoveto
          29 -37 283 177 41 26 16 10 14 13 rlinecurve
          21 18 16 21 34 vvcurveto
          52 -35 34 -51 -35 -30 -16 -31 -27 vhcurveto
          endchar
        </CharString>
        <CharString name="ocircumflex">
          73 -14 43 -29 -20 940 -20 263 353 hstem
          469 624 vstem
          553 -29 rmoveto
          268 162 199 270 271 -162 198 -268 -268 -162 -198 -271 -270 162 -199 268 hvcurveto
          -223 469 rmoveto
          289 96 115 127 127 96 -115 -289 -288 -96 -115 -127 -127 -96 115 288 vhcurveto
          227 805 rmoveto
          242 -178 rlineto
          73 hlineto
          -256 332 rlineto
          -118 hlineto
          -256 -332 rlineto
          73 hlineto
          endchar
        </CharString>
        <CharString name="odieresis">
          73 -14 43 -29 -20 940 -20 263 223 hstem
          459 221 137 223 vstem
          553 -29 rmoveto
          268 162 199 270 271 -162 198 -268 -268 -162 -198 -271 -270 162 -199 268 hvcurveto
          -223 469 rmoveto
          289 96 115 127 127 96 -115 -289 -288 -96 -115 -127 -127 -96 115 288 vhcurveto
          -78 799 rmoveto
          -68 53 -53 68 65 54 53 68 66 -54 53 -65 -68 -53 -53 -66 vhcurveto
          373 hmoveto
          -68 53 -53 66 67 53 53 68 66 -53 53 -67 -66 -53 -53 -66 vhcurveto
          endchar
        </CharString>
        <CharString name="oe">
          634 -18 71 461 72 252 71 11 -20 hstemhm
          59 195 487 189 366 185 hintmask 11011110
          1532 260 rmoveto
          -61 -47 -49 -103 -160 hhcurveto
          -189 -118 131 197 -4 hvcurveto
          55 2 27 2 24 vhcurveto
          544 hlineto
          11 31 6 35 37 vvcurveto
          hintmask 11101110
          137 -78 139 -229 -148 -112 -67 -99 -80 vhcurveto
          103 -68 -113 63 -149 hhcurveto
          -268 -162 -198 -271 -270 162 -199 268 141 105 54 92 69 hvcurveto
          -103 82 121 -43 117 hhcurveto
          151 162 78 189 70 hvcurveto
          -8 10 -13 8 -18 4 rrcurveto
          -1202 180 rmoveto
          289 96 115 127 127 96 -115 -289 -293 -98 -110 -125 -127 -96 115 288 vhcurveto
          868 404 rmoveto
          115 37 -88 -92 -23 -4 -20 -7 -23 hvcurveto
          -360 hlineto
          178 39 98 68 82 hhcurveto
          endchar
        </CharString>
        <CharString name="ograve">
          73 -14 43 -29 -20 940 -20 263 385 hstem
          107 419 vstem
          553 -29 rmoveto
          268 162 199 270 271 -162 198 -268 -268 -162 -198 -271 -270 162 -199 268 hvcurveto
          -223 469 rmoveto
          289 96 115 127 127 96 -115 -289 -288 -96 -115 -127 -127 -96 115 288 vhcurveto
          88 981 rmoveto
          31 -27 -30 16 -35 hhcurveto
          -51 -35 -34 -52 -34 16 -21 21 -18 hvcurveto
          14 -13 16 -10 41 -26 283 -177 rcurveline
          29 37 rlineto
          endchar
        </CharString>
        <CharString name="one">
          53 43 hstem
          805 41 rmoveto
          -53 8 -105 14 -2 74 rrcurveto
          -6 127 -2 84 127 vvcurveto
          127 2 84 6 127 vhcurveto
          2 74 105 14 53 8 rrcurveto
          4 9 2 8 8 vvcurveto
          8 -2 8 -4 6 vhcurveto
          -4 -88 -103 -2 -84 hhcurveto
          -81 -103 2 4 -88 hvcurveto
          -2 -8 -2 -6 -8 vvcurveto
          -8 2 -6 2 -11 vhcurveto
          61 -8 117 -14 2 -74 rrcurveto
          4 -98 0 -74 -68 vvcurveto
          -196 vlineto
          -68 0 -73 -4 -99 vhcurveto
          -2 -74 -117 -14 -61 -8 rrcurveto
          -2 -10 -2 -6 -9 vvcurveto
          -8 2 -6 2 -8 vhcurveto
          4 88 103 2 81 hhcurveto
          84 103 -2 -4 88 hvcurveto
          4 6 2 8 8 vvcurveto
          9 -2 8 -4 8 vhcurveto
          endchar
        </CharString>
        <CharString name="onehalf">
          564 -334 -21 271 107 405 49 150 -20 825 -20 hstem
          336 123 706 125 vstem
          913 63 rmoveto
          5 -28 10 -27 10 -8 rrcurveto
          492 hlineto
          49 240 rlineto
          8 -9 -12 4 -14 hhcurveto
          -47 -25 -69 -80 -76 hhcurveto
          -156 8 hlineto
          185 148 rlineto
          65 51 100 80 131 vvcurveto
          139 -100 88 -162 -145 -107 -72 -149 -141 109 -43 0 vhcurveto
          18 2 11 12 4 14 rrcurveto
          0 -52 45 94 vvcurveto
          93 46 51 77 62 78 -33 -115 -122 -39 -56 -86 -69 vhcurveto
          -736 -416 rmoveto
          742 1675 -96 25 -738 -1676 rlineto
          219 1545 rmoveto
          5 6 0 6 6 vvcurveto
          6 0 8 -5 4 vhcurveto
          -4 -67 -78 0 -66 hhcurveto
          -61 -80 0 4 -65 hvcurveto
          -2 -6 -2 -6 -6 vvcurveto
          -6 2 -6 2 -6 vhcurveto
          47 -7 90 -10 -57 vvcurveto
          2 -74 0 -57 -53 vvcurveto
          -148 vlineto
          -53 0 -57 -2 -74 vhcurveto
          160 hlineto
          -4 94 -3 68 96 vvcurveto
          96 3 68 4 94 vhcurveto
          57 79 10 41 7 vhcurveto
          -664 vmoveto
          -41 6 -79 10 58 vvcurveto
          -160 hlineto
          -58 -90 -10 -47 -6 vhcurveto
          -2 -6 -2 -6 -6 vvcurveto
          -7 2 -6 2 -6 vhcurveto
          4 65 80 0 61 hhcurveto
          66 78 0 -4 67 hvcurveto
          5 4 0 8 7 vvcurveto
          6 0 6 -5 6 vhcurveto
          endchar
        </CharString>
        <CharString name="onequarter">
          564 -334 -21 271 107 405 49 150 -20 825 -20 hstem
          336 123 706 125 vstem
          846 201 rmoveto
          332 -201 157 201 111 90 -111 446 -63 hlineto
          -426 -493 rlineto
          -400 -379 rmoveto
          742 1675 -96 25 -738 -1676 rlineto
          219 1545 rmoveto
          5 6 0 6 6 vvcurveto
          6 0 8 -5 4 vhcurveto
          -4 -67 -78 0 -66 hhcurveto
          -61 -80 0 4 -65 hvcurveto
          -2 -6 -2 -6 -6 vvcurveto
          -6 2 -6 2 -6 vhcurveto
          47 -7 90 -10 -57 vvcurveto
          2 -74 0 -57 -53 vvcurveto
          -148 vlineto
          -53 0 -57 -2 -74 vhcurveto
          -58 -90 -10 -47 -6 vhcurveto
          -2 -6 -2 -6 -6 vvcurveto
          -7 2 -6 2 -6 vhcurveto
          4 65 80 0 61 hhcurveto
          66 78 0 -4 67 hvcurveto
          5 4 0 8 7 vvcurveto
          6 0 6 -5 6 vhcurveto
          -41 6 -77 10 -2 58 rrcurveto
          -4 94 -3 68 96 vvcurveto
          96 3 68 4 94 vhcurveto
          2 57 77 10 41 7 rrcurveto
          398 -1143 rmoveto
          207 223 rlineto
          -223 vlineto
          endchar
        </CharString>
        <CharString name="onesuperior">
          -316 485 56 1032 47 hstem
          434 137 vstem
          567 1434 rmoveto
          4 6 0 6 6 vvcurveto
          6 0 8 -4 4 vhcurveto
          -4 -67 -78 0 -66 hhcurveto
          -61 -80 0 4 -65 hvcurveto
          -3 -6 -2 -6 -6 vvcurveto
          -6 2 -6 3 -6 vhcurveto
          47 -7 90 -10 -57 vvcurveto
          2 -74 0 -57 -53 vvcurveto
          -74 vlineto
          -127 0 -57 -2 -74 vhcurveto
          -58 -90 -10 -47 -6 vhcurveto
          -3 -6 -2 -6 -6 vvcurveto
          -7 2 -6 3 -6 vhcurveto
          4 65 80 0 61 hhcurveto
          66 78 0 -4 67 hvcurveto
          4 4 0 8 7 vvcurveto
          6 0 6 -4 6 vhcurveto
          -41 6 -77 10 -3 58 rrcurveto
          -4 94 -2 68 96 vvcurveto
          96 2 68 4 94 vhcurveto
          3 57 77 10 41 7 rrcurveto
          endchar
        </CharString>
        <CharString name="ordfeminine">
          -214 868 47 74 47 551 51 hstem
          133 127 242 116 vstem
          109 1296 rmoveto
          -69 51 -33 45 63 31 47 43 45 -20 35 -62 8 vhcurveto
          37 10 52 37 77 hhcurveto
          78 60 -49 -119 hvcurveto
          -115 vlineto
          -322 -84 -94 -53 -145 vvcurveto
          -52 24 -104 150 110 84 86 47 48 vhcurveto
          -86 8 41 -35 51 hhcurveto
          88 51 92 80 55 hvcurveto
          -8 17 -14 8 -18 2 rrcurveto
          -23 -17 -33 -43 -20 hhcurveto
          -31 -4 25 20 hvcurveto
          347 vlineto
          176 -65 67 -187 -14 -2 0 -2 -19 vhcurveto
          -139 -12 -108 -80 -115 vvcurveto
          385 -360 rmoveto
          -43 -33 -58 -64 -73 hhcurveto
          -47 -37 31 60 84 39 59 209 47 hvcurveto
          endchar
        </CharString>
        <CharString name="ordmasculine">
          -214 868 54 67 49 549 51 hstem
          109 137 342 137 vstem
          410 725 rmoveto
          223 133 164 225 225 -133 164 -223 -222 -135 -164 -225 -225 135 -164 222 hvcurveto
          -185 389 rmoveto
          240 80 94 105 106 80 -94 -240 -240 -80 -94 -106 -105 -80 94 240 vhcurveto
          endchar
        </CharString>
        <CharString name="oslash">
          73 -18 71 785 71 11 -20 hstemhm
          66 194 490 194 hintmask 10111000
          137 -43 rmoveto
          76 -55 98 137 rlineto
          -43 66 82 -25 94 hhcurveto
          268 162 199 270 142 -45 123 -82 83 hvcurveto
          107 146 -76 55 -103 -141 rlineto
          hintmask 11011000
          39 -63 -80 22 -88 hhcurveto
          -268 -162 -198 -271 -137 41 -119 78 -84 hvcurveto
          311 -63 rmoveto
          -68 -59 31 73 -39 hvcurveto
          367 504 rlineto
          14 -55 8 -68 -82 vvcurveto
          -288 -96 -115 -127 vhcurveto
          -223 403 rmoveto
          289 96 115 127 63 56 -29 -65 41 vhcurveto
          -365 -502 rlineto
          -12 53 -6 64 75 vvcurveto
          endchar
        </CharString>
        <CharString name="otilde">
          73 -14 43 891 -20 263 140 -78 141 hstemhm
          451 725 hintmask 11011000
          553 -29 rmoveto
          268 162 199 270 271 -162 198 -268 -268 -162 -198 -271 -270 162 -199 268 hvcurveto
          -223 469 rmoveto
          289 96 115 127 127 96 -115 -289 -288 -96 -115 -127 -127 -96 115 288 vhcurveto
          500 901 rmoveto
          -53 -17 -47 -20 -39 -67 -131 61 -90 hhcurveto
          -68 -84 -43 -158 -63 hvcurveto
          55 hlineto
          48 37 34 14 41 hhcurveto
          hintmask 11101000
          33 39 -12 -15 37 hvcurveto
          -14 55 60 -21 53 hhcurveto
          129 63 111 102 31 hvcurveto
          endchar
        </CharString>
        <CharString name="p">
          134 -516 43 473 -20 925 -20 hstem
          197 190 vstem
          14 823 rmoveto
          -2 -8 -2 -6 -8 vvcurveto
          -8 2 -9 2 -8 vhcurveto
          86 -4 66 -12 41 -25 rrcurveto
          -157 2 -244 -287 vvcurveto
          -180 0 -164 -4 -98 vhcurveto
          -2 -74 -107 -14 -61 -9 rrcurveto
          -2 -10 -2 -6 -8 vvcurveto
          -8 2 -6 2 -9 vhcurveto
          4 88 84 3 82 hhcurveto
          114 105 -3 -4 119 hvcurveto
          4 7 2 8 8 vvcurveto
          8 -2 8 -4 8 vhcurveto
          -95 9 -135 14 -2 74 rrcurveto
          -4 86 -2 147 168 vvcurveto
          -22 55 62 -13 63 hhcurveto
          344 131 281 233 265 -147 159 -201 -92 -100 -35 -112 -117 hvcurveto
          117 vlineto
          -6 12 -12 8 -17 6 -94 -41 -117 -28 -127 -13 rrcurveto
          586 -45 rmoveto
          166 76 -155 -185 -325 -154 -76 -90 -86 -78 26 101 -47 hvcurveto
          520 vlineto
          55 59 60 39 94 hhcurveto
          endchar
        </CharString>
        <CharString name="paragraph">
          298 -457 49 1926 90 hstem
          510 139 269 137 vstem
          526 -457 rmoveto
          133 1887 228 -1887 131 1887 129 73 -655 hlineto
          -187 -182 -61 -244 -276 262 -33 141 hvcurveto
          endchar
        </CharString>
        <CharString name="parenleft">
          -165 -426 49 1968 47 hstem
          184 232 vstem
          784 -397 rmoveto
          -14 18 -41 39 -113 176 rrcurveto
          -192 299 -8 350 119 vvcurveto
          119 14 346 186 303 vhcurveto
          111 176 45 41 12 17 -32 30 rcurveline
          -510 -346 -58 -510 -176 vvcurveto
          -176 58 -510 510 -346 vhcurveto
          endchar
        </CharString>
        <CharString name="parenright">
          -165 -426 49 1968 47 hstem
          80 231 vstem
          117 -428 rmoveto
          510 346 57 510 176 vvcurveto
          176 -57 510 -510 346 vhcurveto
          -33 -30 4 -7 53 -51 111 -176 rlinecurve
          186 -303 15 -346 -119 vvcurveto
          -119 -15 -346 -186 -303 vhcurveto
          -111 -176 -49 -47 -8 -10 rrcurveto
          endchar
        </CharString>
        <CharString name="percent">
          933 -18 88 659 88 -16 88 659 88 -45 47 hstem
          152 196 348 197 207 196 349 196 vstem
          551 -61 rmoveto
          88 -37 758 1624 -88 33 rlineto
          -1176 -435 rmoveto
          -206 166 -166 207 207 170 166 206 209 -170 168 -207 -207 -166 -168 -209 vhcurveto
          103 -2 rmoveto
          154 122 123 146 151 125 -123 -154 -147 -125 -125 -151 -146 -122 125 147 vhcurveto
          847 -778 rmoveto
          -207 166 -166 207 207 170 166 207 209 -170 168 -207 -207 -166 -168 -209 vhcurveto
          103 -2 rmoveto
          154 123 122 145 152 125 -122 -154 -147 -125 -125 -152 -145 -123 125 147 vhcurveto
          endchar
        </CharString>
        <CharString name="period">
          -455 -20 249 hstem
          164 250 vstem
          164 96 rmoveto
          -69 55 -56 70 69 56 56 69 70 -56 55 -69 -70 -55 -55 -70 vhcurveto
          endchar
        </CharString>
        <CharString name="periodcentered">
          -455 627 250 hstem
          164 250 vstem
          164 752 rmoveto
          -70 55 -55 70 69 56 55 70 69 -56 56 -69 -70 -55 -56 -69 vhcurveto
          endchar
        </CharString>
        <CharString name="plus">
          431 674 114 hstem
          674 117 vstem
          791 143 rmoveto
          510 509 115 -509 512 -117 -512 -510 -115 510 -510 vlineto
          endchar
        </CharString>
        <CharString name="plusminus">
          431 121 98 486 96 hstem
          692 96 vstem
          791 328 rmoveto
          407 509 115 -509 410 -117 -410 -510 -115 510 -407 vlineto
          626 -207 rmoveto
          115 -1136 -115 vlineto
          endchar
        </CharString>
        <CharString name="q">
          112 -516 43 1380 -20 hstem
          780 174 -174 183 vstem
          969 -395 rmoveto
          -8 223 0 545 436 vvcurveto
          -7 18 -8 9 -16 8 rrcurveto
          14 -103 -112 51 -111 hhcurveto
          -350 -131 -284 -222 -272 147 -160 201 94 97 52 127 120 hvcurveto
          -103 vlineto
          -180 0 -164 -4 -98 vhcurveto
          -74 -145 -14 -86 -9 vhcurveto
          -2 -10 -2 -6 -8 vvcurveto
          -8 2 -6 2 -9 vhcurveto
          4 106 109 3 100 hhcurveto
          84 84 -3 -4 88 hvcurveto
          4 7 2 8 8 vvcurveto
          8 -2 8 -4 8 vhcurveto
          -53 9 -96 14 74 vvcurveto
          -402 497 rmoveto
          -166 -75 156 184 338 153 64 90 76 80 -27 -102 55 hvcurveto
          -123 0 -168 2 -197 vhcurveto
          -65 -63 -74 -60 -78 hhcurveto
          endchar
        </CharString>
        <CharString name="question">
          -3 -31 221 1215 57 hstem
          92 180 -180 205 -4 221 -139 57 305 142 vstem
          442 348 rmoveto
          111 vlineto
          106 84 115 117 84 vhcurveto
          123 88 152 104 218 vvcurveto
          217 -203 112 -240 -274 -129 -149 -119 -82 47 -41 76 67 45 49 62 28 -12 43 -49 21 vhcurveto
          37 71 78 156 166 49 -127 -107 -201 -98 -96 -70 -63 vhcurveto
          -114 -105 -41 -72 -170 vvcurveto
          -141 vlineto
          -62 -266 rmoveto
          -62 49 -49 62 61 49 49 62 61 -49 50 -61 -62 -49 -50 -61 vhcurveto
          endchar
        </CharString>
        <CharString name="questiondown">
          -3 -31 221 1215 57 hstemhm
          123 180 -180 205 -4 221 -139 57 305 141 hintmask 11010110
          578 1126 rmoveto
          -110 vlineto
          -107 -84 -114 -117 -84 vhcurveto
          -123 -88 -152 -105 -217 vvcurveto
          hintmask 11101010
          -217 203 -113 240 274 129 150 119 82 -47 40 -76 -67 -45 -49 -61 -29 12 -43 49 -20 vhcurveto
          -37 -72 -78 -155 -166 -49 127 107 200 98 96 70 64 vhcurveto
          114 104 41 72 170 vvcurveto
          141 vlineto
          62 267 rmoveto
          61 -49 49 -62 -61 -49 -49 -61 -62 49 -49 61 62 49 49 62 vhcurveto
          endchar
        </CharString>
        <CharString name="quotedbl">
          -202 1147 49 377 47 hstem
          139 207 174 209 vstem
          205 1030 rmoveto
          76 hlineto
          59 397 rlineto
          52 -45 24 -53 -56 -43 -24 -52 vhcurveto
          410 -397 rmoveto
          76 hlineto
          59 397 rlineto
          52 -45 24 -53 -55 -43 -24 -52 vhcurveto
          endchar
        </CharString>
        <CharString name="quotedblbase">
          -44 -285 49 218 245 hstem
          162 276 115 276 vstem
          236 -262 rmoveto
          106 69 92 152 127 vvcurveto
          102 -65 33 -68 -70 -47 -63 -60 -80 39 -38 90 vhcurveto
          4 -7 -10 -41 -16 -57 -107 -92 rlinecurve
          422 -45 rmoveto
          107 69 92 152 127 vvcurveto
          102 -66 33 -67 -70 -47 -63 -60 -80 39 -38 90 vhcurveto
          4 -7 -10 -41 -16 -57 -107 -92 rlinecurve
          endchar
        </CharString>
        <CharString name="quotedblleft">
          -44 1126 50 217 245 hstem
          162 276 92 275 vstem
          754 1503 rmoveto
          -107 -69 -92 -152 -127 vvcurveto
          -102 66 -33 67 70 47 63 60 80 -39 39 -90 vhcurveto
          -4 6 10 41 16 57 107 92 rlinecurve
          -422 45 rmoveto
          -107 -69 -92 -152 -127 vvcurveto
          -102 66 -33 67 70 47 63 60 80 -39 39 -90 vhcurveto
          -4 6 10 41 17 57 106 92 rlinecurve
          endchar
        </CharString>
        <CharString name="quotedblright">
          -44 1126 50 217 245 hstem
          162 276 92 275 vstem
          236 1020 rmoveto
          106 70 92 151 127 vvcurveto
          102 -65 33 -68 -70 -47 -63 -60 -80 39 -38 90 vhcurveto
          4 -7 -10 -41 -16 -57 -107 -92 rlinecurve
          422 -45 rmoveto
          107 70 92 151 127 vvcurveto
          102 -66 33 -67 -70 -47 -63 -60 -80 39 -38 90 vhcurveto
          4 -7 -10 -41 -16 -57 -107 -92 rlinecurve
          endchar
        </CharString>
        <CharString name="quoteleft">
          -415 1126 50 217 245 hstem
          162 276 92 275 vstem
          383 1503 rmoveto
          -107 -69 -92 -152 -127 vvcurveto
          -102 66 -33 67 70 47 63 60 80 -39 39 -90 vhcurveto
          -4 6 10 41 17 57 106 92 rlinecurve
          endchar
        </CharString>
        <CharString name="quoteright">
          -415 1126 50 217 245 hstem
          162 276 92 275 vstem
          236 1020 rmoveto
          106 70 92 151 127 vvcurveto
          102 -65 33 -68 -70 -47 -63 -60 -80 39 -38 90 vhcurveto
          4 -7 -10 -41 -16 -57 -107 -92 rlinecurve
          endchar
        </CharString>
        <CharString name="quotesinglbase">
          -415 -285 49 218 245 hstem
          182 277 vstem
          236 -262 rmoveto
          106 69 92 152 127 vvcurveto
          102 -65 33 -68 -70 -47 -63 -60 -80 39 -38 90 vhcurveto
          4 -7 -10 -41 -16 -57 -107 -92 rlinecurve
          endchar
        </CharString>
        <CharString name="quotesingle">
          -550 1147 49 377 47 hstem
          139 207 174 209 vstem
          205 1030 rmoveto
          76 hlineto
          59 397 rlineto
          52 -45 24 -53 -56 -43 -24 -52 vhcurveto
          endchar
        </CharString>
        <CharString name="r">
          -134 20 43 -40 53 827 -20 hstem
          188 189 vstem
          647 41 rmoveto
          -69 8 -119 14 -2 74 rrcurveto
          -6 152 -2 98 176 vvcurveto
          18 88 94 94 49 21 rrcurveto
          -70 4 45 -45 66 hhcurveto
          68 55 43 82 84 -57 49 -78 -119 -107 -129 -73 -38 hvcurveto
          172 vlineto
          -7 12 -12 8 -16 6 -95 -41 -116 -28 -127 -13 rrcurveto
          -2 -8 -2 -6 -8 vvcurveto
          -8 2 -9 2 -8 vhcurveto
          86 -4 65 -12 41 -25 rrcurveto
          -157 2 -95 -106 vvcurveto
          -68 0 -73 -4 -99 vhcurveto
          -2 -74 -106 -14 -62 -8 rrcurveto
          -2 -10 -2 -6 -9 vvcurveto
          -8 2 -6 2 -8 vhcurveto
          4 88 84 2 82 hhcurveto
          96 101 -2 -4 100 hvcurveto
          4 8 2 8 6 vvcurveto
          9 -2 8 -4 8 vhcurveto
          endchar
        </CharString>
        <CharString name="registered">
          829 -18 96 332 51 323 60 332 61 299 98 hstem
          102 99 465 114 342 131 406 94 vstem
          102 791 rmoveto
          -459 371 -371 459 457 370 371 459 456 -370 371 -457 -459 -371 -371 -456 vhcurveto
          99 hmoveto
          426 348 305 383 381 350 -312 -419 -426 -350 -308 -381 -383 -348 305 429 vhcurveto
          438 -351 rmoveto
          -41 -84 -10 -51 -4 vhcurveto
          -4 -8 0 -6 -4 -5 2 -8 -2 vvcurveto
          2 67 80 2 74 hhcurveto
          68 79 -2 -2 68 hvcurveto
          2 4 2 6 5 vvcurveto
          4 0 6 -4 8 vhcurveto
          -51 4 -80 12 -6 39 rrcurveto
          -4 101 -2 96 98 vvcurveto
          -6 30 52 -4 28 hhcurveto
          78 -139 94 -137 84 -97 rrcurveto
          2 41 47 0 43 hhcurveto
          41 51 0 -2 41 hvcurveto
          2 8 0 5 4 vvcurveto
          4 0 4 -4 8 vhcurveto
          -102 10 -82 86 -78 105 -39 53 -43 57 -28 49 rrcurveto
          118 41 74 101 112 vvcurveto
          142 -110 100 -187 vhcurveto
          -98 -60 -4 -65 hhcurveto
          -68 -82 2 2 -65 hvcurveto
          -6 -12 0 -2 0 vvcurveto
          -6 0 -4 4 -9 vhcurveto
          49 -4 80 -10 6 -41 rrcurveto
          4 -111 4 -112 -111 vvcurveto
          -125 -4 -127 -6 -127 vhcurveto
          252 758 rmoveto
          121 55 -88 -111 -104 -41 -121 -131 -21 -53 4 8 -26 hvcurveto
          125 2 162 4 123 vhcurveto
          2 20 43 0 27 hhcurveto
          endchar
        </CharString>
        <CharString name="ring">
          112 1163 72 264 72 hstem
          463 72 264 71 vstem
          369 1262 rmoveto
          -119 86 -86 116 119 86 86 119 133 -110 69 -95 -92 -110 -69 -133 vhcurveto
          82 -2 rmoveto
          67 55 55 65 72 51 -63 -59 -64 -57 -57 -66 -57 -63 53 68 vhcurveto
          endchar
        </CharString>
        <CharString name="s">
          -136 -8 43 -41 43 897 -20 hstemhm
          hintmask 10100000
          463 -29 rmoveto
          188 144 140 137 164 -88 47 -195 78 hvcurveto
          -170 69 -82 37 96 vvcurveto
          76 78 29 68 108 74 -82 -111 92 vhcurveto
          10 21 4 9 8 hvcurveto
          -29 77 -20 90 -13 78 rrcurveto
          -26 hlineto
          -21 -6 -14 -8 -37 -8 rrcurveto
          8 -37 -37 14 -61 hhcurveto
          -242 -59 -149 -98 -150 135 -66 164 -59 hvcurveto
          186 -68 29 -57 -78 vvcurveto
          hintmask 01100000
          -69 -62 -78 -124 -156 -62 119 137 -43 vhcurveto
          -10 -24 0 -6 -13 hvcurveto
          -105 -14 -151 -6 -19 vhcurveto
          4 -8 4 -4 10 -6 rrcurveto
          8 21 67 21 27 hhcurveto
          -29 57 47 -23 103 hhcurveto
          endchar
        </CharString>
        <CharString name="section">
          200 -428 72 1788 71 hstemhm
          164 137 -51 211 -170 139 322 221 -43 139 hintmask 11001100
          811 1339 rmoveto
          -37 -16 -22 -41 -43 vvcurveto
          -55 41 -45 59 86 35 49 67 127 -139 121 -205 -213 -125 -129 -170 -24 6 -111 96 -111 vhcurveto
          hintmask 11100010
          -153 -90 -76 -94 -141 vvcurveto
          -150 98 -92 80 -65 vhcurveto
          283 -236 rlineto
          96 -82 74 -74 -102 vvcurveto
          -133 -131 -55 -76 -78 -61 28 64 -33 vhcurveto
          37 16 22 41 43 vvcurveto
          55 -41 46 -59 -86 -35 -50 -67 -127 129 -121 205 190 154 152 174 112 -53 80 -45 47 vhcurveto
          96 56 139 116 168 vvcurveto
          162 -139 113 -129 102 vhcurveto
          -236 188 rlineto
          hintmask 11001010
          -84 66 -51 74 92 vvcurveto
          82 84 76 115 78 71 -29 -64 33 vhcurveto
          -63 -682 rmoveto
          94 -77 88 -76 -101 vvcurveto
          -84 -49 -69 -95 -57 vhcurveto
          hintmask 11010100
          -325 280 rlineto
          hintmask 11100100
          -74 64 -86 73 107 vvcurveto
          80 66 65 84 45 vhcurveto
          endchar
        </CharString>
        <CharString name="semicolon">
          -455 -242 -21 245 245 439 249 hstem
          162 276 vstem
          215 -262 rmoveto
          107 69 92 152 127 vvcurveto
          102 -66 33 -67 -70 -47 -63 -60 -80 39 -38 90 vhcurveto
          4 -7 -10 -41 -17 -57 -106 -92 rlinecurve
          987 vmoveto
          -68 55 -57 70 69 56 57 68 70 -56 55 -69 -70 -55 -55 -70 vhcurveto
          endchar
        </CharString>
        <CharString name="seven">
          -547 43 1225 221 31 -20 hstem
          819 754 rmoveto
          -594 -895 rlineto
          0 -98 -123 -78 vvcurveto
          -82 51 -51 86 94 48 57 60 77 -72 41 -37 vhcurveto
          14 37 31 47 23 33 673 1022 rcurveline
          19 -2 -16 32 -25 hhcurveto
          -696 hlineto
          -49 31 rlineto
          -14 -13 -6 -19 -12 hvcurveto
          -2 -84 -25 -167 -34 -91 rrcurveto
          -18 16 24 -6 17 hhcurveto
          57 31 43 109 147 hhcurveto
          endchar
        </CharString>
        <CharString name="six">
          4 43 -41 43 1395 -20 hstem
          1001 1421 rmoveto
          0 -972 -262 -704 vvcurveto
          -396 295 -88 182 223 240 164 311 330 -250 113 -326 vhcurveto
          158 205 227 168 248 120 rrcurveto
          -283 -936 rmoveto
          -344 -147 -65 -92 -164 -98 139 240 213 59 133 53 55 vhcurveto
          301 -4 86 -121 2 -246 rrcurveto
          endchar
        </CharString>
        <CharString name="slash">
          235 -426 49 1950 47 hstem
          297 -426 rmoveto
          807 2046 rlineto
          -137 hlineto
          -803 -2046 rlineto
          endchar
        </CharString>
        <CharString name="space">
          -501 endchar
        </CharString>
        <CharString name="sterling">
          -18 104 203 96 434 90 639 90 hstem
          -133 90 174 164 -47 170 174 227 -86 228 vstem
          348 838 rmoveto
          307 25 287 274 201 39 -127 -211 69 vhcurveto
          11 2 30 -2 2 12 rrcurveto
          -20 88 -6 72 57 vvcurveto
          53 6 43 6 29 vhcurveto
          20 -127 -27 35 -184 hhcurveto
          -215 -280 -69 -596 hvcurveto
          -64 vlineto
          -68 -68 2 4 -67 hvcurveto
          -84 vlineto
          2 67 68 2 68 hhcurveto
          -186 -5 -221 -6 -156 vhcurveto
          -2 -74 -125 -14 -73 -8 rrcurveto
          -2 -10 -2 -8 -9 vvcurveto
          -6 2 -8 2 -6 vhcurveto
          4 112 185 2 118 hhcurveto
          607 hlineto
          16 150 33 108 53 115 -6 12 -12 -2 -15 6 -78 -168 -90 -133 -297 -27 rrcurveto
          -211 hlineto
          -6 263 -2 186 184 vvcurveto
          6 vlineto
          129 107 0 -4 131 hvcurveto
          84 vlineto
          -6 -131 -107 0 -129 hhcurveto
          endchar
        </CharString>
        <CharString name="t">
          -232 -16 43 -27 -20 1091 -20 hstem
          209 190 vstem
          713 788 rmoveto
          4 11 2 12 12 vvcurveto
          15 -2 12 -4 10 vhcurveto
          -303 219 hlineto
          2 -7 -10 2 -10 hhcurveto
          -8 -10 -2 -2 -5 hvcurveto
          -86 -149 -92 -47 -96 -49 rrcurveto
          -2 -11 -2 -6 -6 vvcurveto
          -6 2 -8 2 -9 vhcurveto
          123 -524 hlineto
          -164 59 -129 183 143 121 86 99 55 vhcurveto
          -4 10 -12 12 -17 2 rrcurveto
          -47 -53 -49 -37 -80 hhcurveto
          -70 -75 29 129 hvcurveto
          534 vlineto
          endchar
        </CharString>
        <CharString name="thorn">
          134 -516 43 47 68 340 71 785 69 666 47 hstemhm
          131 170 -104 190 412 194 hintmask 11111101
          545 -492 rmoveto
          -53 9 -97 14 74 vvcurveto
          -4 65 -4 150 -2 186 rrcurveto
          -22 57 62 -13 65 hhcurveto
          344 131 281 233 265 -147 159 -201 -92 -100 -35 -114 -119 hvcurveto
          hintmask 11111011
          293 2 276 164 vvcurveto
          -6 12 -12 8 -17 7 -94 -41 -117 -29 -127 -12 rrcurveto
          -2 -8 -2 -7 -8 vvcurveto
          -8 2 -8 2 -8 vhcurveto
          86 -5 66 -12 41 -24 rrcurveto
          -158 2 -551 -287 vvcurveto
          -180 0 -471 -4 -98 vhcurveto
          -2 -74 -107 -14 -61 -9 rrcurveto
          -2 -10 -2 -6 -8 vvcurveto
          -8 2 -6 2 -9 vhcurveto
          4 88 84 3 82 hhcurveto
          84 84 -3 -4 88 hvcurveto
          4 7 2 8 8 vvcurveto
          8 -2 8 -4 8 vhcurveto
          -160 654 rmoveto
          520 vlineto
          57 61 60 39 94 hhcurveto
          166 76 -155 -185 -325 -154 -76 -90 -86 -78 26 103 -47 hvcurveto
          endchar
        </CharString>
        <CharString name="three">
          -420 43 -41 43 1432 -20 hstem
          264 309 rmoveto
          25 -59 rlineto
          14 35 65 21 55 hhcurveto
          115 125 -56 -219 -254 -119 -168 -174 -115 -53 54 18 hvcurveto
          33 8 61 43 68 vvcurveto
          94 -59 41 -82 -72 -57 -57 -82 -84 82 -166 264 225 291 205 307 254 -166 88 -145 12 vhcurveto
          10 vlineto
          139 43 119 119 135 vvcurveto
          205 -158 78 -204 -242 -117 -119 -153 -101 53 -67 58 -37 vhcurveto
          16 2 14 8 9 16 rrcurveto
          -23 35 -16 39 86 vvcurveto
          96 63 74 146 108 70 -82 -84 -112 -35 -109 -170 -84 vhcurveto
          endchar
        </CharString>
        <CharString name="threequarters">
          564 -334 -21 271 107 405 49 150 -20 825 -20 hstem
          358 123 707 125 vstem
          494 -135 rmoveto
          741 1675 -96 25 -738 -1676 rlineto
          467 312 rmoveto
          332 -201 158 201 110 90 -110 446 -64 hlineto
          -426 -493 rlineto
          125 47 rmoveto
          207 223 rlineto
          -223 vlineto
          -948 839 rmoveto
          27 -55 rlineto
          10 22 39 7 18 hhcurveto
          62 63 -27 -90 -129 -75 -62 -99 -43 -26 17 10 -7 hvcurveto
          29 18 10 11 34 vvcurveto
          56 -43 22 -57 -53 -31 -49 -45 -47 45 -86 193 149 182 98 166 107 -84 53 -92 16 vhcurveto
          2 vlineto
          101 27 43 61 74 vvcurveto
          115 -111 59 -123 -184 -70 -80 -100 -39 15 -24 34 -43 vhcurveto
          33 6 4 8 6 10 rrcurveto
          -6 19 -2 20 29 vvcurveto
          45 27 55 88 70 45 -49 -51 -56 -19 -65 -96 -31 vhcurveto
          endchar
        </CharString>
        <CharString name="threesuperior">
          -316 479 56 555 90 358 90 hstem
          483 129 -86 148 vstem
          229 1130 rmoveto
          27 -55 rlineto
          10 23 38 7 19 hhcurveto
          61 64 -27 -90 -129 -76 -62 -98 -43 -27 17 10 -6 hvcurveto
          29 18 10 11 34 vvcurveto
          56 -43 22 -57 -54 -30 -49 -45 -47 45 -86 192 150 182 98 166 107 -84 53 -92 16 vhcurveto
          2 vlineto
          100 27 43 61 74 vvcurveto
          115 -110 59 -123 -185 -69 -80 -100 -39 14 -24 35 -43 vhcurveto
          33 6 4 8 6 10 rrcurveto
          -6 19 -2 20 29 vvcurveto
          45 26 55 88 70 45 -49 -51 -56 -18 -65 -97 -31 vhcurveto
          endchar
        </CharString>
        <CharString name="tilde">
          106 1163 140 -78 141 hstemhm
          463 725 hintmask 01100000
          842 1341 rmoveto
          -53 -17 -47 -20 -39 -67 -131 61 -90 hhcurveto
          -68 -84 -43 -158 -63 hvcurveto
          55 hlineto
          48 37 34 14 41 hhcurveto
          hintmask 10100000
          33 39 -12 -15 37 hvcurveto
          -14 55 60 -21 53 hhcurveto
          129 63 111 102 31 hvcurveto
          endchar
        </CharString>
        <CharString name="two">
          53 43 961 -20 hstem
          117 82 rmoveto
          6 -37 12 -35 15 -10 rrcurveto
          702 hlineto
          90 330 rlineto
          8 -10 -19 6 -20 hhcurveto
          -59 -35 -80 -88 -104 hhcurveto
          -238 10 hlineto
          246 151 rlineto
          96 60 133 96 178 vvcurveto
          176 -137 113 -225 -199 -176 -90 -191 -182 150 -53 0 vhcurveto
          26 2 12 16 5 19 rrcurveto
          0 -68 57 119 vvcurveto
          119 92 63 133 60 106 -41 -162 -141 -53 -74 -121 -84 vhcurveto
          endchar
        </CharString>
        <CharString name="twosuperior">
          -316 485 140 907 102 hstem
          598 162 vstem
          57 797 rmoveto
          4 -29 11 -27 10 -8 rrcurveto
          491 hlineto
          50 240 rlineto
          8 -9 -12 4 -14 hhcurveto
          -47 -25 -69 -80 -76 hhcurveto
          -156 8 hlineto
          184 148 rlineto
          66 51 100 80 131 vvcurveto
          139 -100 88 -162 -145 -107 -71 -150 -141 109 -43 0 vhcurveto
          18 2 11 12 4 14 rrcurveto
          0 -52 45 95 vvcurveto
          92 45 51 78 62 78 -33 -114 -123 -39 -56 -86 -69 vhcurveto
          endchar
        </CharString>
        <CharString name="u">
          212 0 -20 hstem
          979 743 rmoveto
          70 4 16 4 27 vhcurveto
          -6 14 0 7 -18 10 rrcurveto
          -4 -82 -39 -4 -35 hhcurveto
          -41 -37 4 4 -90 hvcurveto
          -2 -8 -2 -7 -8 vvcurveto
          -8 2 -8 2 -8 vhcurveto
          53 -9 94 -14 2 -74 rrcurveto
          7 -174 2 -112 -236 vvcurveto
          -78 -109 -100 -55 -78 hhcurveto
          -76 -33 62 118 hvcurveto
          2 475 rlineto
          70 7 16 2 27 vhcurveto
          -6 14 -5 11 -18 6 rrcurveto
          -4 -82 -39 -4 -35 hhcurveto
          -41 -36 4 4 -91 hvcurveto
          -2 -8 -2 -7 -8 vvcurveto
          -8 2 -8 2 -8 vhcurveto
          54 -9 96 -14 -74 vvcurveto
          2 hlineto
          8 -507 rlineto
          -177 2 53 -88 156 hhcurveto
          133 127 95 92 107 hvcurveto
          -156 vlineto
          6 -12 12 -8 16 -7 95 41 116 29 127 12 rrcurveto
          2 6 3 9 6 vvcurveto
          8 -3 8 -2 10 vhcurveto
          -86 5 -65 12 -41 24 rrcurveto
          158 -4 92 109 vvcurveto
          67 2 74 4 98 vhcurveto
          endchar
        </CharString>
        <CharString name="uacute">
          212 0 -20 1183 385 hstemhm
          168 419 hintmask 10000000
          979 743 rmoveto
          70 4 16 4 27 vhcurveto
          -6 14 0 7 -18 10 rrcurveto
          -4 -82 -39 -4 -35 hhcurveto
          -41 -37 4 4 -90 hvcurveto
          -2 -8 -2 -7 -8 vvcurveto
          -8 2 -8 2 -8 vhcurveto
          53 -9 94 -14 2 -74 rrcurveto
          7 -174 2 -112 -236 vvcurveto
          -78 -109 -100 -55 -78 hhcurveto
          -76 -33 62 118 hvcurveto
          2 475 rlineto
          70 7 16 2 27 vhcurveto
          -6 14 -5 11 -18 6 rrcurveto
          -4 -82 -39 -4 -35 hhcurveto
          -41 -36 4 4 -91 hvcurveto
          -2 -8 -2 -7 -8 vvcurveto
          -8 2 -8 2 -8 vhcurveto
          54 -9 96 -14 -74 vvcurveto
          2 hlineto
          8 -507 rlineto
          -177 2 53 -88 156 hhcurveto
          133 127 95 92 107 hvcurveto
          -156 vlineto
          6 -12 12 -8 16 -7 95 41 116 29 127 12 rrcurveto
          2 6 3 9 6 vvcurveto
          8 -3 8 -2 10 vhcurveto
          -86 5 -65 12 -41 24 rrcurveto
          158 -4 92 109 vvcurveto
          67 2 74 4 98 vhcurveto
          hintmask 01100000
          -484 377 rmoveto
          29 -37 283 177 41 26 16 10 14 13 rlinecurve
          21 18 16 21 34 vvcurveto
          52 -35 34 -51 -35 -30 -16 -31 -27 vhcurveto
          endchar
        </CharString>
        <CharString name="ucircumflex">
          212 0 -20 1183 353 hstemhm
          498 624 hintmask 10000000
          979 743 rmoveto
          70 4 16 4 27 vhcurveto
          -6 14 0 7 -18 10 rrcurveto
          -4 -82 -39 -4 -35 hhcurveto
          -41 -37 4 4 -90 hvcurveto
          -2 -8 -2 -7 -8 vvcurveto
          -8 2 -8 2 -8 vhcurveto
          53 -9 94 -14 2 -74 rrcurveto
          7 -174 2 -112 -236 vvcurveto
          -78 -109 -100 -55 -78 hhcurveto
          -76 -33 62 118 hvcurveto
          2 475 rlineto
          70 7 16 2 27 vhcurveto
          -6 14 -5 11 -18 6 rrcurveto
          -4 -82 -39 -4 -35 hhcurveto
          -41 -36 4 4 -91 hvcurveto
          -2 -8 -2 -7 -8 vvcurveto
          -8 2 -8 2 -8 vhcurveto
          54 -9 96 -14 -74 vvcurveto
          2 hlineto
          8 -507 rlineto
          -177 2 53 -88 156 hhcurveto
          133 127 95 92 107 hvcurveto
          -156 vlineto
          6 -12 12 -8 16 -7 95 41 116 29 127 12 rrcurveto
          2 6 3 9 6 vvcurveto
          8 -3 8 -2 10 vhcurveto
          -86 5 -65 12 -41 24 rrcurveto
          158 -4 92 109 vvcurveto
          67 2 74 4 98 vhcurveto
          hintmask 01100000
          -393 502 rmoveto
          242 -178 rlineto
          73 hlineto
          -256 332 rlineto
          -118 hlineto
          -256 -332 rlineto
          73 hlineto
          endchar
        </CharString>
        <CharString name="udieresis">
          212 0 -20 1183 223 hstemhm
          475 221 137 223 hintmask 10000000
          979 743 rmoveto
          70 4 16 4 27 vhcurveto
          -6 14 0 7 -18 10 rrcurveto
          -4 -82 -39 -4 -35 hhcurveto
          -41 -37 4 4 -90 hvcurveto
          -2 -8 -2 -7 -8 vvcurveto
          -8 2 -8 2 -8 vhcurveto
          53 -9 94 -14 2 -74 rrcurveto
          7 -174 2 -112 -236 vvcurveto
          -78 -109 -100 -55 -78 hhcurveto
          -76 -33 62 118 hvcurveto
          2 475 rlineto
          70 7 16 2 27 vhcurveto
          -6 14 -5 11 -18 6 rrcurveto
          -4 -82 -39 -4 -35 hhcurveto
          -41 -36 4 4 -91 hvcurveto
          -2 -8 -2 -7 -8 vvcurveto
          -8 2 -8 2 -8 vhcurveto
          54 -9 96 -14 -74 vvcurveto
          2 hlineto
          8 -507 rlineto
          -177 2 53 -88 156 hhcurveto
          133 127 95 92 107 hvcurveto
          -156 vlineto
          6 -12 12 -8 16 -7 95 41 116 29 127 12 rrcurveto
          2 6 3 9 6 vvcurveto
          8 -3 8 -2 10 vhcurveto
          -86 5 -65 12 -41 24 rrcurveto
          158 -4 92 109 vvcurveto
          67 2 74 4 98 vhcurveto
          hintmask 01110000
          -711 496 rmoveto
          -68 53 -53 68 65 54 53 68 66 -54 53 -65 -68 -53 -53 -66 vhcurveto
          373 hmoveto
          -68 53 -53 66 67 53 53 68 66 -53 53 -67 -66 -53 -53 -66 vhcurveto
          endchar
        </CharString>
        <CharString name="ugrave">
          212 0 -20 1183 385 hstemhm
          95 419 hintmask 10000000
          979 743 rmoveto
          70 4 16 4 27 vhcurveto
          -6 14 0 7 -18 10 rrcurveto
          -4 -82 -39 -4 -35 hhcurveto
          -41 -37 4 4 -90 hvcurveto
          -2 -8 -2 -7 -8 vvcurveto
          -8 2 -8 2 -8 vhcurveto
          53 -9 94 -14 2 -74 rrcurveto
          7 -174 2 -112 -236 vvcurveto
          -78 -109 -100 -55 -78 hhcurveto
          -76 -33 62 118 hvcurveto
          2 475 rlineto
          70 7 16 2 27 vhcurveto
          -6 14 -5 11 -18 6 rrcurveto
          -4 -82 -39 -4 -35 hhcurveto
          -41 -36 4 4 -91 hvcurveto
          -2 -8 -2 -7 -8 vvcurveto
          -8 2 -8 2 -8 vhcurveto
          54 -9 96 -14 -74 vvcurveto
          2 hlineto
          8 -507 rlineto
          -177 2 53 -88 156 hhcurveto
          133 127 95 92 107 hvcurveto
          -156 vlineto
          6 -12 12 -8 16 -7 95 41 116 29 127 12 rrcurveto
          2 6 3 9 6 vvcurveto
          8 -3 8 -2 10 vhcurveto
          -86 5 -65 12 -41 24 rrcurveto
          158 -4 92 109 vvcurveto
          67 2 74 4 98 vhcurveto
          hintmask 01100000
          -573 678 rmoveto
          31 -27 -30 16 -35 hhcurveto
          -51 -35 -34 -52 -34 16 -21 21 -18 hvcurveto
          14 -13 16 -10 41 -26 283 -177 rcurveline
          29 37 rlineto
          endchar
        </CharString>
        <CharString name="underscore">
          224 -539 113 hstem
          -532 vmoveto
          1257 108 -1257 hlineto
          endchar
        </CharString>
        <CharString name="uni00AD">
          -97 334 151 hstem
          164 412 rmoveto
          608 125 -608 hlineto
          endchar
        </CharString>
        <CharString name="v">
          -56 -8 43 -35 -20 897 -20 hstem
          635 840 rmoveto
          55 -4 60 -9 -41 vvcurveto
          -12 -5 -16 -6 -15 vhcurveto
          -213 -505 rlineto
          -6 hlineto
          -182 505 rlineto
          -2 7 -6 14 16 vvcurveto
          49 88 7 53 4 vhcurveto
          2 8 2 6 8 vvcurveto
          8 -2 9 -2 8 vhcurveto
          -4 -86 -74 -2 -82 hhcurveto
          -84 -94 2 4 -88 hvcurveto
          -4 -10 0 -7 -8 vvcurveto
          -8 0 -6 4 -8 vhcurveto
          53 -9 93 -14 28 -74 303 -772 rcurveline
          49 hlineto
          342 772 25 54 43 39 94 4 rlinecurve
          2 10 2 8 8 vvcurveto
          6 -2 9 -2 6 vhcurveto
          -4 -86 -67 -2 -60 hhcurveto
          -28 -78 4 2 -39 hvcurveto
          -2 -8 -2 -9 -8 vvcurveto
          -8 2 -6 2 -8 vhcurveto
          endchar
        </CharString>
        <CharString name="w">
          452 -8 43 -35 -20 897 -20 hstem
          965 -29 rmoveto
          47 hlineto
          336 772 22 54 41 39 90 4 rlinecurve
          2 10 2 8 8 vvcurveto
          6 -2 9 -2 6 vhcurveto
          -4 -82 -63 -2 -58 hhcurveto
          -26 -74 4 2 -37 hvcurveto
          -2 -8 -2 -9 -8 vvcurveto
          -8 2 -6 2 -8 vhcurveto
          51 -4 58 -9 -41 vvcurveto
          -12 -4 -16 -6 -15 vhcurveto
          -216 -510 rlineto
          -4 hlineto
          -184 510 rlineto
          -2 7 -6 14 16 vvcurveto
          49 84 7 49 4 vhcurveto
          2 8 2 6 8 vvcurveto
          8 -2 9 -2 8 vhcurveto
          -4 -82 -65 -2 -80 hhcurveto
          -78 -70 2 4 -84 hvcurveto
          -4 -10 0 -7 -8 vvcurveto
          -8 0 -6 4 -8 vhcurveto
          51 -9 68 -14 27 -74 41 -108 rcurveline
          -183 -402 rlineto
          -4 hlineto
          -205 510 rlineto
          -2 7 -6 14 16 vvcurveto
          49 68 7 49 4 vhcurveto
          2 8 2 6 8 vvcurveto
          8 -2 9 -2 8 vhcurveto
          -4 -82 -51 -2 -80 hhcurveto
          -78 -88 2 4 -84 hvcurveto
          -4 -10 0 -7 -8 vvcurveto
          -8 0 -6 4 -8 vhcurveto
          51 -9 84 -16 31 -72 317 -772 rcurveline
          48 hlineto
          254 561 rlineto
          endchar
        </CharString>
        <CharString name="x">
          -23 20 43 -40 43 hstem
          1006 41 rmoveto
          -54 8 -53 6 -68 82 -241 334 rcurveline
          213 272 39 41 51 52 94 4 rlinecurve
          2 10 2 8 8 vvcurveto
          6 -2 9 -2 6 vhcurveto
          -4 -86 -67 -2 -60 hhcurveto
          -29 -77 4 2 -39 hvcurveto
          -2 -8 -2 -9 -8 vvcurveto
          -8 2 -6 2 -8 vhcurveto
          71 -2 31 -17 -35 vvcurveto
          -12 -10 -14 -12 -17 vhcurveto
          -162 -215 -154 215 rlineto
          -2 7 -10 14 20 vvcurveto
          45 61 7 54 4 vhcurveto
          2 8 2 6 8 vvcurveto
          8 -2 9 -2 8 vhcurveto
          -4 -86 -54 -2 -82 hhcurveto
          -84 -84 2 4 -88 hvcurveto
          -4 -10 0 -7 -8 vvcurveto
          -8 0 -6 4 -8 vhcurveto
          54 -9 53 -6 68 -82 229 -317 rcurveline
          -234 -289 -38 -41 -52 -51 -94 -4 rlinecurve
          -2 -10 -2 -8 -9 vvcurveto
          -6 2 -8 2 -6 vhcurveto
          4 86 68 2 59 hhcurveto
          29 78 -4 -2 38 hvcurveto
          3 8 2 8 8 vvcurveto
          9 -2 6 -3 8 vhcurveto
          -71 2 -31 16 35 vvcurveto
          12 10 15 13 16 vhcurveto
          182 230 166 -230 rlineto
          6 -10 6 -4 -27 vvcurveto
          -45 -61 -6 -54 -4 vhcurveto
          -2 -8 -2 -6 -9 vvcurveto
          -8 2 -8 2 -8 vhcurveto
          4 86 54 2 82 hhcurveto
          84 84 -2 -4 88 hvcurveto
          4 10 0 6 8 vvcurveto
          9 0 6 -4 8 vhcurveto
          endchar
        </CharString>
        <CharString name="y">
          -107 -532 43 1363 -20 hstem
          604 840 rmoveto
          55 -4 60 -9 -41 vvcurveto
          -12 -4 -16 -6 -15 vhcurveto
          -193 -505 rlineto
          -6 hlineto
          -203 505 rlineto
          -2 7 -6 14 16 vvcurveto
          49 98 7 54 4 vhcurveto
          2 8 2 6 8 vvcurveto
          8 -2 9 -2 8 vhcurveto
          -4 -86 -84 -2 -82 hhcurveto
          -84 -95 2 4 -88 hvcurveto
          -4 -10 0 -7 -8 vvcurveto
          -8 0 -6 4 -8 vhcurveto
          54 -9 90 -16 30 -72 312 -743 rcurveline
          -111 -285 rlineto
          -172 -65 -31 -20 -37 hhcurveto
          -8 -21 4 18 -4 hvcurveto
          23 15 20 24 37 vvcurveto
          41 -30 47 -64 -63 -52 -45 -82 -88 68 -57 88 109 59 57 219 84 vhcurveto
          111 291 rlineto
          -2 hlineto
          309 739 22 54 45 39 95 4 rlinecurve
          2 10 2 8 8 vvcurveto
          6 -2 9 -2 6 vhcurveto
          -4 -86 -68 -2 -59 hhcurveto
          -29 -78 4 2 -39 hvcurveto
          -2 -8 -2 -9 -8 vvcurveto
          -8 2 -6 2 -8 vhcurveto
          endchar
        </CharString>
        <CharString name="yacute">
          -107 -532 43 1363 -20 309 385 hstemhm
          91 419 hintmask 11000000
          604 840 rmoveto
          55 -4 60 -9 -41 vvcurveto
          -12 -4 -16 -6 -15 vhcurveto
          -193 -505 rlineto
          -6 hlineto
          -203 505 rlineto
          -2 7 -6 14 16 vvcurveto
          49 98 7 54 4 vhcurveto
          2 8 2 6 8 vvcurveto
          8 -2 9 -2 8 vhcurveto
          -4 -86 -84 -2 -82 hhcurveto
          -84 -95 2 4 -88 hvcurveto
          -4 -10 0 -7 -8 vvcurveto
          -8 0 -6 4 -8 vhcurveto
          54 -9 90 -16 30 -72 312 -743 rcurveline
          -111 -285 rlineto
          -172 -65 -31 -20 -37 hhcurveto
          -8 -21 4 18 -4 hvcurveto
          23 15 20 24 37 vvcurveto
          41 -30 47 -64 -63 -52 -45 -82 -88 68 -57 88 109 59 57 219 84 vhcurveto
          111 291 rlineto
          -2 hlineto
          309 739 22 54 45 39 95 4 rlinecurve
          2 10 2 8 8 vvcurveto
          6 -2 9 -2 6 vhcurveto
          -4 -86 -68 -2 -59 hhcurveto
          -29 -78 4 2 -39 hvcurveto
          -2 -8 -2 -9 -8 vvcurveto
          -8 2 -6 2 -8 vhcurveto
          hintmask 00110000
          -186 280 rmoveto
          29 -37 283 177 41 26 16 10 14 13 rlinecurve
          21 18 16 21 34 vvcurveto
          52 -35 34 -51 -35 -30 -16 -31 -27 vhcurveto
          endchar
        </CharString>
        <CharString name="ydieresis">
          -107 -532 43 1363 -20 309 223 hstemhm
          406 221 137 223 hintmask 11000000
          604 840 rmoveto
          55 -4 60 -9 -41 vvcurveto
          -12 -4 -16 -6 -15 vhcurveto
          -193 -505 rlineto
          -6 hlineto
          -203 505 rlineto
          -2 7 -6 14 16 vvcurveto
          49 98 7 54 4 vhcurveto
          2 8 2 6 8 vvcurveto
          8 -2 9 -2 8 vhcurveto
          -4 -86 -84 -2 -82 hhcurveto
          -84 -95 2 4 -88 hvcurveto
          -4 -10 0 -7 -8 vvcurveto
          -8 0 -6 4 -8 vhcurveto
          54 -9 90 -16 30 -72 312 -743 rcurveline
          -111 -285 rlineto
          -172 -65 -31 -20 -37 hhcurveto
          -8 -21 4 18 -4 hvcurveto
          23 15 20 24 37 vvcurveto
          41 -30 47 -64 -63 -52 -45 -82 -88 68 -57 88 109 59 57 219 84 vhcurveto
          111 291 rlineto
          -2 hlineto
          309 739 22 54 45 39 95 4 rlinecurve
          2 10 2 8 8 vvcurveto
          6 -2 9 -2 6 vhcurveto
          -4 -86 -68 -2 -59 hhcurveto
          -29 -78 4 2 -39 hvcurveto
          -2 -8 -2 -9 -8 vvcurveto
          -8 2 -6 2 -8 vhcurveto
          hintmask 00111000
          -405 399 rmoveto
          -68 53 -53 68 65 54 53 68 66 -54 53 -65 -68 -53 -53 -66 vhcurveto
          373 hmoveto
          -68 53 -53 66 67 53 53 68 66 -53 53 -67 -66 -53 -53 -66 vhcurveto
          endchar
        </CharString>
        <CharString name="yen">
          0 70 471 80 143 80 520 70 hstem
          389 176 vstem
          354 1307 rmoveto
          -10 26 0 4 13 vvcurveto
          51 53 16 138 6 vhcurveto
          2 7 2 10 8 vvcurveto
          8 -2 6 -2 8 vhcurveto
          -6 -107 -78 -2 -108 hhcurveto
          -113 -82 4 4 -106 hvcurveto
          -2 -6 -2 -8 -8 vvcurveto
          -8 2 -8 2 -9 vhcurveto
          79 -8 52 -16 53 -72 274 -610 rcurveline
          -88 -88 2 4 -86 hvcurveto
          -84 vlineto
          2 99 98 2 98 hhcurveto
          -123 vlineto
          -98 -98 2 4 -99 hvcurveto
          -84 vlineto
          2 99 96 2 98 hhcurveto
          -2 -102 -2 -100 -4 -107 -2 -74 -135 -14 -82 -8 rrcurveto
          -4 -10 0 -8 -9 vvcurveto
          -6 2 -8 2 -6 vhcurveto
          4 106 107 2 112 hhcurveto
          109 113 -2 -4 106 hvcurveto
          2 6 2 8 6 vvcurveto
          9 0 6 -4 12 vhcurveto
          -82 8 -135 14 -2 74 -4 107 -2 100 -2 102 rrcurveto
          98 98 -2 -2 99 hvcurveto
          84 vlineto
          -4 -99 -98 -2 -98 hhcurveto
          123 vlineto
          98 98 -2 -2 99 hvcurveto
          84 vlineto
          -4 -86 -86 -2 -86 hhcurveto
          292 596 31 61 55 41 80 8 rlinecurve
          4 11 0 8 8 vvcurveto
          6 -2 8 -2 6 vhcurveto
          -4 -71 -64 -2 -49 hhcurveto
          -53 -74 2 4 -82 hvcurveto
          -2 -6 -2 -8 -6 vvcurveto
          -8 2 -8 2 -11 vhcurveto
          86 -10 53 -14 -45 vvcurveto
          -13 -6 -18 -6 -10 vhcurveto
          -256 -559 rlineto
          -12 hlineto
          endchar
        </CharString>
        <CharString name="z">
          -81 20 43 811 -20 hstem
          98 637 rmoveto
          -6 6 31 -13 10 hhcurveto
          150 74 117 57 137 hhcurveto
          133 hlineto
          -524 -790 4 -15 6 -16 17 -10 rlinecurve
          4 116 125 2 117 hhcurveto
          117 116 -2 -4 117 hvcurveto
          64 313 rlineto
          6 -13 -10 2 -12 hhcurveto
          -147 -84 -57 -96 -181 hhcurveto
          -221 hlineto
          516 778 rlineto
          12 -6 12 -12 13 vhcurveto
          -6 -111 -117 -2 -98 hhcurveto
          -100 -99 2 6 -108 hvcurveto
          endchar
        </CharString>
        <CharString name="zero">
          6 43 952 -20 23 -20 hstemhm
          hintmask 10100000
          29 475 rmoveto
          -278 223 -226 278 279 227 226 278 vhcurveto
          hintmask 11000000
          279 -227 227 -279 -278 -223 -227 -279 vhcurveto
          135 -2 rmoveto
          207 164 166 200 207 166 -166 -207 -201 -166 -166 -207 -200 -164 166 201 vhcurveto
          endchar
        </CharString>
</ttFont>
